<svg xmlns="http://www.w3.org/2000/svg" viewBox="0 0 73.52 75.85"><defs><style>.cls-1{isolation:isolate;}.cls-2{fill:#f4cc34;}.cls-3{fill:#ffc354;}.cls-3,.cls-4{opacity:0.49;mix-blend-mode:multiply;}.cls-4{fill:#e68286;}.cls-5{fill:#462810;}.cls-6{fill:#69513d;}</style></defs><title>Asset 3</title><g class="cls-1"><g id="Layer_2" data-name="Layer 2"><g id="OBJECTS"><path class="cls-2" d="M35,35.66S21.54,34.43,17,22.15s1.45-16.66,9.53-20,12.92-3,15.24,2,.12,28.3.12,28.3S46,14.89,52.76,8.41s14.62,5,17.49,12.1-.26,12-5.8,14.19-13.81,2.11-13.81,2.11,17.27,4.06,21.29,9.59S71.86,59,65.5,63.6s-12,3.59-15.34-.36-8.43-17.92-8.43-17.92,9.16,18.93,1.93,26.23-16.95,4.13-21.34-.86.49-13.4,3.47-19.15,7.4-13,7.4-13-5.5,13.2-15.25,17.73S2.82,54.42,1.2,46.91-1.31,31.85,4.76,30,35,35.66,35,35.66Z"/><path class="cls-3" d="M45.59,20.65a94.87,94.87,0,0,0-3.74,11.8s.81-8.65.93-16.53l-.52,1.15a33.78,33.78,0,0,1-4.84,7.43c-2.57,3.06-5.77,5.37-9.93,5.1-3.12-.21-6.21-1.88-8.91-4.09A20.85,20.85,0,0,0,28,33.64c-3.18-.87-7-1.86-10.78-2.63a1.3,1.3,0,0,0,.22.19c5.36,3.28,7.73,6.46,9.13,10.29,1.17,3.2.08,5.57-2.5,10a1.85,1.85,0,0,0-.11.55,36,36,0,0,0,4.2-4.82c-.81,1.45-1.62,2.94-2.34,4.33C24.93,53.2,23.91,55.08,23,57c1.15-.67,5.85-5.9,12.63-5.87,5.77,0,10.08,7.51,10.55,8.53a45.09,45.09,0,0,0-1.82-7.65c.79,1.9,1.7,4,2.61,5.84-.41-3.52-1.48-8.25.73-11.92C51,40.5,58,39.51,58.86,39.21c-4.44-1.51-8.22-2.4-8.22-2.4a51,51,0,0,0,9.83-1,24.58,24.58,0,0,1-4.82-1.76c-4.15-2.14-8-6-9.44-10.36A15.82,15.82,0,0,1,45.59,20.65Z"/><path class="cls-4" d="M60.47,35.86c-.72-.2-1.44-.42-2.15-.66a35.36,35.36,0,0,1-3.59.45c-5,.42-12-.19-12-2.12,0-1.45,2.24-7.41,3.38-10.29a16.67,16.67,0,0,1-.5-2.59,94.87,94.87,0,0,0-3.74,11.8s.81-8.65.93-16.53l-.52,1.15a.08.08,0,0,0,0,0c0,.73-.09,1.57-.15,2.55-.24,4-1,11.54-2,13.31s-3.43,3.85-11.27.34a23.91,23.91,0,0,1-9.22-7c-.35-.26-.68-.52-1-.79A20.85,20.85,0,0,0,28,33.64c-3.18-.87-7-1.86-10.78-2.63a1.3,1.3,0,0,0,.22.19c.75.46,1.43.92,2.07,1.37l.94.2c4.15.9,12.66,3,14.09,4.25s1.58,1.83-.92,4.25c-1.47,1.41-5.09,4.65-7.85,7.11-.45.93-1,1.94-1.7,3.1a1.85,1.85,0,0,0-.11.55,36,36,0,0,0,4.2-4.82c-.81,1.45-1.62,2.94-2.34,4.33C24.93,53.2,23.91,55.08,23,57c.32-.18.91-.72,1.73-1.39.68-1.38,1.71-3.34,3.07-5.57,2.6-4.28,7.57-9.17,9.56-10.19s3.46,3.12,4.81,8.27c.65,2.45,1.28,5.54,1.75,8.11a20.73,20.73,0,0,1,2.26,3.43,45.09,45.09,0,0,0-1.82-7.65c.79,1.9,1.7,4,2.61,5.84-.09-.79-.21-1.64-.33-2.52-1.42-3.11-3.87-8.59-5-11.69-1.62-4.45.56-6,3.56-6.6,2.21-.41,8.92,1.42,12.37,2.46.64-.17,1.1-.27,1.28-.33-4.44-1.51-8.22-2.4-8.22-2.4A51,51,0,0,0,60.47,35.86Z"/><path class="cls-5" d="M38.33,36a9.65,9.65,0,0,0-1.2-.18,8,8,0,0,1-1.35-.4A14.26,14.26,0,0,1,33,33.86a23.3,23.3,0,0,1-2.4-1.93c-.66-.61-1.21-1.31-1.86-1.92a.18.18,0,0,0-.28.2,7.34,7.34,0,0,0,1.66,2.22,15.7,15.7,0,0,0,2.56,2.18,13.11,13.11,0,0,0,2.89,1.53,4.29,4.29,0,0,0,2.71.39.31.31,0,0,0,0-.56Z"/><path class="cls-5" d="M22.71,41.07c2.77.44,5.43-.38,8.08-1.1a28.37,28.37,0,0,0,4.4-1.46,19.49,19.49,0,0,0,1.87-1c.6-.35,1.35-.69,1.6-1.38a.23.23,0,0,0-.22-.32,3.58,3.58,0,0,0-1.69.8,18,18,0,0,1-1.88,1,26.16,26.16,0,0,1-4.12,1.45c-2.62.74-5.2,1.67-8,1.49a.23.23,0,0,0-.07.46Z"/><path class="cls-5" d="M30.87,47.27a21.29,21.29,0,0,0,4.89-4.77,14.78,14.78,0,0,0,1.69-3A15.51,15.51,0,0,0,38,37.92a2,2,0,0,0,.13-1.33.19.19,0,0,0-.32,0,3.22,3.22,0,0,0-.49,1.26,8.4,8.4,0,0,1-.58,1.43A20.27,20.27,0,0,1,35,42.1a23.68,23.68,0,0,1-4.52,4.59.36.36,0,0,0,.42.58Z"/><path class="cls-5" d="M35.4,55.26a27.64,27.64,0,0,0,3-9.72,36.64,36.64,0,0,0,.38-5c0-.86,0-1.71-.08-2.56-.05-.64.07-1.66-.43-2.12a.23.23,0,0,0-.32,0c-.33.53-.05,1.33,0,1.93.07.81.1,1.63.11,2.44a34.51,34.51,0,0,1-.35,5.18A44.58,44.58,0,0,1,35,55.1a.2.2,0,0,0,.37.16Z"/><path class="cls-5" d="M38.59,36.87a15.21,15.21,0,0,1,1.54,2.76,18.53,18.53,0,0,0,1.16,2.47c.43.74.89,1.46,1.29,2.21s.61,1.57,1,2.34a.16.16,0,0,0,.31,0,3.91,3.91,0,0,0-.59-2.24c-.4-.8-.9-1.55-1.37-2.31s-1-1.69-1.5-2.56a24.87,24.87,0,0,0-1.53-2.83c-.12-.18-.38,0-.26.19Z"/><path class="cls-5" d="M38.19,36.73a30.65,30.65,0,0,1,7.67,4.6A20.64,20.64,0,0,1,49,44.82c.46.62.91,1.24,1.35,1.87a4.63,4.63,0,0,0,1.42,1.56.23.23,0,0,0,.31-.23,5,5,0,0,0-1-1.85c-.52-.7-1-1.41-1.58-2.1a26.58,26.58,0,0,0-3.15-3.39,21,21,0,0,0-7.9-4.58c-.41-.12-.69.45-.28.63Z"/><path class="cls-5" d="M37.93,37.06a12.87,12.87,0,0,0,3.77.12c1.34-.07,2.67-.2,4-.39A34,34,0,0,0,49.42,36a17.69,17.69,0,0,0,1.88-.57,2.2,2.2,0,0,0,1.35-.87.26.26,0,0,0-.14-.35,2.08,2.08,0,0,0-1.36.15c-.63.19-1.26.38-1.9.55a34.36,34.36,0,0,1-3.89.79c-1.25.19-2.5.32-3.76.42a18.5,18.5,0,0,0-3.72.4c-.28.08-.18.44,0,.5Z"/><path class="cls-5" d="M38,36.31c3-.36,5.35-2.45,7.73-4.07a38.11,38.11,0,0,0,3.83-2.74c1-.9,2.3-2.09,2.47-3.51a.17.17,0,0,0-.29-.13c-.51.51-.89,1.14-1.35,1.7a12.92,12.92,0,0,1-1.71,1.68c-1.07.88-2.25,1.61-3.38,2.41-2.26,1.6-4.5,3.74-7.35,4.16a.25.25,0,0,0,0,.5Z"/><path class="cls-5" d="M38.17,36.6c1.91-2,4.08-3.85,5.56-6.19a13.7,13.7,0,0,0,1.41-3,8.16,8.16,0,0,0,.68-3.32.3.3,0,0,0-.56-.09,7.44,7.44,0,0,0-.4,1.56,15.72,15.72,0,0,1-.49,1.75,12.77,12.77,0,0,1-1.45,3c-1.47,2.19-3.51,3.92-5.17,5.95-.23.27.18.58.42.34Z"/><path class="cls-5" d="M38.52,36.37a23.39,23.39,0,0,0,.22-4.18,17.81,17.81,0,0,0-1.15-4.41,27.43,27.43,0,0,0-1.86-4.23c-.39-.7-.84-1.38-1.3-2.05a6.56,6.56,0,0,0-1.5-1.81.2.2,0,0,0-.31.22,7.25,7.25,0,0,0,1.12,1.91c.39.59.76,1.19,1.12,1.81a26,26,0,0,1,1.94,4.14A20.15,20.15,0,0,1,38.05,32a24.82,24.82,0,0,1,0,4.31c0,.33.48.42.51.08Z"/><path class="cls-6" d="M32.17,16.47a2.81,2.81,0,0,0-2.07,3.05,2.17,2.17,0,0,0,3.28,1.61,2.92,2.92,0,0,0,.82-4.05A2,2,0,0,0,32.17,16.47Z"/><path class="cls-6" d="M27.92,27.74a2.82,2.82,0,0,0-2.07,3.05,2.18,2.18,0,0,0,3.28,1.62A3,3,0,0,0,30,28.35,2,2,0,0,0,27.92,27.74Z"/><path class="cls-6" d="M27.92,46.81a2.83,2.83,0,0,0,2,3.11,2.18,2.18,0,0,0,2.77-2.38,2.94,2.94,0,0,0-3.4-2.36A2,2,0,0,0,27.92,46.81Z"/><path class="cls-6" d="M49.52,25.4a2.83,2.83,0,0,0,2,3.1,2.18,2.18,0,0,0,2.78-2.38,2.94,2.94,0,0,0-3.4-2.35A2,2,0,0,0,49.52,25.4Z"/><path class="cls-6" d="M43.25,23.79A2.52,2.52,0,0,0,46.31,25a2,2,0,0,0,.8-3.18,2.63,2.63,0,0,0-3.71,0A1.8,1.8,0,0,0,43.25,23.79Z"/><path class="cls-6" d="M50.91,49.64a2.73,2.73,0,0,0,3.39-1.08,2.11,2.11,0,0,0-1.53-3.19,2.83,2.83,0,0,0-3,2.59A1.92,1.92,0,0,0,50.91,49.64Z"/><path class="cls-6" d="M42.37,48.33A2,2,0,0,0,45,48a1.55,1.55,0,0,0-.65-2.53,2.1,2.1,0,0,0-2.58,1.44A1.43,1.43,0,0,0,42.37,48.33Z"/><path class="cls-6" d="M33.05,54.68a2.44,2.44,0,0,0,1.71,2.67,1.88,1.88,0,0,0,2.38-2,2.53,2.53,0,0,0-2.92-2A1.72,1.72,0,0,0,33.05,54.68Z"/><path class="cls-6" d="M54.73,35.65a2.42,2.42,0,0,0-.95-3A1.87,1.87,0,0,0,51,34a2.52,2.52,0,0,0,2.29,2.71A1.69,1.69,0,0,0,54.73,35.65Z"/><path class="cls-6" d="M22.37,39a2.27,2.27,0,0,0-1,2.8,1.75,1.75,0,0,0,2.89.56A2.37,2.37,0,0,0,24.08,39,1.6,1.6,0,0,0,22.37,39Z"/><path class="cls-6" d="M39.78,33.36c-2,.15-4.62,1.34-4.54,3.72,0,1.44,1.41,3.41,2.87,3.42C41.57,40.53,43.69,34.64,39.78,33.36Z"/></g></g></g></svg>