<svg xmlns="http://www.w3.org/2000/svg" viewBox="0 0 500 500"><defs><style>.cls-1{fill:#fcf3ce;}.cls-2{fill:#fff;}</style></defs><title>Asset 5</title><g id="Layer_2" data-name="Layer 2"><g id="BACKGROUND"><rect class="cls-1" width="500" height="500"/><path class="cls-2" d="M164.74,122c3.56,0,3.56-5.53,0-5.53s-3.57,5.53,0,5.53Z"/><path class="cls-2" d="M227.08,61.43c5.19,0,5.2-8.06,0-8.06s-5.19,8.06,0,8.06Z"/><path class="cls-2" d="M227.08,286c5.19,0,5.2-8.06,0-8.06s-5.19,8.06,0,8.06Z"/><path class="cls-2" d="M78.12,210.52c3.92,0,3.93-6.1,0-6.1s-3.93,6.1,0,6.1Z"/><path class="cls-2" d="M176.53,385.89c3.92,0,3.93-6.1,0-6.1s-3.93,6.1,0,6.1Z"/><path class="cls-2" d="M48.88,210.14c3.44,0,3.44-5.34,0-5.34s-3.45,5.34,0,5.34Z"/><path class="cls-2" d="M57.7,249.85c5.55,0,5.56-8.62,0-8.62s-5.55,8.62,0,8.62Z"/><path class="cls-2" d="M293.5,436.94c5.55,0,5.56-8.62,0-8.62s-5.56,8.62,0,8.62Z"/><path class="cls-2" d="M381.57,183.5a1.41,1.41,0,0,0,0-2.82,1.41,1.41,0,0,0,0,2.82Z"/><path class="cls-2" d="M435.64,167.42a4.49,4.49,0,0,0,4.24-2.85,3.56,3.56,0,0,0,.4-1.79c-.06-.41-.11-.82-.17-1.23a4.67,4.67,0,0,0-1.19-2.05l-.94-.73a4.62,4.62,0,0,0-2.34-.63,3.44,3.44,0,0,0-1.79.4,4.17,4.17,0,0,0-2.46,2.45,3.43,3.43,0,0,0-.39,1.79c.05.41.11.82.16,1.23a4.67,4.67,0,0,0,1.19,2.05l.94.73a4.63,4.63,0,0,0,2.35.63Z"/><path class="cls-2" d="M437.29,216.85c6.4,0,6.41-9.94,0-9.94s-6.4,9.94,0,9.94Z"/><path class="cls-2" d="M48.88,416.88c6.39,0,6.4-9.94,0-9.94s-6.41,9.94,0,9.94Z"/><path class="cls-2" d="M462.67,250.49c4.95,0,5-7.69,0-7.69s-4.95,7.69,0,7.69Z"/><path class="cls-2" d="M370,295.56c6.15,0,6.16-9.56,0-9.56s-6.16,9.56,0,9.56Z"/><path class="cls-2" d="M459.91,323.79c2.72,0,2.72-4.22,0-4.22s-2.72,4.22,0,4.22Z"/><path class="cls-2" d="M167.41,351.39c2.72,0,2.72-4.22,0-4.22s-2.72,4.22,0,4.22Z"/><path class="cls-2" d="M39,133.92c4,0,4-6.28,0-6.28s-4.05,6.28,0,6.28Z"/><path class="cls-2" d="M40.78,48l0-.71a4.77,4.77,0,0,0-.59-2.18l-.68-.88a3.17,3.17,0,0,0-1.39-.89,2.11,2.11,0,0,0-1.09-.3,2.24,2.24,0,0,0-1.15,0,2.08,2.08,0,0,0-1.09.3,3.17,3.17,0,0,0-1.39.89l-.43.52a4.6,4.6,0,0,0-1.18,4.47,4.58,4.58,0,0,0,1.18,2,3.49,3.49,0,0,0,1.48.95,3.38,3.38,0,0,0,1.77.39A4.57,4.57,0,0,0,40.78,48Z"/><path class="cls-2" d="M270.67,43.77a2.8,2.8,0,0,0,1.34-.3,2.55,2.55,0,0,0,1.11-.72,2.58,2.58,0,0,0,.72-1.12,2.55,2.55,0,0,0,.3-1.33l-.12-.93a3.61,3.61,0,0,0-.9-1.53l-.7-.54a3.45,3.45,0,0,0-1.75-.47,2.59,2.59,0,0,0-1.34.3A3.1,3.1,0,0,0,267.5,39a2.57,2.57,0,0,0-.3,1.34l.13.92a3.39,3.39,0,0,0,.89,1.53l.7.54a3.46,3.46,0,0,0,1.75.48Z"/><path class="cls-2" d="M295,31.87a1.5,1.5,0,0,0,0-3,1.5,1.5,0,0,0,0,3Z"/><path class="cls-2" d="M291.08,57.09c3.86,0,3.87-6,0-6s-3.86,6,0,6Z"/><path class="cls-2" d="M280.45,170.42c3.86,0,3.87-6,0-6s-3.86,6,0,6Z"/><path class="cls-2" d="M351.77,46.91c2.84,0,2.84-4.4,0-4.4s-2.84,4.4,0,4.4Z"/><path class="cls-2" d="M167,24c5.24,0,5.25-8.16,0-8.16S161.69,24,167,24Z"/><path class="cls-2" d="M448.6,45.16c5.19,0,5.2-8.07,0-8.07s-5.2,8.07,0,8.07Z"/></g></g></svg>