<svg xmlns="http://www.w3.org/2000/svg" xmlns:xlink="http://www.w3.org/1999/xlink" viewBox="0 0 424.09 220.91"><defs><style>.cls-1{fill:none;}.cls-2{isolation:isolate;}.cls-3{fill:#dcd6d2;}.cls-13,.cls-16,.cls-19,.cls-20,.cls-3,.cls-8{mix-blend-mode:multiply;}.cls-4{fill:#74af51;}.cls-5{clip-path:url(#clip-path);}.cls-6{fill:#0f9b66;}.cls-7{fill:#afd19b;}.cls-8{fill:#b8e1d1;}.cls-9{fill:#7eb55e;}.cls-10{clip-path:url(#clip-path-2);}.cls-11{fill:#6fac4c;}.cls-12{fill:#68a842;}.cls-13{fill:#afa398;}.cls-14{fill:#bdd85b;}.cls-15{fill:#c0da63;opacity:0.36;mix-blend-mode:overlay;}.cls-16{fill:#cbc3bc;}.cls-17{fill:#624834;}.cls-18{fill:#00955c;}.cls-19{fill:#e5e1de;}.cls-20{fill:#bbafa7;}.cls-21{fill:#d42b32;}.cls-22{fill:#462810;}</style><clipPath id="clip-path"><path class="cls-1" d="M89.51,147.8s11.16-18-10.91-60.44S36.39,31.63,25.08,28.88,4.94,27.5,1.63,41.56,14.32,94,20.39,108.88,31.15,138.94,48,146.12s30.34,7.44,35.31,5.79a23.08,23.08,0,0,0,7.45-3.86"/></clipPath><clipPath id="clip-path-2"><path class="cls-1" d="M119.7,134.53s-18.48-3-30.62-17.1S73.63,62.81,71.43,50.12s-10.76-40.83,5-47.73,36.69,29.8,41.38,49.11,12.69,44.13,12.14,58.2-4.41,22.07-5.79,24S119.7,134.53,119.7,134.53Z"/></clipPath></defs><title>Asset 2</title><g class="cls-2"><g id="Layer_2" data-name="Layer 2"><g id="OBJECTS"><ellipse class="cls-3" cx="119.56" cy="191.22" rx="81.89" ry="29.38"/><path class="cls-4" d="M89.51,147.8s11.16-18-10.91-60.44S36.39,31.63,25.08,28.88,4.94,27.5,1.63,41.56,14.32,94,20.39,108.88,31.15,138.94,48,146.12s30.34,7.44,35.31,5.79a23.08,23.08,0,0,0,7.45-3.86"/><g class="cls-5"><path class="cls-6" d="M23.75,45.43c0-3.12-.12-6.22-.39-9.32-.13-1.51-.27-3-.4-4.53a28.31,28.31,0,0,0-.46-4.41c0-.16-.32-.18-.35,0a20.73,20.73,0,0,0,.09,4.24c.11,1.57.24,3.14.35,4.7.22,3.1.46,6.21.51,9.32a.33.33,0,0,0,.65,0Z"/><path class="cls-6" d="M29.29,50.12c.13-3.53,0-7-.12-10.56a78.85,78.85,0,0,0-.53-10.2.26.26,0,0,0-.5,0c-.54,3.32-.14,6.85,0,10.2q.24,5.28.45,10.56a.35.35,0,0,0,.69,0Z"/><path class="cls-6" d="M33.87,56.8c1.4-3.65,1.05-7.6,1-11.43,0-2.3.06-4.6.14-6.9s.52-4.79-.08-6.9a.24.24,0,0,0-.45,0c-.57,2-.29,4.38-.36,6.41-.07,2.34-.15,4.67-.12,7,0,3.85.54,7.94-.63,11.68-.09.31.36.42.47.13Z"/><path class="cls-6" d="M40.26,63.44c.71-4.27,1.22-8.56,1.61-12.86q.3-3.34.48-6.7c.1-1.93.49-4.41-.18-6.25a.27.27,0,0,0-.52,0c-.69,1.85-.39,4.29-.45,6.25q-.11,3.24-.33,6.46c-.29,4.35-.75,8.68-1.19,13,0,.33.53.41.58.08Z"/><path class="cls-6" d="M45,72.37c1.93-4.27,1.25-9,1.71-13.52.26-2.64.72-5.25,1.07-7.87.31-2.32.8-5,.24-7.29a.31.31,0,0,0-.59,0c-.49,2.43-.45,5-.78,7.47s-.71,4.65-1,7c-.52,4.6.28,9.51-1.33,13.94-.14.38.49.65.66.28Z"/><path class="cls-6" d="M49.12,78.72c2.32-4.65,2-9.78,2.51-14.8.26-2.7.87-5.34,1.32-8,.37-2.18,1.12-5.12.26-7.25-.1-.23-.46-.28-.53,0a19,19,0,0,0-.3,3.2,42.26,42.26,0,0,1-.6,4.19c-.45,2.41-1,4.81-1.28,7.25-.58,5.06-.14,10.3-2,15.13-.15.39.49.66.67.29Z"/><path class="cls-6" d="M54.05,85.59c2.12-4.81,2.68-10,3.58-15.09.46-2.6,1-5.2,1.37-7.81s1-5.24.35-7.7a.36.36,0,0,0-.68,0c-.62,2.45-.54,5.09-.92,7.59s-.9,5.22-1.33,7.83c-.81,5-1.29,10.12-3,14.93-.12.35.45.59.6.25Z"/><path class="cls-6" d="M59.7,91.89c1.62-4.69,1.84-9.68,2.4-14.57.3-2.64.66-5.28.89-7.93a28.51,28.51,0,0,0,0-7.72c0-.16-.24-.11-.26,0-.25,2.56-.25,5.13-.58,7.69s-.76,5.13-1.1,7.7c-.66,4.86-.79,9.84-2.19,14.57-.15.53.65.74.83.23Z"/><path class="cls-6" d="M62.35,98.14c3.35-3.19,3.33-8.36,4.08-12.62.52-2.93,1.14-5.84,1.61-8.78.21-1.36.4-2.72.51-4.08a8.49,8.49,0,0,0-.16-4c-.12-.27-.5-.15-.58.08a14.78,14.78,0,0,0-.34,3.65c-.12,1.49-.33,3-.57,4.44-.45,2.73-1.05,5.42-1.52,8.14-.7,4.1-.57,9.32-3.64,12.52a.43.43,0,0,0,.61.6Z"/><path class="cls-6" d="M66.72,104.17c3.14-2.54,3.23-7.45,3.9-11.09.49-2.67,1.23-5.29,1.79-7.94.52-2.43,1.39-5.62.71-8.08a.33.33,0,0,0-.63,0,36.18,36.18,0,0,0-.44,3.75c-.19,1.35-.45,2.69-.74,4-.55,2.57-1.27,5.11-1.76,7.69-.35,1.86-.51,3.76-.9,5.62s-1,4.11-2.45,5.51c-.35.33.16.81.52.52Z"/><path class="cls-6" d="M71.43,113.45a36.64,36.64,0,0,0,3.8-8.7c.67-2.31,1.06-4.68,1.58-7,.46-2.13.93-4.26,1.21-6.43.17-1.3.64-3.77-.5-4.79a.43.43,0,0,0-.71.42c.55,3.69-.48,7.41-1.25,11-.45,2.11-.72,4.25-1.27,6.34a39.72,39.72,0,0,1-3.42,8.86.32.32,0,0,0,.56.32Z"/><path class="cls-6" d="M75.6,123.26a27.93,27.93,0,0,0,5.26-11c.55-2.09,1-4.21,1.31-6.34A44.41,44.41,0,0,0,83,99.8a.59.59,0,0,0-1-.41,1.23,1.23,0,0,0-.34.86c0,.22.17.42.38.3a.89.89,0,0,1,.37-.17c-.18-.25-.37-.49-.55-.73a49.53,49.53,0,0,0-1,5.7c-.33,2.07-.72,4.13-1.2,6.17a30.07,30.07,0,0,1-4.78,11.2c-.3.4.38.93.7.54Z"/><path class="cls-6" d="M81.42,129.93a57.83,57.83,0,0,0,3-13.69c.16-2.16.25-4.33.51-6.49a28.81,28.81,0,0,1,.62-3.46,18.88,18.88,0,0,0,.72-2.85l-1,.14a2,2,0,0,0,.23.76c.13.25.46.13.55-.08a2.6,2.6,0,0,0,.23-.68c.12-.48-.52-.91-.87-.51-1.26,1.46-1.5,3.83-1.75,5.66-.3,2.15-.39,4.31-.52,6.48a96.94,96.94,0,0,1-2.41,14.54.35.35,0,0,0,.68.18Z"/><path class="cls-6" d="M.22,38.84a21.14,21.14,0,0,0,8,4.55,25,25,0,0,0,4.68,1.08,11.6,11.6,0,0,0,4.51-.09c.4-.11.27-.63-.09-.68-1.38-.16-2.77-.21-4.14-.43a34.63,34.63,0,0,1-4.5-1.07,23.08,23.08,0,0,1-7.88-4c-.43-.35-1,.22-.62.62Z"/><path class="cls-6" d="M18.64,41.56c-.06-4.23.61-9.08-1.91-12.8-.14-.2-.5-.08-.42.18a28.33,28.33,0,0,1,1.33,6.32c.14,2.1,0,4.2.09,6.3a.46.46,0,0,0,.91,0Z"/><path class="cls-6" d="M15,39.55a28.65,28.65,0,0,1-4.68-2.82C9,35.9,7,34.85,5.36,35.54a.27.27,0,0,0,0,.46c.74.33,1.54.51,2.29.84A22.88,22.88,0,0,1,10,38.08a19.16,19.16,0,0,0,4.78,2.19.37.37,0,0,0,.19-.72Z"/><path class="cls-6" d="M.13,49.23a29.2,29.2,0,0,0,11,2.75,36.08,36.08,0,0,0,6.15,0,15.7,15.7,0,0,0,5.12-1.11c.21-.1.06-.4-.15-.36a42,42,0,0,1-5.12.84,39.12,39.12,0,0,1-5.83,0A31.83,31.83,0,0,1,.38,48.8c-.29-.14-.54.28-.25.43Z"/><path class="cls-6" d="M28.37,53.36c-1.1.06-2.2.17-3.22.21-2.54.11-5.08.24-7.62.23A45.18,45.18,0,0,1,2.28,51.42c-.38-.14-.66.49-.28.67A37.07,37.07,0,0,0,16.86,55c2.62,0,5.23,0,7.84-.15l3.79-.17.89,0Z"/><path class="cls-6" d="M6.87,60.17c4.74.29,9.45.81,14.18,1.24,2.28.2,4.56.4,6.85.57s4.77.59,6.93.06a.36.36,0,0,0,0-.68c-2.13-.65-4.71-.48-6.93-.62s-4.57-.32-6.85-.5c-4.72-.38-9.44-.7-14.18-.87-.51,0-.5.77,0,.8Z"/><path class="cls-6" d="M10.67,68.85a74.85,74.85,0,0,0,15.11.65c2.11-.09,4.23-.13,6.33-.39,1.77-.21,3.93-.46,5.34-1.66.27-.23,0-.61-.32-.55-2,.42-3.91,1.11-6,1.34s-3.93.27-5.89.39a74,74,0,0,1-14.51-.29c-.29,0-.36.46-.07.51Z"/><path class="cls-6" d="M10.38,71.39c4.8,2,10,1.87,15.12,1.78,2.81,0,5.6,0,8.4-.28s5.74-.34,8.2-1.48c.37-.18.14-.67-.19-.7-2.71-.24-5.55.53-8.25.76s-5.44.27-8.16.36c-4.94.17-10.23.75-14.95-1.06-.39-.15-.55.47-.17.62Z"/><path class="cls-6" d="M7.06,77.21c6.3,2.18,13,1.58,19.54,1.55,3,0,6.06.4,9.1.56a34.62,34.62,0,0,0,4.44,0A8.33,8.33,0,0,0,44,78.47a.26.26,0,0,0-.13-.47c-1.36,0-2.71.48-4.09.54a33.37,33.37,0,0,1-4.47-.11c-2.89-.22-5.77-.65-8.68-.68-6.46-.06-13.1.84-19.36-1.21-.43-.15-.61.53-.18.67Z"/><path class="cls-6" d="M17,83a71.91,71.91,0,0,0,14.79,1.25c2.5,0,5-.1,7.49-.18s5.11.15,7.43-.49a.39.39,0,0,0,0-.74c-2.18-.59-4.73-.27-7-.2-2.49.09-5,.22-7.48.28a81.56,81.56,0,0,1-15.07-.61c-.45-.07-.65.6-.19.69Z"/><path class="cls-6" d="M18.08,88.86a108.85,108.85,0,0,0,17.21,1.07q4.29-.11,8.58-.44c1.44-.12,2.89-.24,4.33-.38a10.34,10.34,0,0,0,3.92-.72.56.56,0,0,0-.13-1,11,11,0,0,0-4,.15c-1.36.14-2.73.28-4.09.4-2.85.26-5.72.45-8.58.56a117.59,117.59,0,0,1-17.1-.43c-.46,0-.58.75-.11.81Z"/><path class="cls-6" d="M21.34,95.64c6.77,1.22,13.49.6,20.3.53,2.75,0,5.49.08,8.23-.11,1.84-.13,5.28-.18,6.47-1.87a.43.43,0,0,0-.36-.63,14.1,14.1,0,0,0-3.16.65,29.57,29.57,0,0,1-3.87.44c-2.54.13-5.08,0-7.62.09-6.58.13-13.13.84-19.68-.22-.72-.11-1,1-.31,1.12Z"/><path class="cls-6" d="M21.62,99.75a62.62,62.62,0,0,0,19.11,2.33c3.18-.08,6.36-.32,9.52-.65,1.63-.17,3.25-.36,4.86-.58,1.42-.19,3.17-.18,4.4-1a.45.45,0,0,0-.1-.81c-1.37-.42-3,0-4.4.22-1.59.2-3.17.4-4.76.58-3.08.35-6.18.61-9.28.72a65,65,0,0,1-19-1.9.55.55,0,0,0-.3,1.06Z"/><path class="cls-6" d="M19.84,106.05c6.58.55,13.13,1.44,19.74,1.39a63.16,63.16,0,0,0,9.32-.71c3.14-.49,6.72-1.11,9.47-2.77a.38.38,0,0,0-.28-.69c-3.22.52-6.32,1.66-9.55,2.16a63.27,63.27,0,0,1-9.63.66c-6.36,0-12.72-.59-19.07-1-.62,0-.62.92,0,1Z"/><path class="cls-6" d="M23.43,115.63a249.39,249.39,0,0,0,25.94-.2,51.9,51.9,0,0,0,9.2-1.31c2.21-.58,5.29-1.45,6.24-3.79.09-.23-.23-.46-.43-.33a20,20,0,0,1-7.23,3.08,57.51,57.51,0,0,1-8.77,1c-8.32.41-16.63.49-25,.78a.41.41,0,0,0,0,.82Z"/><path class="cls-6" d="M28.52,124c7.7,1.53,15.53-.36,23.17-1.37a92.33,92.33,0,0,0,9.65-1.56,28.45,28.45,0,0,0,4.6-1.51c1.17-.52,2.83-1.26,3.37-2.51a.43.43,0,0,0-.48-.63c-1.28.3-2.44,1.31-3.64,1.86a25.33,25.33,0,0,1-4.58,1.51c-3,.73-6.17,1.09-9.26,1.52-7.42,1-15,3-22.53,1.6-.71-.13-1,1-.3,1.09Z"/><path class="cls-6" d="M31.43,131c8.68.12,17.27.23,25.89-1.06a67.07,67.07,0,0,0,9.81-2.06,25.43,25.43,0,0,0,4.5-1.83c1.12-.59,2.65-1.41,3.21-2.62a.44.44,0,0,0-.5-.64c-1.35.36-2.59,1.36-3.89,1.93a36.21,36.21,0,0,1-4.52,1.6,71.27,71.27,0,0,1-9.25,1.91c-8.35,1.27-16.82,1.42-25.25,1.54a.62.62,0,0,0,0,1.23Z"/><path class="cls-6" d="M41.08,138.32A100.36,100.36,0,0,0,60.51,137a81.29,81.29,0,0,0,9-1.69c2.72-.7,5.89-1.57,8-3.52a.45.45,0,0,0-.43-.74c-2.78.75-5.37,2.07-8.18,2.81a87.23,87.23,0,0,1-8.81,1.7c-6.29,1-12.65,1.93-19,1.78a.48.48,0,0,0,0,1Z"/><path class="cls-6" d="M51,144.91c5.5.14,11,.5,16.49.22a52.18,52.18,0,0,0,7.87-.94,30.36,30.36,0,0,0,3.88-1,7,7,0,0,0,3.21-1.73.4.4,0,0,0-.27-.67,10.3,10.3,0,0,0-3.38.8c-1.28.37-2.57.74-3.88,1a58.07,58.07,0,0,1-8.08,1.08c-5.27.36-10.56.24-15.84.37a.45.45,0,0,0,0,.89Z"/><path class="cls-6" d="M84.28,138.28c3.16-2.94,4.41-7.42,5.19-11.53.44-2.31.74-4.65,1-7a24.27,24.27,0,0,0,.31-6c0-.36-.53-.25-.64,0a20.24,20.24,0,0,0-.89,5.54c-.22,2.28-.45,4.57-.83,6.83-.67,4-1.59,8.72-4.46,11.84a.23.23,0,0,0,.32.32Z"/></g><path class="cls-7" d="M10.23,35.17A128.5,128.5,0,0,1,28.49,54.78C34.35,62.28,40,70,45.54,77.74c2.8,3.88,5.61,7.76,8.16,11.82s4.79,8,7.11,12.08c4.68,8.16,9.84,16,14.1,24.4,2.44,4.81,4.62,9.76,6.94,14.63,1.13,2.35,2.31,4.67,3.22,7.11s1.55,4.74,3,6.78c.52.74,2,.3,1.6-.68-1.71-4.11-3.06-8.33-5-12.37-2.07-4.4-4.07-8.85-6.18-13.23s-4.31-8.54-6.71-12.67-5-8.14-7.41-12.27-4.61-8.13-7-12.13-5.23-8.14-8-12.08C43.72,71.3,37.81,63.66,31.9,56.05A108.85,108.85,0,0,0,10.62,34.67c-.29-.22-.66.27-.39.5Z"/><path class="cls-8" d="M72.85,85.72A109.78,109.78,0,0,0,80,114.77,74.78,74.78,0,0,0,87,128a64.79,64.79,0,0,0,5.34,6.85c.29-9.74-2.16-25.24-13.7-47.46Q75.27,81,72,75.42C72.19,78.86,72.46,82.3,72.85,85.72Z"/><path class="cls-9" d="M119.7,134.53s-18.48-3-30.62-17.1S73.63,62.81,71.43,50.12s-10.76-40.83,5-47.73,36.69,29.8,41.38,49.11,12.69,44.13,12.14,58.2-4.41,22.07-5.79,24S119.7,134.53,119.7,134.53Z"/><g class="cls-10"><path class="cls-6" d="M85.44,13.83a14.7,14.7,0,0,0,1.62-4.2,15.08,15.08,0,0,0,.5-4.48.14.14,0,0,0-.27,0C87,8.07,86.58,11,85,13.58c-.17.27.27.52.44.25Z"/><path class="cls-6" d="M89.64,20.68A45.59,45.59,0,0,0,91.18,6a.17.17,0,0,0-.33,0,102.91,102.91,0,0,1-1.77,14.54.29.29,0,0,0,.56.16Z"/><path class="cls-6" d="M91.28,23.24c2.72-4.48,3.44-9.9,2.94-15a.17.17,0,0,0-.34,0c-.54,5-.78,10.16-3.14,14.73a.31.31,0,0,0,.54.32Z"/><path class="cls-6" d="M93.76,29.58c1.37-2.57,2.65-5,2.75-8,0-1.55-.15-3.09-.22-4.63a21.3,21.3,0,0,1,.49-4.85.26.26,0,0,0-.47-.2,7.62,7.62,0,0,0-.9,4c0,1.56.11,3.12.12,4.67a14.52,14.52,0,0,1-.62,4.54,40.88,40.88,0,0,1-1.68,4.12c-.15.35.34.66.53.31Z"/><path class="cls-6" d="M96.56,34.85a17.87,17.87,0,0,0,3-7.77,41.56,41.56,0,0,0,.5-8.41c0-.26-.43-.35-.47-.07-.4,2.69-.65,5.38-1.11,8A21.15,21.15,0,0,1,96,34.49c-.25.39.34.71.61.36Z"/><path class="cls-6" d="M97.71,40a38.18,38.18,0,0,0,4.92-9.08,37.54,37.54,0,0,0,1.54-5c.2-.85.38-1.7.51-2.56a5,5,0,0,0,.1-2.24.26.26,0,0,0-.47-.06,6.34,6.34,0,0,0-.44,2.08c-.13.8-.29,1.61-.48,2.4a45.15,45.15,0,0,1-1.5,5,56.65,56.65,0,0,1-4.34,9.35.09.09,0,0,0,.16.1Z"/><path class="cls-6" d="M102.05,46.25a15.23,15.23,0,0,0,3.52-7.16c.68-2.71,1.19-5.47,1.77-8.19a.34.34,0,0,0-.62-.27c-1.3,2.29-1.64,5.06-2.2,7.59s-1.26,5.41-3,7.48c-.33.38.19.92.55.55Z"/><path class="cls-6" d="M104.16,54.16c2.18-2.64,3.27-6.36,4.26-9.58.62-2,1.26-4,1.73-6a27.65,27.65,0,0,0,.54-3,4.67,4.67,0,0,0-.11-2.65.3.3,0,0,0-.54.07,8.89,8.89,0,0,0-.24,2.42,27.67,27.67,0,0,1-.6,3.27c-.45,1.94-1,3.83-1.61,5.73a40.4,40.4,0,0,1-3.83,9.5c-.14.24.21.53.4.31Z"/><path class="cls-6" d="M106.17,61.13c2.89-2.56,4.33-6.45,5.28-10.1a55,55,0,0,0,1.23-6.24,22,22,0,0,0,.38-5.43c0-.26-.42-.36-.5-.07-.42,1.67-.51,3.41-.78,5.11a59.08,59.08,0,0,1-1.25,5.91c-1,3.58-2.25,7.57-4.88,10.31a.36.36,0,0,0,.52.51Z"/><path class="cls-6" d="M108.55,68.87c2.82-1.32,3.8-4.77,4.72-7.47.68-2,1.37-3.92,2-5.91.36-1.19.71-2.37,1.06-3.56a16.71,16.71,0,0,0,.9-3.47c0-.27-.35-.33-.48-.13a12.63,12.63,0,0,0-1.13,2.8l-1.13,3.33c-.69,2-1.45,4-2.1,6-.85,2.66-1.49,6.39-4.13,7.9-.35.2,0,.71.32.54Z"/><path class="cls-6" d="M111.12,77.67c3-2.48,4.67-6.41,5.88-10a35,35,0,0,0,1.46-6.31,13.6,13.6,0,0,0,.11-5.2.26.26,0,0,0-.5,0c-.36,1.65-.37,3.38-.69,5.05A56.23,56.23,0,0,1,115.91,67c-1.11,3.59-2.69,7.37-5.28,10.16a.35.35,0,0,0,.49.49Z"/><path class="cls-6" d="M112.22,84.29a29,29,0,0,0,6.19-8.49c.76-1.54,1.41-3.12,2-4.72a31.7,31.7,0,0,0,1.7-5.18.22.22,0,0,0-.4-.17,31.28,31.28,0,0,0-2,4.54c-.68,1.63-1.36,3.27-2.12,4.86a30.23,30.23,0,0,1-5.83,8.68c-.31.31.16.77.48.48Z"/><path class="cls-6" d="M113.62,92.86a24.2,24.2,0,0,0,6.31-9.6c.7-1.79,1.32-3.6,2-5.41s1.48-3.72,2.19-5.6c.09-.23-.27-.44-.43-.25-2.3,2.86-3.36,6.69-4.61,10.08-1.38,3.75-3.07,7.42-6,10.25-.35.35.17.85.53.53Z"/><path class="cls-6" d="M116.38,99.76a29.77,29.77,0,0,0,5.44-7.92c1.33-2.69,2.78-5.83,2.87-8.9,0-.35-.47-.37-.58-.07-1.1,2.85-2,5.75-3.33,8.52a32.58,32.58,0,0,1-4.93,7.84c-.32.36.19.88.53.53Z"/><path class="cls-6" d="M115.67,106.22c3.68-1.33,6.46-4.58,8.52-7.79A30.51,30.51,0,0,0,127,92.84c.58-1.55,1.23-3.65.75-5.3a.35.35,0,0,0-.66,0c-.56,1.53-.83,3.16-1.38,4.7a28,28,0,0,1-2.65,5.38c-1.9,3-4.41,6.26-7.71,7.88a.4.4,0,0,0,.31.72Z"/><path class="cls-6" d="M117.68,114.15a24.66,24.66,0,0,0,6.89-6.73,43.38,43.38,0,0,0,2.66-4.26c.39-.71.73-1.46,1.07-2.2a8.39,8.39,0,0,0,.81-2.21c0-.28-.29-.57-.53-.31a8.77,8.77,0,0,0-1.11,1.77c-.37.68-.76,1.34-1.15,2-.8,1.43-1.59,2.85-2.5,4.21a25.8,25.8,0,0,1-6.51,7.1c-.37.26,0,.87.37.62Z"/><path class="cls-6" d="M118.56,125.66a39.55,39.55,0,0,0,6.9-7.71c1.92-2.73,3.87-5.94,4.48-9.27a.32.32,0,0,0-.58-.24c-.82,1.4-1.47,2.9-2.26,4.32s-1.71,3-2.65,4.43a67,67,0,0,1-6.36,8,.33.33,0,0,0,.47.47Z"/><path class="cls-6" d="M119.91,130.47c2.54-1.1,4.39-3.62,5.84-5.88a35.43,35.43,0,0,0,2.24-4,16.26,16.26,0,0,0,1.39-3.64.31.31,0,0,0-.57-.24c-.65,1-1.11,2.12-1.66,3.18-.69,1.33-1.38,2.65-2.16,3.92-1.37,2.23-3,4.79-5.49,6-.48.22-.06.9.41.7Z"/><path class="cls-6" d="M73.34,5.44a19.06,19.06,0,0,0,4.25,3.17,23.36,23.36,0,0,0,4.8,2.05.28.28,0,0,0,.21-.5c-1.42-.91-3-1.46-4.53-2.25a18.23,18.23,0,0,1-4.14-3c-.39-.37-1,.21-.59.58Z"/><path class="cls-6" d="M82.17,7.43a16.4,16.4,0,0,0,.38-3.63A27.87,27.87,0,0,0,82.37.14c0-.23-.35-.14-.37,0a24.59,24.59,0,0,0,0,3.54,14.7,14.7,0,0,1-.31,3.56.27.27,0,0,0,.52.14Z"/><path class="cls-6" d="M73.05,10A53.54,53.54,0,0,0,78.4,11.8a15.49,15.49,0,0,0,5.44.7.18.18,0,0,0,0-.35,44.13,44.13,0,0,1-5.48-.92c-1.77-.44-3.51-1-5.24-1.52-.17-.05-.23.2-.07.26Z"/><path class="cls-6" d="M68.87,10.32c1.52,2.49,4.36,3.66,7,4.44a31.8,31.8,0,0,0,8.75,1.45.3.3,0,0,0,.08-.59,18.77,18.77,0,0,0-3.75-1c-1.43-.28-2.86-.55-4.27-.92-2.53-.65-5.55-1.62-7.16-3.83-.3-.41-1,0-.7.41Z"/><path class="cls-6" d="M67.85,14.24a25,25,0,0,0,10.36,5.52,35,35,0,0,0,5.75,1,20.18,20.18,0,0,0,6,0,.22.22,0,0,0,0-.42c-1.74-.36-3.56-.38-5.33-.58a43.7,43.7,0,0,1-5.79-1.07,27.06,27.06,0,0,1-10.47-5c-.37-.29-.89.2-.53.53Z"/><path class="cls-6" d="M68.79,19.77a39.17,39.17,0,0,0,10.6,5.31c1.9.63,3.83,1.18,5.78,1.62,1.78.4,4,1.05,5.84.84.28,0,.48-.44.16-.6a25.87,25.87,0,0,0-5.33-1.35C83.9,25.14,82,24.68,80,24.1A39.79,39.79,0,0,1,69.1,19.23c-.33-.23-.64.3-.31.54Z"/><path class="cls-6" d="M67.82,23.93A32.57,32.57,0,0,0,78.9,29.8a53.67,53.67,0,0,0,6.27,1.56,25,25,0,0,0,6.39.62.35.35,0,0,0,.1-.68,52.23,52.23,0,0,0-6-1.2c-2.06-.38-4.1-.85-6.11-1.43a34.72,34.72,0,0,1-11.27-5.4c-.38-.29-.88.36-.51.66Z"/><path class="cls-6" d="M70.17,28.59a83.29,83.29,0,0,0,12.49,5.33,40.85,40.85,0,0,0,6.62,1.49c2,.28,4.54.65,6.52-.13.28-.11.37-.6,0-.67-2.16-.42-4.45-.13-6.64-.44a40.13,40.13,0,0,1-6.4-1.48c-4.2-1.3-8.29-3-12.36-4.66-.31-.13-.54.4-.23.56Z"/><path class="cls-6" d="M70.3,32.77c4.11,3.35,9,5.25,14,6.81,2.57.8,5.15,1.54,7.7,2.39,1.22.41,2.44.85,3.64,1.34a12.1,12.1,0,0,0,3.63,1.32c.29,0,.36-.34.21-.52a6.8,6.8,0,0,0-3-1.82c-1.12-.48-2.25-.9-3.4-1.3-2.54-.88-5.13-1.59-7.7-2.36-5.12-1.53-10.29-3.26-14.58-6.54-.39-.29-.9.37-.52.68Z"/><path class="cls-6" d="M68.42,38a36.47,36.47,0,0,0,13.26,6.3,69.76,69.76,0,0,0,7.48,1.36c2.55.39,5,1.06,7.55,1.54A.36.36,0,0,0,97,46.5a20.54,20.54,0,0,0-6.64-1.91c-2.5-.44-5-.79-7.5-1.36-4.85-1.11-10-2.85-14-5.82-.31-.23-.72.3-.42.54Z"/><path class="cls-6" d="M70.41,44.1c4.43,3,9.42,4.82,14.42,6.59,5.39,1.89,11.41,4.44,17.22,3.85.29,0,.41-.49.07-.56-2.88-.55-5.78-1-8.62-1.82s-5.43-1.71-8.14-2.6c-5-1.64-10.15-3.23-14.57-6.11-.41-.27-.78.38-.38.65Z"/><path class="cls-6" d="M72.26,49.55c3.72,3.84,8.53,6.2,13.53,7.89,2.62.88,5.3,1.56,8,2.18,2.47.56,5.15,1.42,7.71,1.34.33,0,.52-.51.18-.67-2.16-1-4.7-1.26-7-1.77-2.64-.58-5.25-1.24-7.83-2-5.08-1.55-10.15-3.77-14-7.47a.38.38,0,0,0-.54.53Z"/><path class="cls-6" d="M73.93,56.16c4.07,3.33,8.94,5.28,13.88,6.9a50.68,50.68,0,0,0,7.76,1.87c2.82.45,5.55,1.12,8.34,1.73a.28.28,0,0,0,.21-.5c-2.13-1.4-4.92-1.81-7.37-2.26a69.26,69.26,0,0,1-7.83-1.76c-5.08-1.56-10.26-3.34-14.55-6.54-.33-.24-.75.31-.44.56Z"/><path class="cls-6" d="M78.4,63.15c4.52,3.34,9.89,5.31,15.28,6.77a45.54,45.54,0,0,0,6.49,1,30.13,30.13,0,0,1,6.76,1.61c.31.12.52-.32.31-.53-1.46-1.47-3.86-1.81-5.82-2.08-2.26-.32-4.56-.41-6.79-.9A43.19,43.19,0,0,1,78.8,62.46c-.42-.3-.81.39-.4.69Z"/><path class="cls-6" d="M75.69,66.1a46.79,46.79,0,0,0,13.93,6.78c2.45.74,4.93,1.33,7.43,1.84a42.7,42.7,0,0,0,7.76,1.33c.33,0,.34-.43.07-.54-2.35-1-5.08-1.25-7.56-1.8S92.47,72.64,90.08,72A47.71,47.71,0,0,1,76,65.58c-.32-.23-.62.3-.3.52Z"/><path class="cls-6" d="M77,71.94c4.42,3.36,9.77,4.92,15.11,6.12,2.85.63,5.69,1.33,8.54,1.93,2.61.56,5.66,1.26,8.32.71.3-.06.2-.46-.07-.49-1.49-.15-3-.15-4.46-.39s-2.82-.54-4.2-.89c-2.68-.68-5.33-1.41-8-2-5.2-1.12-10.47-2.47-14.85-5.62-.38-.27-.72.35-.36.62Z"/><path class="cls-6" d="M78.14,76.51c3.94,3.74,9.14,5.79,14.13,7.73,5.66,2.2,11.85,5.15,18,5,.26,0,.35-.43.07-.48a70.86,70.86,0,0,1-9-1.93c-2.85-.88-5.63-2-8.43-3-5.07-1.92-10.42-3.91-14.46-7.67-.25-.24-.62.14-.37.37Z"/><path class="cls-6" d="M76.14,78A52,52,0,0,0,91.06,89.26a67.21,67.21,0,0,0,8.61,3.66c2.86,1,6,2,9,2a.34.34,0,0,0,.09-.66c-2.71-1-5.59-1.59-8.35-2.5A64.68,64.68,0,0,1,91.55,88,52.77,52.77,0,0,1,76.64,77.45c-.31-.33-.8.17-.5.5Z"/><path class="cls-6" d="M79.7,86c4,4.51,9.39,7.61,14.77,10.23,3,1.44,5.93,2.8,8.91,4.17s6.28,3.11,9.61,3.57c.33,0,.63-.42.26-.6-3-1.46-6.25-2.52-9.3-3.94s-5.83-2.7-8.73-4.09c-5.39-2.57-10.86-5.46-15-9.89-.34-.37-.88.18-.55.55Z"/><path class="cls-6" d="M79.45,91.47c4.28,4.32,8.88,8.26,14.42,10.88,2.79,1.33,5.74,2.3,8.64,3.35s5.85,2.42,8.83,3.48c.29.1.55-.33.31-.53-2.25-1.85-5.05-2.83-7.76-3.82-3-1.11-6.06-2.09-9-3.39A51.5,51.5,0,0,1,80,91a.36.36,0,0,0-.51.5Z"/><path class="cls-6" d="M79.48,95.85a107.25,107.25,0,0,0,16.67,12.57,88.85,88.85,0,0,0,9.28,4.72q2.25,1,4.54,1.86c1.58.61,3.31,1.46,5,1.39a.35.35,0,0,0,.18-.64,17.37,17.37,0,0,0-4.49-1.8q-2.46-.89-4.85-2a99.26,99.26,0,0,1-9-4.7A112.1,112.1,0,0,1,79.92,95.41c-.3-.26-.74.18-.44.44Z"/><path class="cls-6" d="M83.09,102.18a47.73,47.73,0,0,0,15,11.4c2.83,1.4,5.72,2.67,8.62,3.9l4.39,1.87c1.26.55,2.77,1.43,4.16,1.48a.38.38,0,0,0,.26-.63c-.94-1-2.64-1.58-3.9-2.13s-2.8-1.21-4.2-1.8c-2.84-1.21-5.69-2.41-8.48-3.76-5.68-2.75-11.19-6-15.48-10.73-.25-.27-.63.13-.4.4Z"/><path class="cls-6" d="M84.74,110.6C90,114.32,95,118.34,100.6,121.47c2.92,1.64,6,3,9,4.45,1.43.72,2.86,1.45,4.33,2.09s2.91,1.42,4.41,1.29c.23,0,.41-.31.21-.49-1.12-1-2.77-1.46-4.12-2.1-1.52-.71-3-1.46-4.53-2.21-2.92-1.46-5.92-2.74-8.79-4.29-5.57-3-10.71-6.76-16-10.3-.42-.29-.81.39-.4.69Z"/></g><path class="cls-7" d="M78.13,3.22C85.38,19.5,94,35.1,99.79,52c3,8.72,5.19,17.71,7.33,26.66,2.18,9.12,4.1,18.29,5.9,27.49,1,5,2,9.92,2.76,14.9s1,10.24,2,15.25a.56.56,0,0,0,1.07,0c.86-4.43.35-9.09-.22-13.53s-1.36-8.88-2.21-13.29c-1.78-9.29-3.66-18.56-5.78-27.77s-4.39-18.37-7.25-27.35A194.39,194.39,0,0,0,93.28,29.51c-4.37-9.12-9.2-18.06-14.22-26.84-.35-.61-1.2-.07-.93.55Z"/><path class="cls-11" d="M54.61,173.91c-.24,8.28,3.84,15.31,15.58,22.14a58.45,58.45,0,0,0,5.33,2.69c1.49.68,3.09,1.34,4.79,2a166.14,166.14,0,0,0,37.39,9.31c1.67.21,3.32.39,4.94.52,2.57.23,5.09.35,7.52.38A53.32,53.32,0,0,0,150,207.61a54.23,54.23,0,0,0,5-2.2c7.49-3.72,14.19-9,22.1-14.74a90.62,90.62,0,0,0,7.46-6c1.32-1.21,2.46-2.35,3.47-3.47h0c5.39-6.13,6-11.22,4.67-17.86-1.18-6-5.72-10.47-9-13-.08-.11-.15-.22-.25-.34-1.33-1.7-5-3.78-9.86-6-1.5-.67-3.12-1.36-4.84-2a278,278,0,0,0-31.23-10.07c-2.05-.54-4.05-1-5.95-1.47a106,106,0,0,0-12.08-2.23c-5.92-.63-13.46,1.31-20.53,4-1.45.54-2.87,1.12-4.28,1.72h0A151.32,151.32,0,0,0,77,142.81l-1,.56c-.75.44-1.9,1.11-3.25,1.93-4.42,2.7-10.94,7-12.42,9.7C56.81,158.87,54.83,166,54.61,173.91Z"/><path class="cls-12" d="M54.61,173.91c-.24,8.28,3.84,15.31,15.58,22.14a60.87,60.87,0,0,0,6,3c1.59.7,3.3,1.4,5.1,2.08,13.65,5.14,33.08,9.65,48.82,9.81A54,54,0,0,0,148.93,208c.73-.26,1.45-.53,2.16-.82,9.19-3.7,16.8-9.78,26.08-16.53,2.46-1.79,4.57-3.45,6.39-5a49.27,49.27,0,0,0,3.77-3.59c6.1-6.5,6.81-11.75,5.44-18.69-1.93-9.72-12.72-15.52-12.72-15.52s-25.18-2.48-37.18-5a45.19,45.19,0,0,0-9.72-.27c-3,.13-6.4.38-10.09.73-1.38.13-2.81.27-4.27.43-3.16.34-6.47.73-9.83,1.16-6.49.84-13.19,1.83-19.45,2.87-2.59.42-5.09.86-7.48,1.29-11.25,2-19.87,4.1-21.18,5.37C57,158.19,54.84,165.64,54.61,173.91Z"/><path class="cls-11" d="M77,142.81s26.87-16.28,42.54-14.62,58.52,14.89,64,21.79,1.28,11.31-4.16,15.17S155,184.74,138.4,185.84s-45.9-7.59-60.93-14.21S59.4,159.63,60,155.77,77,142.81,77,142.81Z"/><path class="cls-13" d="M123.5,210.64c-1.6-5.41-6.32-22.51-4.45-29.77.59-2.28,4.88-6,10.87-10.16,1.47-1,3.05-2.1,4.7-3.17,6.06-4,13.12-8.19,19.72-12,2.07-1.18,4.09-2.33,6-3.41,3.7-2.07,7.08-3.91,9.8-5.38,1.77-1,3.28-1.76,4.43-2.37-1.5-.67-3.12-1.36-4.84-2-1.53.88-3.69,2.14-6.21,3.63-2.24,1.32-4.74,2.82-7.31,4.4-1.67,1-3.38,2.1-5,3.16l-.61.39c-4.7,2.9-12.5,6.73-19.85,11.08-1.67,1-3.31,2-4.89,3-6.76,4.43-12.31,9.27-13.34,14.18-1.84,8.66,3.45,22.1,6,27.91Z"/><path class="cls-13" d="M76.24,199.06c1.59.7,3.3,1.4,5.1,2.08-.55-6.4-1.8-22.91,0-29.78.8-3.11,8.71-9.19,18.54-15.72,1.43-.95,2.91-1.92,4.41-2.88,4.76-3.07,9.78-6.15,14.53-9l2.46-1.47c1.39-.83,2.76-1.63,4.07-2.4,5.57-3.28,10.33-6,13.2-7.6-2.05-.54-4-1-6-1.47-3.11,1.81-7.74,4.52-12.53,7.48-1.21.75-2.43,1.51-3.64,2.28l-.87.56c-1.72,1.11-4,2.38-6.57,3.78-3.17,1.73-6.79,3.65-10.48,5.72-1.51.85-3,1.72-4.52,2.62h0c-9,5.36-17.29,11.46-18.55,17.4C73.78,178.23,75.15,191.62,76.24,199.06Z"/><path class="cls-14" d="M117.7,210.05c1.67.21,3.32.39,4.94.52-1.5-5-6.47-22.69-4.56-30.11.59-2.28,4.88-6,10.88-10.16,1.47-1,3-2.1,4.69-3.17,6.07-4,13.13-8.19,19.72-12,2.08-1.18,4.1-2.33,6-3.41,6.1-3.41,11.32-6.21,14.23-7.75-1.5-.67-3.12-1.36-4.84-2-2.88,1.66-8.07,4.67-13.53,8-1.67,1-3.37,2.1-5,3.16l-.61.39c-4.7,2.9-12.5,6.73-19.85,11.08-1.67,1-3.32,2-4.89,3-6.76,4.43-12.32,9.27-13.35,14.18C109.67,190.65,115.17,204.41,117.7,210.05Z"/><path class="cls-14" d="M75.52,198.74c1.49.68,3.09,1.34,4.79,2-.52-5.87-1.8-22.68,0-29.79.8-3.11,8.7-9.19,18.53-15.72,1.44-.95,2.91-1.92,4.42-2.88,5.59-3.6,11.54-7.22,17-10.46,1.39-.83,2.76-1.63,4.07-2.4,5.57-3.28,10.32-6,13.2-7.6-2.05-.54-4.05-1-5.95-1.47-3.12,1.81-7.74,4.52-12.53,7.48-1.22.75-2.43,1.51-3.64,2.28l-.87.56c-3.84,2.46-10.36,5.74-17,9.5-1.51.85-3,1.72-4.53,2.62h0c-9,5.36-17.28,11.46-18.55,17.4C72.73,178.28,74.41,191.65,75.52,198.74Z"/><path class="cls-13" d="M94.24,134.07c3.32,1,9.15,2.7,17.1,5.15.85.26,1.84.59,2.94,1,1.43.49,3.06,1.06,4.85,1.71,1.24.45,2.55.93,3.93,1.45,7.47,2.81,16.73,6.5,25.4,10.2,1.26.54,2.53,1.08,3.75,1.62,10.8,4.69,20.1,9.2,23.09,11.72a10,10,0,0,1,.75.7c5,5,6.94,14.39,7.51,18.06a49.27,49.27,0,0,0,3.77-3.59l-.39-.83c-.37-3-1.06-7.25-2.21-9.72a21.36,21.36,0,0,0-5-6.6c-3.68-3.43-9.72-7.58-19.9-12.44l-1.54-.71c-1.26-.58-2.65-1.16-4.14-1.76-5.91-2.38-13.35-4.94-20.95-7.38-3.32-1.07-6.68-2.12-10-3.12-1.79-.54-3.55-1.08-5.28-1.59-8.06-2.4-15.16-4.39-19.41-5.56C97.05,132.89,95.63,133.48,94.24,134.07Z"/><path class="cls-13" d="M72.34,145.56c2.2.78,5.6,2,9.69,3.53,3,1.11,6.3,2.38,9.79,3.77h0c1.92.76,3.89,1.55,5.89,2.37,9.54,3.92,19.43,8.38,26,12.43l.4.25q1.95,1.22,3.68,2.39c8.94,6,13.59,10.94,16,14.7a17.42,17.42,0,0,1,2.2,4.7,88.76,88.76,0,0,1,2.9,18.32c.73-.26,1.45-.53,2.16-.82a28.68,28.68,0,0,1,2.82-1.79,47.61,47.61,0,0,0-5.68-21.68,41.61,41.61,0,0,0-6-8.37,58.54,58.54,0,0,0-9.71-8.23c-1.26-.87-2.56-1.71-3.88-2.51-8.85-5.42-18.71-9.39-26.47-12.27-2.1-.78-4.06-1.48-5.78-2.11l-1.82-.67c-1.7-.62-3.39-1.22-5-1.77-5.55-1.88-10.66-3.34-13.88-4.22C74.79,144.07,73.65,144.75,72.34,145.56Z"/><path class="cls-14" d="M94.72,133.88c3.18.92,9.27,2.72,17.78,5.34.85.26,1.84.59,2.94,1,1.43.49,3.06,1.06,4.85,1.71,8,2.91,19.07,7.27,29.33,11.65l3.75,1.62c10.8,4.69,20.09,9.2,23.09,11.72,5.9,5,7.71,14.54,8.17,17.82,1.32-1.21,2.46-2.35,3.47-3.47h0c-.38-3-1.06-7.25-2.21-9.72-1.92-4.14-7-10.48-24.95-19l-1.54-.71c-1.26-.58-2.65-1.16-4.14-1.76-8.51-3.43-20.16-7.22-30.9-10.5-1.79-.54-3.55-1.08-5.28-1.59-8.5-2.53-15.94-4.61-20.08-5.74C97.55,132.7,96.13,133.28,94.72,133.88Z"/><path class="cls-14" d="M72.76,145.3c3.54,1.25,11.37,4,20.22,7.56h0c1.93.76,3.9,1.55,5.89,2.37,9.55,3.92,19.43,8.38,26,12.43l.4.25q1.95,1.22,3.68,2.39c13.32,9,17.13,15.51,18.23,19.4A81.31,81.31,0,0,1,150,207.61a54.23,54.23,0,0,0,5-2.2c0-4.74-1.15-18.68-11.71-30a58.54,58.54,0,0,0-9.71-8.23c-1.26-.87-2.56-1.71-3.88-2.51-8.85-5.42-18.71-9.39-26.47-12.27-2.1-.78-4.06-1.48-5.78-2.11l-1.82-.67c-7.85-2.9-15.7-5.13-19.69-6.2C75.26,143.81,74.11,144.48,72.76,145.3Z"/><path class="cls-15" d="M77.47,171.64c15,6.62,44.3,15.31,60.92,14.2a33.69,33.69,0,0,0,5.44-.84,40.45,40.45,0,0,0,4.4-1.27c11.1-3.79,21.85-11.67,27.82-16.15,1.36-1,2.47-1.85,3.28-2.43l.35-.25c5.26-3.8,9.13-8.17,3.81-14.92s-48.3-20.14-64-21.79c-6.06-.64-13.81,1.4-21,4.15-1.46.55-2.88,1.14-4.27,1.73A152.82,152.82,0,0,0,77,142.81l-1.37.77c-.84.49-2,1.17-3.29,2-4.87,3-11.88,7.71-12.29,10.21C59.4,159.64,62.43,165,77.47,171.64Z"/><path class="cls-16" d="M186.74,168.46A16.88,16.88,0,0,1,193.3,170a25,25,0,0,0-.53-6.66c-1.18-6-5.71-10.46-9-13-.09-.11-.15-.22-.25-.34-5.43-6.9-48.3-20.14-64-21.79-6.06-.64-13.81,1.4-21,4.15-1.46.55-2.88,1.14-4.27,1.73-1.57.67-3.09,1.35-4.53,2,.58,4.38,2.88,11.38,11,17.74,13,10.21,16.27,19,38.62,24S180.12,168.46,186.74,168.46Z"/><path class="cls-11" d="M211,138.05c.21,8.28-3.31,15.31-13.44,22.14a47.64,47.64,0,0,1-4.6,2.69c-1.28.68-2.66,1.34-4.13,2a127.53,127.53,0,0,1-32.25,9.31c-1.44.21-2.86.39-4.26.52-2.22.23-4.39.35-6.49.38a40.4,40.4,0,0,1-17.13-3.34,43.22,43.22,0,0,1-4.35-2.2c-6.46-3.72-12.24-9-19.07-14.74a82.25,82.25,0,0,1-6.43-6c-1.14-1.21-2.12-2.35-3-3.47h0c-4.65-6.13-5.16-11.22-4-17.86,1-6,4.93-10.47,7.79-13l.21-.34c1.15-1.7,4.27-3.78,8.51-6,1.29-.67,2.69-1.36,4.17-2A217.42,217.42,0,0,1,139.46,96c1.77-.54,3.49-1,5.13-1.47A80.42,80.42,0,0,1,155,92.33c5.11-.63,11.61,1.31,17.71,4,1.25.54,2.48,1.12,3.69,1.72h0A125,125,0,0,1,191.7,107l.85.56c.65.44,1.64,1.11,2.8,1.93,3.82,2.7,9.44,7,10.72,9.7C209.11,123,210.82,130.15,211,138.05Z"/><path class="cls-12" d="M211,138.05c.21,8.28-3.31,15.31-13.44,22.14a49.07,49.07,0,0,1-5.22,3c-1.37.7-2.84,1.4-4.4,2.08-11.77,5.14-28.53,9.65-42.11,9.81a40.8,40.8,0,0,1-16.19-2.93c-.63-.26-1.25-.53-1.86-.82-7.93-3.7-14.49-9.78-22.5-16.53-2.12-1.79-3.94-3.45-5.51-5a46.09,46.09,0,0,1-3.25-3.59c-5.26-6.5-5.87-11.75-4.69-18.69,1.66-9.72,11-15.52,11-15.52s21.72-2.48,32.07-5a33.64,33.64,0,0,1,8.38-.27c2.56.13,5.52.38,8.71.73,1.19.13,2.42.27,3.68.43,2.73.34,5.58.73,8.48,1.16,5.6.84,11.38,1.83,16.78,2.87,2.23.42,4.39.86,6.45,1.29,9.7,2,17.14,4.1,18.27,5.37C208.94,122.33,210.81,129.78,211,138.05Z"/><path class="cls-11" d="M191.7,106.94S168.53,90.67,155,92.32s-50.48,14.9-55.17,21.8-1.1,11.31,3.59,15.17,21,19.59,35.31,20.69,39.58-7.59,52.55-14.21,15.58-12,15-15.86S191.7,106.94,191.7,106.94Z"/><path class="cls-13" d="M155.88,174.3c2.22-5.81,6.78-19.25,5.2-27.91-.89-4.91-5.68-9.75-11.51-14.18-1.36-1.05-2.78-2.06-4.22-3-6.34-4.35-13.07-8.18-17.12-11.08l-.53-.39c-1.43-1.06-2.9-2.13-4.34-3.16-2.22-1.58-4.38-3.08-6.31-4.4-2.17-1.49-4-2.75-5.36-3.63-1.48.68-2.88,1.37-4.17,2,1,.61,2.29,1.41,3.82,2.37,2.35,1.47,5.26,3.31,8.45,5.38,1.67,1.08,3.41,2.23,5.2,3.41,5.69,3.78,11.78,8,17,12,1.42,1.07,2.78,2.13,4.05,3.17,5.17,4.19,8.87,7.88,9.38,10.16,1.61,7.26-2.46,24.36-3.84,29.77Z"/><path class="cls-13" d="M192.35,163.2c-1.37.7-2.84,1.4-4.4,2.08.48-6.4,1.56-22.91,0-29.78-.69-3.11-7.51-9.19-16-15.72-1.24-1-2.51-1.92-3.81-2.88-4.1-3.07-8.43-6.15-12.53-9l-2.12-1.47L150,104c-4.81-3.28-8.91-6-11.39-7.6,1.77-.54,3.49-1,5.13-1.47,2.69,1.81,6.68,4.52,10.81,7.48,1.05.75,2.1,1.51,3.14,2.28l.75.56c1.49,1.11,3.45,2.38,5.67,3.78,2.73,1.73,5.86,3.65,9,5.72,1.3.85,2.61,1.72,3.9,2.62h0c7.77,5.36,14.91,11.46,16,17.4C194.47,142.37,193.29,155.76,192.35,163.2Z"/><path class="cls-14" d="M156.59,174.19c-1.44.21-2.86.39-4.26.52,1.29-5,5.58-22.69,3.93-30.11-.51-2.28-4.21-6-9.38-10.16-1.27-1-2.63-2.1-4-3.17-5.23-4-11.32-8.19-17-12-1.79-1.18-3.53-2.33-5.2-3.41-5.26-3.41-9.76-6.21-12.27-7.75,1.29-.67,2.69-1.36,4.17-2,2.49,1.66,7,4.67,11.67,8,1.44,1,2.91,2.1,4.34,3.16l.53.39c4.05,2.9,10.78,6.73,17.12,11.08,1.44,1,2.86,2,4.22,3,5.83,4.43,10.62,9.27,11.51,14.18C163.52,154.79,158.77,168.55,156.59,174.19Z"/><path class="cls-14" d="M193,162.88c-1.28.68-2.66,1.34-4.13,2,.45-5.87,1.55-22.68,0-29.79-.69-3.11-7.51-9.19-16-15.72-1.24-1-2.51-1.92-3.81-2.88-4.82-3.6-9.95-7.22-14.65-10.46l-3.51-2.4c-4.81-3.28-8.91-6-11.39-7.6,1.77-.54,3.49-1,5.13-1.47,2.69,1.81,6.68,4.52,10.81,7.48,1,.75,2.1,1.51,3.14,2.28l.75.56c3.31,2.46,8.94,5.74,14.71,9.5,1.3.85,2.61,1.72,3.9,2.62h0c7.77,5.36,14.91,11.46,16,17.4C195.38,142.42,193.93,155.79,193,162.88Z"/><path class="cls-13" d="M176.83,98.21c-2.87,1-7.9,2.7-14.75,5.15-.74.26-1.59.59-2.54,1-1.23.49-2.64,1.06-4.18,1.71-1.07.45-2.2.93-3.39,1.45-6.45,2.81-14.43,6.5-21.91,10.2l-3.24,1.62c-9.31,4.69-17.33,9.2-19.91,11.72a8.55,8.55,0,0,0-.65.7c-4.34,5-6,14.39-6.48,18.06a46.09,46.09,0,0,1-3.25-3.59l.34-.83c.32-3,.91-7.25,1.9-9.72a21.45,21.45,0,0,1,4.36-6.6c3.17-3.43,8.38-7.58,17.16-12.44l1.33-.71c1.09-.58,2.29-1.16,3.57-1.76,5.1-2.38,11.52-4.94,18.07-7.38,2.87-1.07,5.77-2.12,8.59-3.12,1.54-.54,3.06-1.08,4.55-1.59,6.95-2.4,13.08-4.39,16.74-5.56C174.4,97,175.63,97.62,176.83,98.21Z"/><path class="cls-13" d="M195.72,109.7c-1.9.78-4.83,2-8.36,3.53-2.56,1.11-5.44,2.38-8.45,3.77h0c-1.66.76-3.36,1.55-5.08,2.37-8.23,3.92-16.76,8.38-22.42,12.43l-.35.25c-1.12.81-2.18,1.61-3.17,2.39-7.71,6-11.72,10.94-13.83,14.7a19.09,19.09,0,0,0-1.9,4.7,102.35,102.35,0,0,0-2.5,18.32c-.63-.26-1.25-.53-1.86-.82a24.71,24.71,0,0,0-2.43-1.79,53.65,53.65,0,0,1,4.9-21.68,41.5,41.5,0,0,1,5.2-8.37,53.44,53.44,0,0,1,8.37-8.23c1.09-.87,2.21-1.71,3.35-2.51,7.63-5.42,16.14-9.39,22.83-12.27,1.81-.78,3.5-1.48,5-2.11l1.57-.67c1.46-.62,2.92-1.22,4.34-1.77,4.78-1.88,9.19-3.34,12-4.22C193.6,108.21,194.59,108.89,195.72,109.7Z"/><path class="cls-14" d="M176.41,98c-2.74.92-8,2.72-15.33,5.34-.74.26-1.59.59-2.54,1-1.23.49-2.64,1.06-4.18,1.71-6.9,2.91-16.45,7.27-25.3,11.65l-3.24,1.62c-9.31,4.69-17.33,9.2-19.91,11.72-5.09,5-6.65,14.54-7,17.82-1.14-1.21-2.12-2.35-3-3.47h0c.32-3,.91-7.25,1.9-9.72,1.66-4.14,6.07-10.48,21.52-19l1.33-.71c1.09-.58,2.29-1.16,3.57-1.76,7.34-3.43,17.39-7.22,26.66-10.5,1.54-.54,3.06-1.08,4.55-1.59,7.33-2.53,13.75-4.61,17.32-5.74C174,96.84,175.2,97.42,176.41,98Z"/><path class="cls-14" d="M195.35,109.44c-3,1.25-9.8,4-17.44,7.56h0c-1.66.76-3.36,1.55-5.08,2.37-8.23,3.92-16.76,8.38-22.42,12.43l-.35.25c-1.12.81-2.18,1.61-3.17,2.39-11.49,9-14.78,15.51-15.73,19.4a94,94,0,0,0-2.44,17.91,43.22,43.22,0,0,1-4.35-2.2c0-4.74,1-18.68,10.1-30.05a53.44,53.44,0,0,1,8.37-8.23c1.09-.87,2.21-1.71,3.35-2.51,7.63-5.42,16.14-9.39,22.83-12.27,1.81-.78,3.5-1.48,5-2.11l1.57-.67c6.77-2.9,13.54-5.13,17-6.2C193.2,108,194.19,108.62,195.35,109.44Z"/><path class="cls-15" d="M191.29,135.78c-13,6.62-38.21,15.31-52.55,14.2a25.44,25.44,0,0,1-4.69-.84,31.23,31.23,0,0,1-3.79-1.27c-9.58-3.79-18.85-11.67-24-16.15-1.17-1-2.13-1.85-2.83-2.43l-.3-.25c-4.54-3.8-7.88-8.17-3.29-14.92C104.53,107.22,141.5,94,155,92.33c5.23-.64,11.91,1.4,18.13,4.15,1.26.55,2.49,1.14,3.69,1.73A126.93,126.93,0,0,1,191.7,107l1.18.77c.72.49,1.71,1.17,2.84,2,4.2,3,10.24,7.71,10.6,10.21C206.88,123.78,204.26,129.16,191.29,135.78Z"/><path class="cls-3" d="M407.12,188.63c0-4.66-3.77-9-10.24-12.68C383.59,163.53,350,154.7,310.7,154.7c-51,0-92.27,14.82-92.27,33.11s41.31,33.1,92.27,33.1c34.33,0,64.27-6.72,80.17-16.7C401,200,407.12,194.59,407.12,188.63Z"/><path class="cls-17" d="M378.56,96.5c.61-6,.13-12,1.08-18,.83-5.22,2.79-11.3,8.28-13.23,3.11-1.09,7.26-1.18,10.13.59,3.36,2.09,4.46,6.32,3.49,10-.74,2.81-3.25,5.82-6.45,4.68-2-.72-3.41-3-2-4.9A8.37,8.37,0,0,1,398.26,73a11.06,11.06,0,0,1,6.42.83,11.94,11.94,0,0,1,6.81,10c0,.62,1.05.85,1.16.15a9.7,9.7,0,0,0-.77-6.47,12.19,12.19,0,0,0-4.49-4.69,13.43,13.43,0,0,0-12.81-.62c-2.85,1.39-5.16,4.44-3.3,7.57a6.15,6.15,0,0,0,7.64,2.36c3.8-1.69,5.72-6.9,5.28-10.79a10.38,10.38,0,0,0-9-9.14c-3.69-.52-7.78,0-10.92,2.1a15.7,15.7,0,0,0-5.71,8.1,41.14,41.14,0,0,0-1.87,12.28,90.09,90.09,0,0,0,.45,11.84.69.69,0,0,0,1.37,0Z"/><path class="cls-18" d="M424.08,142.71c.67,30.32-24.15,57.41-58.25,62.93h0a80.77,80.77,0,0,1-11.12,1,84,84,0,0,1-15-1.05c-.62-.1-1.24-.21-1.85-.33l-.59-.11a63,63,0,0,1-7.07-1.79,57.94,57.94,0,0,1-16.8-8.43q-1.47-1.06-2.85-2.22a57.82,57.82,0,0,1-6.71-6.56,63.21,63.21,0,0,1-7.56-10.78h0c-10.11-18-11.77-40.17-7.46-55.84a56.67,56.67,0,0,1,2.18-6.4C301.07,88.28,327.28,72.72,342.56,72c10.64-.53,22.47,5.43,29.56,9.76.63.38,1.21.74,1.76,1.09,2.39,1.53,4,2.72,4.51,3.09l.17.13,2,.61.09,0c1.7.52,4.22,1.28,6.7,2,1.42.41,2.83.79,4.06,1.1l.2.06a28.56,28.56,0,0,1,6.91,3.46A53.29,53.29,0,0,1,410,103.39C417.18,111.78,423.67,124.48,424.08,142.71Z"/><path class="cls-14" d="M373.89,82.44a1.45,1.45,0,0,1,0,.36c-.16,4.06-6.58,6-13.19,7.64a20,20,0,0,1-4.42.4c-2.54,0-5.16.07-7.61,1.67A15.67,15.67,0,0,0,345.14,96a13.18,13.18,0,0,1-3.4,3.35,11.82,11.82,0,0,1-4.11,1.2,15.33,15.33,0,0,0-4,1c-2.73,1.27-5,3.58-7.2,5.82-.95,1-1.83,1.87-2.72,2.65s-1.95,1.59-2.94,2.35c-3,2.28-6.06,4.63-7.4,8.52a31.33,31.33,0,0,0-1.31,7.47,31.25,31.25,0,0,1-1.09,6.62,42.51,42.51,0,0,1-3.62,7.56c-2.46,4.42-5,9-4.7,14a16.78,16.78,0,0,0,1.55,5.44,18.31,18.31,0,0,1,1.33,4,25.34,25.34,0,0,1-.2,6.82q-.12,1-.21,1.89c-.31,3.14-.69,6.29-1.07,9.33l-.24,2a63.21,63.21,0,0,1-7.56-10.78h0c-.58-4.31.34-9.15,1.17-13.53.18-1,.36-1.91.52-2.82.49-2.84-.05-6-.58-9.14-.62-3.61-1.26-7.35-.2-10.34a5.6,5.6,0,0,1,1.17-1.75,7,7,0,0,0,1.78-3.11,13.36,13.36,0,0,0-.12-5.12,15.08,15.08,0,0,1-.27-3.53c.41-5,3.68-7.42,7.47-10.18,1.12-.82,2.27-1.66,3.38-2.59,2.41-2,2.93-4.43,3.44-6.76.47-2.16.92-4.21,3-5.9,3.5-2.88,7.58-6.06,11.81-7.33a24.43,24.43,0,0,0,7.19-4c2.24-1.63,4.36-3.16,6.86-3.82a31.41,31.41,0,0,1,7.88-.81c1,0,2,0,2.93,0s2,0,2.95,0c1.49,0,2.72-.05,3.86-.15A18.66,18.66,0,0,0,365.78,83a14.72,14.72,0,0,1,5.19-1.4,5.54,5.54,0,0,1,1.15.12A5.4,5.4,0,0,1,373.89,82.44Z"/><path class="cls-14" d="M380.63,86.66a27.18,27.18,0,0,1-4.41,6.59c-1.81,2.16-3.66,4.25-5.45,6.26-3.17,3.58-6.45,7.27-9.52,11.41-2.76,3.73-5.32,7.59-7.78,11.31a179.61,179.61,0,0,1-11.48,16c-.61.74-1.23,1.46-1.85,2.19-4,4.74-8.2,9.64-9.95,16.18-.36,1.35-.66,2.73-.95,4.07a33.46,33.46,0,0,1-2.86,9.06c-1.21,2.21-2.54,4.42-3.83,6.56a110,110,0,0,0-6.61,12.18c-.92,2.08-1.77,4.21-2.58,6.47q-1.47-1.06-2.85-2.22a54.67,54.67,0,0,1,4.16-16.48,63.12,63.12,0,0,0,3.87-11.81c1.29-5,2.5-9.81,5.43-14.34,2.37-3.66,3.85-7.91,5.28-12,1.94-5.57,3.77-10.83,7.6-14.64a34.13,34.13,0,0,1,5.2-4,34,34,0,0,0,6.43-5.14,37.48,37.48,0,0,0,4.59-6.71c1.86-3.19,3.62-6.2,6.5-8,1.42-.89,2.95-1.75,4.57-2.66,5.12-2.87,10.77-6,14.25-11l2.15.74Z"/><path class="cls-14" d="M390.88,103.2c-.52,4.28-2.48,5.9-4.43,9.67-1.61,3.12-2,6.53-3.18,9.71a97.7,97.7,0,0,1-6,12.8c-3.44,6.27-7.66,9.16-6.47,16.44,2.37,14.56-9.59,26.69-18.08,37.35-3.74,4.69-9.2,11.44-15.46,16a63,63,0,0,1-7.07-1.79,39.17,39.17,0,0,0,6.67-7.71c2.66-3.94,5.06-5.62,8.78-8.42,3.29-2.49,4.85-6.23,6.82-9.74,5.81-10.35,8.31-22.64,11-34.15,1.3-5.63,4.05-10.73,4.58-16.45.44-4.62.41-9.91,1.92-14.35,1.78-5.23,7.28-7.86,11.22-11.21,4.35-3.69,5.73-8,6.21-12.7,1.42.41,2.83.79,4.06,1.1l.2.06C392.13,94.77,391.27,100,390.88,103.2Z"/><path class="cls-14" d="M410.16,138.75c.56,6.4-3.77,9.51-7.33,14-2.28,2.88-2.39,4.84-2.84,8.45-.69,5.56-3.9,10.35-6.28,15.49-2.78,6-5.07,10.95-9.66,15.91-5.39,5.83-11.38,9.46-18.22,13h0a80.77,80.77,0,0,1-11.12,1c2.56-1.36,5.16-2.7,7.71-4,5.13-2.58,6.94-6,11-9.46,7.2-6.15,14-10.52,15.24-20.92a34,34,0,0,1,4-13.07c2-3.76,5.11-7.54,6.67-11.38,4-9.73-1.21-19.49,0-29.15.74-5.79,2-11.48,1.07-17.34a63.48,63.48,0,0,0-1.95-8.09A53.29,53.29,0,0,1,410,103.39a78.53,78.53,0,0,1,.59,10.13,62.86,62.86,0,0,1-1,12.39C408.7,130.75,409.75,134,410.16,138.75Z"/><path class="cls-19" d="M410,103.39A53.29,53.29,0,0,0,398.5,93.26c-1.15-.74-2.21-1.36-3.17-1.87a58,58,0,0,1,1.85,6.68,62.47,62.47,0,0,1-.31,28c-3.52,13.92-12.63,25.63-24.55,33.46a73.85,73.85,0,0,1-39.54,11.79c-13.36.12-27-3.54-37.5-12a43,43,0,0,1-7.41-7.69,76.38,76.38,0,0,0,8.36,23.73h0a63.21,63.21,0,0,0,7.56,10.78,57.82,57.82,0,0,0,6.71,6.56q1.38,1.16,2.85,2.22a57.94,57.94,0,0,0,16.8,8.43,63,63,0,0,0,7.07,1.79c.8.16,1.62.31,2.44.44a84,84,0,0,0,15,1.05,80.77,80.77,0,0,0,11.12-1h0c34.1-5.52,58.92-32.61,58.25-62.93C423.67,124.48,417.18,111.78,410,103.39Z"/><path class="cls-20" d="M340.48,116.85c-6.34.05-31.63.83-38,.82-3,0-6.07-.12-9.08.17-1.44.13-2.88.34-4.32.5-.11.4-.25.78-.36,1.19-4.31,15.67-2.65,37.81,7.46,55.84h0a63.21,63.21,0,0,0,7.56,10.78,57.82,57.82,0,0,0,6.71,6.56q1.38,1.16,2.85,2.22a57.94,57.94,0,0,0,16.8,8.43,63,63,0,0,0,7.07,1.79l.59.11c8-9.23,16.81-22.08,19.64-35.94,4.07-20,.78-39-2.77-49.06C350.87,116.49,345.47,116.82,340.48,116.85Z"/><path class="cls-18" d="M271.94,208.06s31.58,4.9,52.48-9.59,26.12-38.89,24.95-53.83-4.73-23.9-9.66-25.16S264.38,177.72,266.52,188A203,203,0,0,0,271.94,208.06Z"/><path class="cls-19" d="M271.94,208.06s31.58,4.9,52.48-9.59,26.12-38.89,24.95-53.83-4.73-23.9-9.66-25.16S264.38,177.72,266.52,188A203,203,0,0,0,271.94,208.06Z"/><path class="cls-18" d="M218.41,123.49s-6.63,50.57,17,69.84,58.15,24.23,86.75-6.29S344.58,131,343.1,125.66a54.81,54.81,0,0,0-2.26-7S219.92,119.68,218.41,123.49Z"/><path class="cls-14" d="M224.93,122.11c-1.35,7.22-3.48,23.15.6,36.67,5.48,18.12,18.1,45.59,58.35,38.63s46.52-46.5,47.59-53.92a173.13,173.13,0,0,0,1.11-24.72l-2.49,0c-23.83.28-80.67,1.13-102.73,3.07Z"/><path class="cls-21" d="M329,141.78c-1,7.07-7,44.77-45.36,51.4S233.23,173.63,228,156.35c-3.81-12.6-1.94-27.4-.66-34.48,22.06-1.94,78.9-2.79,102.73-3.07A162.8,162.8,0,0,1,329,141.78Z"/><path class="cls-22" d="M245.52,131c-.7-.35-7.83,5.26-7.13,7.48a2.69,2.69,0,0,0,4.44,1.17C244.11,138.47,246.22,131.34,245.52,131Z"/><path class="cls-22" d="M252.89,148.54c-.71-.13-5.62,6.69-4.42,8.48a2.49,2.49,0,0,0,4.25-.1C253.57,155.55,253.61,148.67,252.89,148.54Z"/><path class="cls-22" d="M268,131.39c-.67,0-4.12,7-2.75,8.46a2.31,2.31,0,0,0,3.88-.75C269.7,137.72,268.68,131.41,268,131.39Z"/><path class="cls-22" d="M266.61,165.65c-.66,0-4.08,6.92-2.72,8.37a2.29,2.29,0,0,0,3.84-.74C268.29,171.91,267.28,165.66,266.61,165.65Z"/><path class="cls-22" d="M296.67,163c-.64.28-.91,8.32,1,9.12a2.4,2.4,0,0,0,3.34-2.35C300.94,168.24,297.31,162.74,296.67,163Z"/><path class="cls-22" d="M281,148.75c-.75.12-3.14,8.57-1.33,9.92a2.62,2.62,0,0,0,4.15-1.61C284.14,155.41,281.73,148.62,281,148.75Z"/><path class="cls-22" d="M293.59,130.22c-.49.26-.15,6.69,1.43,7.19a1.91,1.91,0,0,0,2.49-2.1C297.36,134.09,294.08,130,293.59,130.22Z"/><path class="cls-22" d="M307.39,145.49c-.68.26-1.4,8.7.57,9.64a2.52,2.52,0,0,0,3.63-2.29C311.61,151.22,308.08,145.24,307.39,145.49Z"/><path class="cls-22" d="M314.56,129.7c-.49.47,2,8,4,8.09a2.35,2.35,0,0,0,2.28-3.3C320.29,133.08,315.06,129.23,314.56,129.7Z"/></g></g></g></svg>