<svg xmlns="http://www.w3.org/2000/svg" xmlns:xlink="http://www.w3.org/1999/xlink" viewBox="0 0 408.78 265.16"><defs><style>.cls-1{fill:url(#linear-gradient);}.cls-2{fill:url(#linear-gradient-2);}</style><linearGradient id="linear-gradient" x1="26.07" y1="288.09" x2="370.07" y2="-11.91" gradientUnits="userSpaceOnUse"><stop offset="0" stop-color="#f8d065"/><stop offset="0" stop-color="#f5cd62"/><stop offset="0.07" stop-color="#d4a244"/><stop offset="0.13" stop-color="#bb812b"/><stop offset="0.19" stop-color="#a8691a"/><stop offset="0.24" stop-color="#9d5b10"/><stop offset="0.29" stop-color="#99560c"/><stop offset="0.33" stop-color="#9f5f13"/><stop offset="0.38" stop-color="#ae7727"/><stop offset="0.45" stop-color="#c79e48"/><stop offset="0.53" stop-color="#ead475"/><stop offset="0.58" stop-color="#fff691"/><stop offset="0.73" stop-color="#d7b558"/><stop offset="0.8" stop-color="#c5983f"/><stop offset="1" stop-color="#fbf09c"/></linearGradient><linearGradient id="linear-gradient-2" x1="26.07" y1="288.09" x2="370.07" y2="-11.91" xlink:href="#linear-gradient"/></defs><title>Asset 1</title><g id="Layer_2" data-name="Layer 2"><g id="Layer_1-2" data-name="Layer 1"><path class="cls-1" d="M373.36,262.38H35.42V246h-12v8.43H14.61V245h7.8v-9.74H2.78V29.9H22.41V20.17h-7.8V10.74H23.4v8.44h12V2.78H373.36v16.4h12V10.74h8.8v9.43h-7.8V29.9H406V235.25H386.37V245h7.8v9.42h-8.8V246h-12Zm-337-1h336V245h13V234.26H405V30.89H385.37V20.17h-13V3.77h-336v16.4h-13V30.89H3.77V234.26H23.4V245h13Zm350-8h6.81V246h-6.81Zm-370.77,0h6.81V246H15.6ZM386.37,19.18h6.81V11.74h-6.81Zm-370.77,0h6.81V11.74H15.6Z"/><path class="cls-2" d="M376.14,265.16H32.64v-16.4H26.19v8.43H11.83v-15h7.8V238H0V27.12H19.63V23h-7.8V8H26.19V16.4h6.45V0h343.5V16.4h6.45V8H397V23h-7.8v4.17h19.63V238H389.15v4.16H397v15H382.59v-8.43h-6.45Zm-342.51-1H375.15v-16.4h8.43v8.43H396v-13h-7.8V237h19.63V28.11H388.16V22H396V9H383.58v8.44h-8.43V1H33.63v16.4H25.19V9H12.82V22h7.8v6.15H1V237H20.62v6.16h-7.8v13H25.19v-8.43h8.44Z"/></g></g></svg>