<svg xmlns="http://www.w3.org/2000/svg" viewBox="0 0 1342.05 1472.81"><defs><style>.cls-1{fill:#ffddb0;}.cls-2{fill:#ffd19f;}.cls-3{fill:#ffe6c7;}.cls-4{fill:#af0000;}.cls-5{fill:#930000;}.cls-6{fill:#ce0505;}.cls-7{fill:#e9d059;}.cls-8{fill:#dabc3e;}.cls-9{fill:#f8df75;}.cls-10{fill:#edc932;}.cls-11{fill:#dbb619;}.cls-12{fill:#ffdf57;}.cls-13{fill:#c6a20e;}.cls-14{fill:#ffeea6;}.cls-15{fill:red;}.cls-16{fill:#e20000;}.cls-17{fill:#ff5050;}.cls-18{fill:#ffe715;}.cls-19{fill:#ffce00;}.cls-20{fill:#ffef84;}.cls-21{fill:#333;}.cls-22{fill:#212121;}.cls-23{fill:#474747;}.cls-24{fill:#7c0000;}.cls-25{fill:#f29c9c;}.cls-26{fill:#ed8c8c;}.cls-27{fill:#f9b2b2;}</style></defs><title>Asset 1</title><g id="Layer_2" data-name="Layer 2"><g id="Layer_1-2" data-name="Layer 1"><path class="cls-1" d="M671,1346.53v94.63s1.72,31.65-26.76,31.65H579.56s-28.13.35-33.41-20c-3.52-10.9,16.53-27.43,26.73-34.82s7.74-15.82,5.63-23.56-19.7-69.81-19.7-69.81S671,1308.53,671,1346.53Z"/><path class="cls-2" d="M642.14,1429.5c-25.32-1.34-41.58-17.6-47.44-36.25-4.3-13.68-13.75-51.4-18.49-70.58-10.45.91-17.4,1.9-17.4,1.9s17.59,62.07,19.7,69.81,4.57,16.18-5.63,23.56-30.25,23.92-26.73,34.82c5.28,20.4,33.41,20,33.41,20h64.71c28.48,0,26.76-31.65,26.76-31.65v-14.4A104,104,0,0,1,642.14,1429.5Z"/><path class="cls-3" d="M602.07,1372.23s9.08,35.07,27.84,42.42,32.22,3.67,32.22-11.22v-34.06s-2.44-13-19.37-13S594.21,1349,602.07,1372.23Z"/><path class="cls-4" d="M579.56,1472.81h64.89c28.29-.14,26.58-31.64,26.58-31.65h0v-2.73c-10.31,2.22-25.64,4.13-47.86,4.13-36.47,0-49.87-13.1-54.68-21.31l-.08.06-.08.06-.23.18,0,0-.21.17-.1.08-.17.13-.1.08-.16.13-.21.16-.19.16-.07,0-.19.16-.12.09-.17.14-.12.09-.15.13-.14.11-.2.17,0,0-.27.22,0,0-.2.17-.25.2-.11.09-.16.14-.12.1-.15.13-.15.12-.12.1-.18.15-.12.11-.19.15-.08.08-.24.2-.12.1-.23.2-.09.08-.2.17-.09.08-.2.17-.12.1-.16.15-.13.11-.16.15a.69.69,0,0,0-.13.11l-.18.16-.1.09-.6.53,0,0-.24.22-.1.09-.19.18-.11.1-.18.16-.12.11-.14.13-.16.14-.2.19-.06.06-.29.28,0,0-.26.25-.09.09-.18.17-.12.11c-.06.06-.12.11-.17.17l-.11.1-.18.18-.1.1-.19.18-.1.1-.18.18-.13.12-.24.25-.07.07-.2.2-.1.1-.19.19-.09.09-.16.17-.14.14-.12.13-.14.14-.17.18-.09.09-.2.21-.16.17-.17.18-.09.11-.17.17-.1.12-.17.18-.09.1-.16.18-.1.11-.16.18-.1.11-.19.21-.06.07c-.08.09-.16.19-.25.28l-.06.08-.18.21-.1.11-.15.18-.09.11-.15.17-.1.12-.14.17-.1.12-.14.18-.1.11-.15.2-.08.09-.22.28-.07.09-.15.19-.1.13a1.83,1.83,0,0,1-.13.16l-.09.13a1.83,1.83,0,0,1-.13.16l-.09.12-.12.18-.09.12a1.09,1.09,0,0,0-.13.17l-.08.11-.41.58-.06.08c0,.07-.09.14-.14.2l-.07.11-.13.18-.07.12-.12.17a.83.83,0,0,1-.08.12,1.63,1.63,0,0,1-.11.17l-.07.12-.13.19-.05.09-.18.29,0,.05c-.05.08-.1.16-.14.24l-.06.1a1.74,1.74,0,0,0-.11.18l-.07.12-.09.16-.08.13-.09.16-.06.12-.1.17-.06.12-.1.2,0,.08-.14.28,0,.09-.1.19,0,.11-.08.17-.06.12c0,.06-.05.11-.07.17a.37.37,0,0,0,0,.11,1.42,1.42,0,0,0-.08.18l0,.1-.09.19,0,.09-.09.23,0,0c0,.1-.07.19-.1.28l0,.09a1.46,1.46,0,0,0-.07.19l0,.1-.06.18,0,.1-.06.17,0,.11a1.54,1.54,0,0,0-.05.17l0,.11a1.21,1.21,0,0,0,0,.18l0,.09c0,.09,0,.18-.07.27v0l-.06.25a.36.36,0,0,0,0,.1.85.85,0,0,0,0,.17.43.43,0,0,0,0,.11l0,.17,0,.1,0,.16a.36.36,0,0,1,0,.11.78.78,0,0,1,0,.16s0,.07,0,.11l0,.2v.06l0,.26v.07a1.34,1.34,0,0,0,0,.2.28.28,0,0,0,0,.09v.17a.34.34,0,0,0,0,.1v.42a.34.34,0,0,1,0,.1.86.86,0,0,0,0,.16v.1a1.23,1.23,0,0,0,0,.19v.06l0,.25a.15.15,0,0,0,0,.07,1.1,1.1,0,0,0,0,.18l0,.1a.77.77,0,0,0,0,.15s0,.07,0,.1l0,.15s0,.07,0,.1,0,.1,0,.16,0,.06,0,.08a.84.84,0,0,0,0,.17.24.24,0,0,0,0,.08,2.17,2.17,0,0,0,.07.24q.15.6.33,1.17c.1.31.2.61.31.91s.27.73.42,1.09l.18.42a2,2,0,0,1,.1.21c.06.14.13.27.19.41s.27.54.41.8a22,22,0,0,0,1.88,2.94l.13.17C559.53,1473.06,579.56,1472.81,579.56,1472.81Z"/><path class="cls-5" d="M656.54,1464.37h-64.9s-20,.25-29.46-11.92a1.09,1.09,0,0,0-.13-.17,21.47,21.47,0,0,1-1.88-3c-.14-.26-.28-.53-.41-.8s-.13-.27-.19-.41l-.09-.21c-.07-.14-.13-.28-.19-.42-.15-.36-.29-.72-.42-1.09s-.21-.6-.3-.9-.24-.78-.34-1.18c0-.08-.05-.16-.07-.24l0-.07c0-.06,0-.12,0-.17s0-.06,0-.09,0-.11,0-.16l0-.1,0-.15s0-.06,0-.1a.77.77,0,0,1,0-.15l0-.1a1,1,0,0,1,0-.17v-.08l0-.25v0c0-.07,0-.14,0-.2v-.1a.81.81,0,0,1,0-.16v-.1a.81.81,0,0,1,0-.16v-.26a.34.34,0,0,0,0-.1v-.17s0-.06,0-.09,0-.13,0-.2v-.07l0-.26v-.06a1.36,1.36,0,0,1,0-.2s0-.07,0-.1l0-.17s0-.07,0-.1l0-.17s0-.07,0-.1l0-.17s0-.07,0-.11a1,1,0,0,1,0-.17l0-.09.06-.26h0c0-.09.05-.18.07-.27l0-.1a1.21,1.21,0,0,1,.05-.18l0-.11s0-.11,0-.16l0-.11.06-.18,0-.1a1.34,1.34,0,0,1,.07-.18l0-.1a1.46,1.46,0,0,1,.07-.19l0-.09c0-.09.07-.18.11-.27l0-.06.09-.22,0-.09a1.67,1.67,0,0,1,.08-.2l0-.1c0-.06,0-.12.08-.17a.61.61,0,0,1,0-.12c0-.06,0-.11.07-.16l.06-.13s0-.11.08-.17l0-.11c0-.06.07-.12.1-.19l0-.09.15-.28,0-.08c0-.07.07-.13.1-.2l.07-.12.09-.16a.54.54,0,0,1,.07-.13l.08-.16.08-.13.09-.16.07-.12.11-.18.06-.1a1.76,1.76,0,0,1,.14-.23l0-.06.18-.29,0-.08.13-.2.07-.12a1,1,0,0,0,.11-.17l.08-.12.12-.17.07-.11.13-.19.07-.1.14-.21.06-.08.41-.57.08-.12.13-.17.09-.12.12-.17.1-.12.12-.17.1-.13.12-.16.1-.13.15-.19.07-.09.23-.28.07-.09.16-.2.09-.11.14-.18.1-.12.14-.16.1-.12.15-.18.09-.11.15-.17.1-.12.18-.21.06-.07.25-.29.06-.06c.06-.08.13-.15.19-.22l.1-.11.16-.18.1-.11.16-.18.1-.1.16-.18.1-.11.17-.18.1-.11.16-.18.17-.17.19-.21.09-.09.17-.18.14-.14.12-.13.14-.14.16-.17.1-.09.18-.19.1-.1c.06-.07.13-.13.2-.2l.07-.07.25-.25.06-.06c-.31-.46-.59-.92-.84-1.35l-.08.06-.08.06-.23.18,0,0-.21.17-.1.08-.17.13-.1.08-.16.13-.21.16-.19.16-.07,0-.19.16-.12.09-.17.14-.12.09-.15.13-.14.11-.2.17,0,0-.27.22,0,0-.2.17-.25.2-.11.09-.16.14-.12.1-.15.13-.15.12-.12.1-.18.15-.12.11-.19.15-.08.08-.24.2-.12.1-.23.2-.09.08-.2.17-.09.08-.2.17-.12.1-.16.15-.13.11-.16.15a.69.69,0,0,0-.13.11l-.18.16-.1.09-.6.53,0,0-.24.22-.1.09-.19.18-.11.1-.18.16-.12.11-.14.13-.16.14-.2.19-.06.06-.29.28,0,0-.26.25-.09.09-.18.17-.12.11c-.06.06-.12.11-.17.17l-.11.1-.18.18-.1.1-.19.18-.1.1-.18.18-.13.12-.24.25-.07.07-.2.2-.1.1-.19.19-.09.09-.16.17-.14.14-.12.13-.14.14-.17.18-.09.09-.2.21-.16.17-.17.18-.09.11-.17.17-.1.12-.17.18-.09.1-.16.18-.1.11-.16.18-.1.11-.19.21-.06.07c-.08.09-.16.19-.25.28l-.06.08-.18.21-.1.11-.15.18-.09.11-.15.17-.1.12-.14.17-.1.12-.14.18-.1.11-.15.2-.08.09-.22.28-.07.09-.15.19-.1.13a1.83,1.83,0,0,1-.13.16l-.09.13a1.83,1.83,0,0,1-.13.16l-.09.12-.12.18-.09.12a1.09,1.09,0,0,0-.13.17l-.08.11-.41.58-.06.08c0,.07-.09.14-.14.2l-.07.11-.13.18-.07.12-.12.17a.83.83,0,0,1-.08.12,1.63,1.63,0,0,1-.11.17l-.07.12-.13.19-.05.09-.18.29,0,.05c-.05.08-.1.16-.14.24l-.06.1a1.74,1.74,0,0,0-.11.18l-.07.12-.09.16-.08.13-.09.16-.06.12-.1.17-.06.12-.1.2,0,.08-.14.28,0,.09-.1.19,0,.11-.08.17-.06.12c0,.06-.05.11-.07.17a.37.37,0,0,0,0,.11,1.42,1.42,0,0,0-.08.18l0,.1-.09.19,0,.09-.09.23,0,0c0,.1-.07.19-.1.28l0,.09a1.46,1.46,0,0,0-.07.19l0,.1-.06.18,0,.1-.06.17,0,.11a1.54,1.54,0,0,0-.05.17l0,.11a1.21,1.21,0,0,0,0,.18l0,.09c0,.09,0,.18-.07.27v0l-.06.25a.36.36,0,0,0,0,.1.85.85,0,0,0,0,.17.43.43,0,0,0,0,.11l0,.17,0,.1,0,.16a.36.36,0,0,1,0,.11.78.78,0,0,1,0,.16s0,.07,0,.11l0,.2v.06l0,.26v.07a1.34,1.34,0,0,0,0,.2.28.28,0,0,0,0,.09v.17a.34.34,0,0,0,0,.1v.42a.34.34,0,0,1,0,.1.86.86,0,0,0,0,.16v.1a1.23,1.23,0,0,0,0,.19v.06l0,.25a.15.15,0,0,0,0,.07,1.1,1.1,0,0,0,0,.18l0,.1a.77.77,0,0,0,0,.15s0,.07,0,.1l0,.15s0,.07,0,.1,0,.1,0,.16,0,.06,0,.08a.84.84,0,0,0,0,.17.24.24,0,0,0,0,.08,2.17,2.17,0,0,0,.07.24q.15.6.33,1.17c.1.31.2.61.31.91s.27.73.42,1.09l.18.42a2,2,0,0,1,.1.21c.06.14.13.27.19.41s.27.54.41.8a22,22,0,0,0,1.88,2.94l.13.17c9.43,12.18,29.46,11.93,29.46,11.93h64.89c10.29,0,16.61-4.25,20.49-9.57A30.87,30.87,0,0,1,656.54,1464.37Z"/><path class="cls-6" d="M650.13,1448.75s-33.41,4.34-61-1.72c-23.58-9.84-26.24-8-22.12,0s18.15,11.33,45.16,11.33H652s10.22-.31,11.28-5.8S658.53,1447.22,650.13,1448.75Z"/><circle class="cls-7" cx="565.53" cy="1423.82" r="13.37"/><path class="cls-8" d="M571.54,1432.48a13.38,13.38,0,0,1-10.91-21.11,13.37,13.37,0,1,0,15.8,20.18A13.25,13.25,0,0,1,571.54,1432.48Z"/><path class="cls-9" d="M574.37,1427.55c-2.33,1.94-6.57.69-9.46-2.79s-3.36-7.88-1-9.82,6.57-.69,9.47,2.79S576.7,1425.61,574.37,1427.55Z"/><circle class="cls-7" cx="588.22" cy="1436.34" r="13.37"/><path class="cls-8" d="M594.22,1445a13.37,13.37,0,0,1-10.9-21.11,13.37,13.37,0,1,0,15.8,20.18A13.27,13.27,0,0,1,594.22,1445Z"/><path class="cls-9" d="M597.06,1440.07c-2.33,1.94-6.57.69-9.47-2.79s-3.35-7.88-1-9.82,6.57-.68,9.47,2.8S599.39,1438.13,597.06,1440.07Z"/><path class="cls-1" d="M671,1346.53v94.63s-1.72,31.65,26.76,31.65h64.71s28.14.35,33.41-20c3.52-10.9-16.53-27.43-26.73-34.82s-7.73-15.82-5.62-23.56,19.69-69.81,19.69-69.81S671,1308.53,671,1346.53Z"/><path class="cls-2" d="M769.51,1418.19a115.27,115.27,0,0,1-31,9.21c-24.6,3.58-41.27-1.27-46.64-30.39-3.32-18-5.32-48.28-6.35-68.75-8.84,3.88-14.55,9.7-14.55,18.27v94.63s-1.72,31.65,26.76,31.65h64.71s28.14.35,33.41-20C799.38,1442,779.8,1425.69,769.51,1418.19Z"/><path class="cls-3" d="M702.39,1376.51s2.33,39.44,20.36,40.07,21.2-5.51,27.14-22.9,14.21-40.5,0-40.28S697.94,1347.46,702.39,1376.51Z"/><path class="cls-4" d="M762.49,1472.81H697.6c-28.29-.14-26.58-31.64-26.58-31.65h0v-2.73c10.31,2.22,25.64,4.13,47.86,4.13,36.47,0,49.87-13.1,54.69-21.31l.07.06.08.06.23.18,0,0,.21.17.1.08.17.13.1.08.16.13.21.16.19.16.07,0,.19.16.12.09.17.14.12.09.15.13.14.11.2.17.05,0,.27.22,0,0,.2.17.25.2.11.09.16.14.12.1.16.13.14.12.12.1.18.15.12.11.19.15.09.08.23.2.12.1.23.2.09.08.2.17.1.08.19.17.12.1.16.15.13.11.16.15a.69.69,0,0,1,.13.11l.18.16.11.09.59.53,0,0,.24.22.1.09.19.18.11.1.18.16.12.11.14.13.16.14.2.19.06.06.3.28,0,0,.26.25.09.09.18.17.12.11.18.17.1.1.18.18.1.1.19.18.1.1.19.18.12.12.24.25.07.07.2.2.1.1.19.19.09.09.16.17.14.14a1.59,1.59,0,0,0,.13.13l.13.14.17.18.09.09.2.21.16.17.17.18.1.11a1.29,1.29,0,0,0,.16.17l.1.12.17.18.09.1.16.18.1.11.16.18.1.11.19.21.06.07.25.28.06.08.18.21.1.11.15.18.09.11.15.17.1.12.14.17.1.12.14.18.1.11.15.2.08.09.22.28.07.09.15.19.1.13a1.83,1.83,0,0,0,.13.16l.09.13.13.16.09.12.13.18a.83.83,0,0,1,.08.12,1.09,1.09,0,0,1,.13.17l.09.11c.13.2.27.39.4.58l.06.08c.05.07.09.14.14.2l.07.11.13.18.07.12.12.17.08.12.11.17.07.12a2.14,2.14,0,0,1,.13.19l.06.09c.05.1.11.19.17.29l0,.05c0,.08.09.16.14.24l.06.1.1.18a.75.75,0,0,1,.07.12,1.4,1.4,0,0,0,.1.16.83.83,0,0,0,.07.13l.09.16a.75.75,0,0,0,.07.12l.09.17.06.12c0,.06.07.13.11.2l0,.08.14.28,0,.09a1.74,1.74,0,0,1,.1.19l0,.11a1.3,1.3,0,0,1,.08.17l.06.12c0,.06,0,.11.07.17l.06.11.07.18s0,.07.05.1a1.08,1.08,0,0,0,.08.19l0,.09a2.29,2.29,0,0,1,.1.23l0,0c0,.1.07.19.1.28l0,.09a1.46,1.46,0,0,1,.07.19.3.3,0,0,1,0,.1l.06.18,0,.1.06.17,0,.11a1.54,1.54,0,0,1,0,.17l0,.11a1.21,1.21,0,0,0,.05.18.29.29,0,0,0,0,.09,2.68,2.68,0,0,1,.07.27v0c0,.09,0,.17,0,.25a.36.36,0,0,1,0,.1.85.85,0,0,1,0,.17.43.43,0,0,1,0,.11l0,.17,0,.1,0,.16s0,.08,0,.11,0,.11,0,.16,0,.07,0,.11l0,.2v.06l0,.26v.07c0,.07,0,.13,0,.2v.09a1,1,0,0,0,0,.17v.52s0,.07,0,.1v.16a.31.31,0,0,0,0,.1c0,.06,0,.13,0,.19v.06c0,.08,0,.17,0,.25a.2.2,0,0,0,0,.07l0,.18s0,.07,0,.1l0,.15s0,.07,0,.1l0,.15s0,.07,0,.1a1.24,1.24,0,0,1,0,.16.19.19,0,0,1,0,.08c0,.06,0,.12,0,.17l0,.08a2.17,2.17,0,0,1-.07.24q-.15.6-.33,1.17c-.1.31-.2.61-.31.91s-.27.73-.42,1.09l-.18.42-.1.21c-.06.14-.12.27-.19.41s-.27.54-.41.8a22,22,0,0,1-1.88,2.94l-.13.17C782.52,1473.06,762.49,1472.81,762.49,1472.81Z"/><path class="cls-5" d="M776.06,1464.47H711.17c-19-.09-24.48-14.37-26-23.72-5.52-.66-10.19-1.47-14.14-2.32v2.73s-1.71,31.51,26.58,31.65h64.89S781.25,1473,791,1462A51.87,51.87,0,0,1,776.06,1464.47Z"/><path class="cls-6" d="M705.48,1449.34s30.94,3.31,53.06-5.64c18-6.51,21.43-6,25.43-2s3.14,16.65-9.05,16.65H718s-12.87.4-17.75-3.95S698.52,1447.93,705.48,1449.34Z"/><circle class="cls-7" cx="776.52" cy="1423.82" r="13.37"/><path class="cls-8" d="M767.86,1417.81a13.37,13.37,0,0,0,21.11,10.9,13.37,13.37,0,1,1-20.18-15.8A13.31,13.31,0,0,0,767.86,1417.81Z"/><path class="cls-9" d="M772.79,1415c-1.94,2.33-.69,6.57,2.79,9.47s7.88,3.36,9.82,1,.69-6.57-2.8-9.46S774.73,1412.64,772.79,1415Z"/><circle class="cls-7" cx="753.84" cy="1436.34" r="13.37"/><path class="cls-8" d="M745.17,1430.33a13.38,13.38,0,0,0,21.11,10.91,13.37,13.37,0,1,1-20.18-15.81A13.31,13.31,0,0,0,745.17,1430.33Z"/><path class="cls-9" d="M750.1,1427.49c-1.94,2.33-.69,6.57,2.79,9.47s7.88,3.36,9.82,1,.69-6.57-2.79-9.47S752,1425.16,750.1,1427.49Z"/><path class="cls-4" d="M680.65,1344.53c197.3-3.67,276.1-63.06,276.1-63.06-31.16-173.2-154.93-297.12-154.93-297.12L680.65,968.11v-2.58L671,966.82l-9.63-1.29v2.58L540.23,984.35S416.46,1108.27,385.3,1281.47c0,0,78.8,59.39,276.1,63.06h0c3.24,0,6.45.16,9.63.13s6.38,0,9.62,0Z"/><path class="cls-5" d="M950.36,1251.55c-40.76,16.94-112,38.07-224.71,46.09-200.09,14.24-276.75-47.6-243.39-142.52,21.51-61.19,63.8-132.36,91.14-175.21l-33.17,4.44S416.46,1108.27,385.3,1281.47c0,0,78.8,59.39,276.1,63.06h0c3.24,0,6.45.16,9.63.13s6.38,0,9.62,0h0c197.3-3.67,276.1-63.23,276.1-63.23Q954,1266.24,950.36,1251.55Z"/><path class="cls-6" d="M582.25,1253.39s92.07,21.44,237.92-9.64c76.16-16.08,78.31-37.46,60.08-81.44s-38-111.76-126.75-118.63-189-7.89-213.33,73.57S512.57,1235.17,582.25,1253.39Z"/><path class="cls-10" d="M440,1237.37a30.22,30.22,0,0,0-30.22-30.22,29.58,29.58,0,0,0-5.1.43q-3.65,10.58-6.9,21.53l12-12,20.26,20.26-20.26,20.25L394.15,1242q-2.37,8.88-4.45,18A30.22,30.22,0,0,0,440,1237.37Z"/><path class="cls-11" d="M438.94,1245.38a26.32,26.32,0,0,1-20.25,9.48,26,26,0,0,1-5.55-.59l-3.35,3.35L394.15,1242q-2.37,8.88-4.45,18a30.22,30.22,0,0,0,49.24-14.56Z"/><path class="cls-12" d="M409.79,1214.37l23.22,23-15.3,15.25a19.76,19.76,0,0,0,9.34-1.85c5.39-2.34,7.76-8.44,7.17-16.75s-8.62-18-20.13-20.69a22.94,22.94,0,0,0-11.65.93q-1.56,4.74-3,9.54Z"/><path class="cls-13" d="M438.88,1245.57a27.47,27.47,0,0,1-46.76,4.26q-1.26,5-2.42,10.11a30.22,30.22,0,0,0,49.18-14.37Z"/><path class="cls-12" d="M440,1237.37a30.22,30.22,0,0,0-30.22-30.22,29.58,29.58,0,0,0-5.1.43c-.47,1.35-.93,2.7-1.38,4.06a26.08,26.08,0,0,1,6.48-.8,26.53,26.53,0,1,1-19.11,44.9c-.34,1.4-.66,2.8-1,4.2A30.22,30.22,0,0,0,440,1237.37Z"/><path class="cls-10" d="M409.79,1267.59a30.14,30.14,0,0,0,22.22-9.74,30.21,30.21,0,0,1-41.67-.66c-.22.91-.43,1.83-.64,2.75A30.09,30.09,0,0,0,409.79,1267.59Z"/><path class="cls-14" d="M407,1209.6c14.29,0,30.6,7.06,30.24,29.17-.67,12.57-8.13,22.19-21.16,25.13,0,0,10-.15,17.69-9.71s8.25-32-9.32-42c-5-2.39-12.53-4.74-20.19-3.46-.13.36-.25.72-.37,1.09A18.56,18.56,0,0,1,407,1209.6Z"/><path class="cls-10" d="M661.89,1146.14a30.22,30.22,0,1,0,30.22,30.22A30.22,30.22,0,0,0,661.89,1146.14Zm0,50.47-20.25-20.25,20.25-20.26,20.26,20.26Z"/><path class="cls-11" d="M670.79,1193.85a26.73,26.73,0,0,1-5.55-.58l-3.35,3.34-20.25-20.25L645,1173a26.36,26.36,0,0,1,9-25.81,30.23,30.23,0,1,0,37,37.19A26.29,26.29,0,0,1,670.79,1193.85Z"/><path class="cls-12" d="M647.51,1166.41l14.38-13,23.22,23-15.3,15.25a19.76,19.76,0,0,0,9.34-1.85c5.4-2.34,7.77-8.43,7.17-16.75s-8.62-18-20.13-20.69a22,22,0,0,0-15.54,2.82C649.28,1156.1,647.51,1158.28,647.51,1166.41Z"/><path class="cls-13" d="M666.31,1200a27.46,27.46,0,0,1-14.44-50.82,26.29,26.29,0,0,1,2.12-2,30.23,30.23,0,1,0,37,37.39A27.44,27.44,0,0,1,666.31,1200Z"/><path class="cls-12" d="M661.89,1149.83a26.53,26.53,0,1,1-26.53,26.53,26.56,26.56,0,0,1,26.53-26.53m0-3.69a30.22,30.22,0,1,0,30.22,30.22,30.22,30.22,0,0,0-30.22-30.22Z"/><path class="cls-10" d="M663.62,1204.85a30.22,30.22,0,0,1-22.21-50.71,30.22,30.22,0,1,0,42.7,42.7A30.12,30.12,0,0,1,663.62,1204.85Z"/><path class="cls-14" d="M636.41,1164.49s8.42-15.89,22.71-15.89,30.6,7.05,30.24,29.16c-.67,12.57-8.13,22.19-21.15,25.13,0,0,10-.15,17.69-9.71s8.24-32-9.33-42C666.89,1146.55,647.17,1142,636.41,1164.49Z"/><path class="cls-10" d="M760.93,1233.68a30.22,30.22,0,1,0,30.22,30.22A30.22,30.22,0,0,0,760.93,1233.68Zm0,50.47-20.25-20.25,20.25-20.26,20.26,20.26Z"/><path class="cls-11" d="M769.83,1281.39a26.07,26.07,0,0,1-5.55-.59l-3.35,3.35-20.25-20.25,3.37-3.37a26.36,26.36,0,0,1,9-25.81,30.22,30.22,0,1,0,37.05,37.19A26.32,26.32,0,0,1,769.83,1281.39Z"/><path class="cls-12" d="M746.55,1254l14.38-13,23.22,23-15.3,15.25a19.76,19.76,0,0,0,9.34-1.85c5.4-2.34,7.77-8.44,7.17-16.75s-8.62-18-20.13-20.69a22,22,0,0,0-15.54,2.82C748.32,1243.64,746.55,1245.82,746.55,1254Z"/><path class="cls-13" d="M765.35,1287.5a27.46,27.46,0,0,1-14.44-50.81,24.6,24.6,0,0,1,2.12-2,30.22,30.22,0,1,0,37,37.38A27.44,27.44,0,0,1,765.35,1287.5Z"/><path class="cls-12" d="M760.93,1237.37a26.53,26.53,0,1,1-26.53,26.53,26.56,26.56,0,0,1,26.53-26.53m0-3.69a30.22,30.22,0,1,0,30.22,30.22,30.22,30.22,0,0,0-30.22-30.22Z"/><path class="cls-10" d="M762.66,1292.39a30.22,30.22,0,0,1-22.21-50.71,30.22,30.22,0,1,0,42.7,42.7A30.12,30.12,0,0,1,762.66,1292.39Z"/><path class="cls-14" d="M735.45,1252s8.42-15.9,22.71-15.9,30.6,7,30.24,29.17c-.67,12.57-8.13,22.19-21.15,25.12,0,0,10-.14,17.68-9.7s8.25-32-9.32-42C765.93,1234.09,746.21,1229.56,735.45,1252Z"/><path class="cls-10" d="M866.87,1132.09a30.22,30.22,0,1,0,30.22,30.22A30.22,30.22,0,0,0,866.87,1132.09Zm0,50.47-20.25-20.25,20.25-20.26,20.26,20.26Z"/><path class="cls-11" d="M875.77,1179.8a26.73,26.73,0,0,1-5.55-.58l-3.35,3.34-20.25-20.25,3.37-3.37a26.36,26.36,0,0,1,9-25.81,30.23,30.23,0,1,0,37,37.19A26.29,26.29,0,0,1,875.77,1179.8Z"/><path class="cls-12" d="M852.49,1152.36l14.38-13,23.22,23-15.3,15.25a19.76,19.76,0,0,0,9.34-1.85c5.4-2.34,7.77-8.44,7.17-16.75s-8.62-18-20.13-20.69a22,22,0,0,0-15.54,2.82C854.26,1142.05,852.49,1144.23,852.49,1152.36Z"/><path class="cls-13" d="M871.29,1185.91a27.46,27.46,0,0,1-14.45-50.81,28.23,28.23,0,0,1,2.13-2,30.23,30.23,0,1,0,37,37.39A27.45,27.45,0,0,1,871.29,1185.91Z"/><path class="cls-12" d="M866.87,1135.78a26.53,26.53,0,1,1-26.53,26.53,26.56,26.56,0,0,1,26.53-26.53m0-3.69a30.22,30.22,0,1,0,30.22,30.22,30.22,30.22,0,0,0-30.22-30.22Z"/><path class="cls-10" d="M868.6,1190.8a30.23,30.23,0,0,1-22.22-50.71,30.22,30.22,0,1,0,42.71,42.7A30.12,30.12,0,0,1,868.6,1190.8Z"/><path class="cls-14" d="M841.39,1150.44s8.42-15.9,22.71-15.9,30.6,7.06,30.24,29.17c-.67,12.57-8.13,22.19-21.16,25.13,0,0,10-.15,17.69-9.71s8.25-32-9.32-42C871.87,1132.5,852.15,1128,841.39,1150.44Z"/><path class="cls-10" d="M506.21,1115.92a30.22,30.22,0,1,0,30.22,30.22A30.22,30.22,0,0,0,506.21,1115.92Zm0,50.47L486,1146.14l20.25-20.26,20.26,20.26Z"/><path class="cls-11" d="M515.11,1163.63a26.73,26.73,0,0,1-5.55-.58l-3.35,3.34L486,1146.14l3.37-3.37a26.36,26.36,0,0,1,9-25.81,30.23,30.23,0,1,0,37.05,37.19A26.29,26.29,0,0,1,515.11,1163.63Z"/><path class="cls-12" d="M491.83,1136.19l14.38-13,23.22,23-15.3,15.25a19.76,19.76,0,0,0,9.34-1.85c5.4-2.34,7.77-8.43,7.17-16.75s-8.62-18-20.13-20.69a22,22,0,0,0-15.54,2.82C493.6,1125.88,491.83,1128.06,491.83,1136.19Z"/><path class="cls-13" d="M510.63,1169.75a27.46,27.46,0,0,1-14.44-50.82,28.24,28.24,0,0,1,2.12-2,30.23,30.23,0,1,0,37,37.39A27.44,27.44,0,0,1,510.63,1169.75Z"/><path class="cls-12" d="M506.21,1119.61a26.53,26.53,0,1,1-26.53,26.53,26.56,26.56,0,0,1,26.53-26.53m0-3.69a30.22,30.22,0,1,0,30.22,30.22,30.22,30.22,0,0,0-30.22-30.22Z"/><path class="cls-10" d="M507.94,1174.63a30.22,30.22,0,0,1-22.21-50.71,30.22,30.22,0,1,0,42.7,42.7A30.12,30.12,0,0,1,507.94,1174.63Z"/><path class="cls-14" d="M480.73,1134.27s8.42-15.89,22.71-15.89,30.6,7,30.24,29.16c-.67,12.57-8.13,22.19-21.15,25.13,0,0,10-.15,17.68-9.71s8.25-32-9.32-42C511.21,1116.33,491.49,1111.8,480.73,1134.27Z"/><path class="cls-10" d="M608.77,1033A30.22,30.22,0,1,0,639,1063.26,30.22,30.22,0,0,0,608.77,1033Zm0,50.47-20.25-20.25L608.77,1043,629,1063.26Z"/><path class="cls-11" d="M617.67,1080.75a26.73,26.73,0,0,1-5.55-.58l-3.35,3.34-20.25-20.25,3.37-3.37a26.36,26.36,0,0,1,9-25.81,30.23,30.23,0,1,0,37,37.19A26.29,26.29,0,0,1,617.67,1080.75Z"/><path class="cls-12" d="M594.39,1053.31l14.38-13,23.22,23-15.3,15.25a19.76,19.76,0,0,0,9.34-1.85c5.4-2.34,7.77-8.43,7.17-16.75s-8.62-18-20.13-20.69a22,22,0,0,0-15.54,2.82C596.16,1043,594.39,1045.18,594.39,1053.31Z"/><path class="cls-13" d="M613.19,1086.87a27.46,27.46,0,0,1-14.44-50.82,28.24,28.24,0,0,1,2.12-2,30.23,30.23,0,1,0,37,37.39A27.44,27.44,0,0,1,613.19,1086.87Z"/><path class="cls-12" d="M608.77,1036.73a26.53,26.53,0,1,1-26.53,26.53,26.56,26.56,0,0,1,26.53-26.53m0-3.69A30.22,30.22,0,1,0,639,1063.26,30.22,30.22,0,0,0,608.77,1033Z"/><path class="cls-10" d="M610.5,1091.75A30.22,30.22,0,0,1,588.29,1041a30.22,30.22,0,1,0,42.7,42.7A30.12,30.12,0,0,1,610.5,1091.75Z"/><path class="cls-14" d="M583.29,1051.39s8.42-15.89,22.71-15.89,30.6,7,30.24,29.16c-.67,12.57-8.13,22.19-21.15,25.13,0,0,10-.15,17.68-9.71s8.25-32-9.32-41.95C613.77,1033.45,594.05,1028.92,583.29,1051.39Z"/><path class="cls-10" d="M755.87,1048.33a30.22,30.22,0,1,0,30.22,30.22A30.22,30.22,0,0,0,755.87,1048.33Zm0,50.48-20.26-20.26,20.26-20.25,20.25,20.25Z"/><path class="cls-11" d="M764.76,1096.05a26.07,26.07,0,0,1-5.55-.59l-3.34,3.35-20.26-20.26,3.37-3.37a26.42,26.42,0,0,1,9-25.8,30.22,30.22,0,1,0,37,37.19A26.31,26.31,0,0,1,764.76,1096.05Z"/><path class="cls-12" d="M741.48,1068.6l14.39-13,23.21,23-15.29,15.26a19.72,19.72,0,0,0,9.34-1.86c5.39-2.33,7.76-8.43,7.16-16.74s-8.61-18-20.13-20.7a22.06,22.06,0,0,0-15.54,2.82C743.26,1058.3,741.48,1060.47,741.48,1068.6Z"/><path class="cls-13" d="M760.28,1102.16a27.46,27.46,0,0,1-14.44-50.82,24.73,24.73,0,0,1,2.13-2,30.22,30.22,0,1,0,37,37.38A27.47,27.47,0,0,1,760.28,1102.16Z"/><path class="cls-12" d="M755.87,1052a26.53,26.53,0,1,1-26.53,26.53A26.56,26.56,0,0,1,755.87,1052m0-3.69a30.22,30.22,0,1,0,30.22,30.22,30.22,30.22,0,0,0-30.22-30.22Z"/><path class="cls-10" d="M757.59,1107a30.22,30.22,0,0,1-22.21-50.7,30.22,30.22,0,1,0,42.7,42.7A30.09,30.09,0,0,1,757.59,1107Z"/><path class="cls-14" d="M730.39,1066.69s8.41-15.9,22.71-15.9,30.59,7,30.23,29.16c-.67,12.58-8.13,22.19-21.15,25.13,0,0,10-.15,17.69-9.71s8.25-32-9.32-41.95C760.87,1048.75,741.14,1044.22,730.39,1066.69Z"/><path class="cls-10" d="M573.23,1260.2a30.22,30.22,0,1,0,30.22,30.22A30.22,30.22,0,0,0,573.23,1260.2Zm0,50.48L553,1290.42l20.25-20.25,20.26,20.25Z"/><path class="cls-11" d="M582.13,1307.92a26.07,26.07,0,0,1-5.55-.59l-3.35,3.35L553,1290.42l3.37-3.36a26.36,26.36,0,0,1,9-25.81,30.22,30.22,0,1,0,37,37.19A26.32,26.32,0,0,1,582.13,1307.92Z"/><path class="cls-12" d="M558.85,1280.48l14.38-13,23.22,23-15.3,15.26a19.76,19.76,0,0,0,9.34-1.85c5.4-2.34,7.77-8.44,7.17-16.75s-8.62-18-20.13-20.69A22,22,0,0,0,562,1269.2C560.62,1270.17,558.85,1272.34,558.85,1280.48Z"/><path class="cls-13" d="M577.65,1314a27.46,27.46,0,0,1-14.44-50.81,24.6,24.6,0,0,1,2.12-2,30.22,30.22,0,1,0,37,37.38A27.44,27.44,0,0,1,577.65,1314Z"/><path class="cls-12" d="M573.23,1263.9a26.53,26.53,0,1,1-26.53,26.52,26.56,26.56,0,0,1,26.53-26.52m0-3.7a30.22,30.22,0,1,0,30.22,30.22,30.22,30.22,0,0,0-30.22-30.22Z"/><path class="cls-10" d="M575,1318.92a30.22,30.22,0,0,1-22.21-50.71,30.22,30.22,0,1,0,42.7,42.7A30.12,30.12,0,0,1,575,1318.92Z"/><path class="cls-14" d="M547.75,1278.56s8.42-15.9,22.71-15.9,30.6,7,30.24,29.17c-.67,12.57-8.13,22.19-21.15,25.12,0,0,10-.14,17.68-9.71s8.25-32-9.32-42C578.23,1260.62,558.51,1256.09,547.75,1278.56Z"/><path class="cls-10" d="M905.48,1279.19A30.24,30.24,0,0,0,876.21,1317q6.57-2,12.56-4l-3.55-3.54,20.26-20.26,12.7,12.7c5.26-2.24,10-4.4,14.1-6.41A30.2,30.2,0,0,0,905.48,1279.19Z"/><path class="cls-11" d="M885.22,1309.41l3.37-3.37a26.84,26.84,0,0,1-.57-5.49,26.32,26.32,0,0,1,9.56-20.32A30.26,30.26,0,0,0,876.21,1317q6.57-2,12.56-4Z"/><path class="cls-12" d="M909.78,1285.37a21.93,21.93,0,0,0-15.54,2.82c-1.37,1-3.14,3.14-3.14,11.27l14.38-13L920.19,1301c2.45-1.07,4.77-2.1,7-3.12A27.74,27.74,0,0,0,909.78,1285.37Z"/><path class="cls-13" d="M882.44,1305.56a27.44,27.44,0,0,1,13-23.36,26.56,26.56,0,0,1,2.13-2A30.26,30.26,0,0,0,876.21,1317c2.65-.8,5.22-1.6,7.73-2.41A27.29,27.29,0,0,1,882.44,1305.56Z"/><path class="cls-12" d="M905.48,1279.19A30.24,30.24,0,0,0,876.21,1317l3.54-1.08A26.53,26.53,0,0,1,928.94,1297c1.15-.54,2.27-1.07,3.34-1.59A30.2,30.2,0,0,0,905.48,1279.19Z"/><path class="cls-10" d="M877,1307.68a30.13,30.13,0,0,1,8-20.49,30.27,30.27,0,0,0-8.78,29.76l2-.62A30.11,30.11,0,0,1,877,1307.68Z"/><path class="cls-14" d="M920.16,1284.28c-9.68-4.68-29.4-9.21-40.16,13.26,0,0,8.42-15.89,22.71-15.89,10.57,0,22.24,3.85,27.46,14.81l1.19-.57A27.55,27.55,0,0,0,920.16,1284.28Z"/><path class="cls-15" d="M801.53,984.35c-2-55.14-53.15-141.23-64.44-147-33.43.65-56.72,13.92-66.24,20.5-9.53-6.58-32.81-19.85-66.24-20.5-11.3,5.79-62.45,91.88-64.44,147,46.56,30.1,111.7,28,130.68,28C689,1012.38,755,1014.45,801.53,984.35Z"/><path class="cls-16" d="M793.83,944c-40.48,17.24-92.66,24.6-158.39,20.45-89.22-5.62-16.3-39.6-16.3-39.6s-2.19-5.29-19.22-3.08-28.67-4.37-18.17-24c9-16.78,25.37-50.67,29.93-60.14q-3.45-.25-7.07-.33c-11.3,5.79-62.45,91.88-64.44,147,46.56,30.1,111.7,28,130.68,28,18.18,0,84.12,2.07,130.68-28C801.09,972,798.19,958.18,793.83,944Z"/><path class="cls-17" d="M626.92,898.89s-15.66-7.75-20.51-11.64-8.94-1.76-15.34,9.31-7.77,19.22,10.87,14.17S634.62,900.83,626.92,898.89Z"/><path class="cls-17" d="M737.36,892.9s-85.63,37.05-108.29,47-32.3,12.27-17.23,15.09,76.69,3.74,112.22-2.47S781,946.87,774.15,925,759.05,883.52,737.36,892.9Z"/><path class="cls-1" d="M585.2,849.42s57,43.51,90.38,48.38c58.52-33.38,61.78-45,61.78-45Z"/><path class="cls-2" d="M675.58,897.8c11.79-6.72,21.34-12.57,29.07-17.61-32.25,10.83-69.41-15.37-69.41-15.37L599.92,860C619.08,873.19,652.82,894.48,675.58,897.8Z"/><path class="cls-3" d="M665.55,876.27s18.53,1.7,28.44-1C685.88,881.18,676.87,880.37,665.55,876.27Z"/><path class="cls-7" d="M680.14,901.19a9.93,9.93,0,0,0-6.56-12.41c-50.12-15.45-73.59-39.4-74-39.8a10.06,10.06,0,0,0-3.65-2.44c-3.17,4.23-6.83,9.71-10.75,16.11,1.29,1.36,27.09,28,82.53,45.1a9.93,9.93,0,0,0,12.41-6.56Z"/><path class="cls-8" d="M680.14,901.19a9.93,9.93,0,0,0-6.56-12.41c-1.25-.38-2.47-.77-3.68-1.16-10.13,3.09-23,5.27-33.19,1.17-19.83-8-44.45-29.94-44.45-29.94l-4.89.31c-.71,1.13-1.44,2.29-2.17,3.49,1.29,1.36,27.09,28,82.53,45.1a9.92,9.92,0,0,0,2.93.44l8.78-5.29A9.89,9.89,0,0,0,680.14,901.19Z"/><path class="cls-9" d="M615.59,874s18.43,12.52,29.63,13,14.35.7,2.8-4.79-15.49-6.65-21.1-7.46A81.82,81.82,0,0,0,615.59,874Z"/><path class="cls-7" d="M544.1,957.74c41.36-9.87,121.71-34.9,213-94-4-6.56-7.71-12.2-10.95-16.58-80.58,52-153.23,77-195.53,88.28C548.08,942.94,545.84,950.44,544.1,957.74Z"/><path class="cls-8" d="M555.93,945.75c3.73-7.46,26.88-11.72,85.17-35.86s91.35-54.07,91.35-54.07h0c-75.05,46.16-141.9,69-181.78,79.61-2.59,7.51-4.83,15-6.57,22.31q4.14-1,8.81-2.19A39,39,0,0,1,555.93,945.75Z"/><path class="cls-9" d="M703.38,883.52s-34.83,24.17-100.45,47.32c-35,11.71-49.89,18.9-31.68,15.17s76.5-27.06,116.43-48.13S727.07,870.8,703.38,883.52Z"/><path class="cls-8" d="M630.67,924.28c-16.89-10.5-32.58-22.31-33.56-23a1.87,1.87,0,1,1,2.25-3c.36.27,36.47,27.47,58.06,36.11a1.86,1.86,0,1,1-1.39,3.46C648.51,934.81,639.42,929.72,630.67,924.28Z"/><path class="cls-7" d="M660.65,938.53A8.26,8.26,0,1,1,658,927.16,8.26,8.26,0,0,1,660.65,938.53Z"/><path class="cls-8" d="M653.29,939.59a8.28,8.28,0,0,1-.6-13.62,8.26,8.26,0,1,0,5.9,14.81A8.28,8.28,0,0,1,653.29,939.59Z"/><ellipse class="cls-9" cx="656.05" cy="933.45" rx="4" ry="5.06" transform="translate(-308.63 324.25) rotate(-22.63)"/><circle class="cls-7" cx="600.52" cy="901.16" r="8.25"/><path class="cls-8" d="M600.17,906.58a8.27,8.27,0,0,1-2.66-11.37,8.4,8.4,0,0,1,2.06-2.25,8.26,8.26,0,1,0,5.9,14.81A8.28,8.28,0,0,1,600.17,906.58Z"/><path class="cls-9" d="M604.87,905.11c-2,.85-4.56-.56-5.63-3.13s-.3-5.36,1.74-6.21,4.56.55,5.64,3.13S606.91,904.26,604.87,905.11Z"/><path class="cls-8" d="M599,941.26c-16.9-10.5-32.58-22.3-33.56-23a1.86,1.86,0,1,1,2.25-3c.36.27,36.47,27.47,58.06,36.1a1.87,1.87,0,1,1-1.39,3.47C616.83,951.79,607.75,946.7,599,941.26Z"/><path class="cls-7" d="M629,955.51a8.25,8.25,0,1,1-2.66-11.36A8.27,8.27,0,0,1,629,955.51Z"/><path class="cls-8" d="M621.62,956.57A8.25,8.25,0,0,1,619,945.21,8.1,8.1,0,0,1,621,943a8.25,8.25,0,1,0,5.9,14.8A8.15,8.15,0,0,1,621.62,956.57Z"/><path class="cls-9" d="M626.32,955.1c-2,.85-4.56-.55-5.63-3.13s-.3-5.35,1.74-6.2,4.56.55,5.63,3.13S628.36,954.25,626.32,955.1Z"/><path class="cls-7" d="M575.86,922.5a8.25,8.25,0,1,1-2.66-11.37A8.26,8.26,0,0,1,575.86,922.5Z"/><path class="cls-8" d="M568.5,923.56a8.26,8.26,0,0,1-2.66-11.37,8.39,8.39,0,0,1,2.06-2.25,8.26,8.26,0,1,0,5.9,14.81A8.21,8.21,0,0,1,568.5,923.56Z"/><path class="cls-9" d="M573.2,922.09c-2,.85-4.56-.55-5.63-3.13s-.3-5.35,1.74-6.2,4.56.55,5.63,3.13S575.24,921.24,573.2,922.09Z"/><path class="cls-18" d="M910.41,972.49C904,937.76,860,901.35,860,901.35c-56.25-41.21-107.49-45.53-107.49-45.53l-.12.36c14.92,23,35.33,62.83,44.45,98.6h0L762.34,976l-33.18,96.66s48.31,3.59,100.61-10S916.8,1007.23,910.41,972.49Z"/><path class="cls-19" d="M779.63,1033.14c2.9-19.49,4.56-49.77,15.34-56.11s26.54-6.1,47.7,5.3c-3.74-13.89-32.35-18-30.28-24.59s40.64-2.8,40.64-2.8-12.85-5.57-27.37-4.5-10.78-4.39-24.13-33c-7.84-16.82-20.35-41-29.52-58a140.17,140.17,0,0,0-19.47-3.61l-.12.36c14.92,23,35.33,62.83,44.45,98.6h0L762.34,976l-33.18,96.66a345.09,345.09,0,0,0,73.86-4.34C786,1061.27,777.48,1047.56,779.63,1033.14Z"/><path class="cls-20" d="M805.85,893s8.89,17.55,12.07,30.85,9.53,13.93,23.18,16.79,27.63,9.57,32.4,20.51c-19.37-1.77-53.67-1.77-43.51,2s28.26,21.28,28.58,36.2c-29.85-14.92-54-21.27-58.12,0s-7.3,55.27,17.47,52.09,75-24.06,79.08-63.35c1.91-28.75-26.36-69.81-53.67-85.64S797.8,874.66,805.85,893Z"/><path class="cls-1" d="M722.48,974.92s-13.11-29.3-26.17-40.8-26.77-.84-26.77,38.71-2,78.47,36.2,82.65C718.29,1000,722.48,974.92,722.48,974.92Z"/><path class="cls-2" d="M677.75,957.24c0-10.32.93-18.67,2.54-25.17-6.27,5-10.75,18.15-10.75,40.76,0,39.55-2,78.47,36.2,82.65q1.95-8.62,3.64-16.28C675.92,1032.47,677.75,995.15,677.75,957.24Z"/><path class="cls-3" d="M686.35,954.94s.64,46.57,3.64,58.44,10,10.66,14.66-14.06,5.22-34.37-3.82-46.13S686,939.83,686.35,954.94Z"/><path class="cls-15" d="M719.86,968.64s-16.22,67-21.45,88.41,24.07,20.93,40.81,22,18.21-23.21,23.54-51.26,14.65-56.5-10.46-61.73C731.89,961.32,722.73,956.8,719.86,968.64Z"/><path class="cls-16" d="M739.22,1079c6.91.43,11.22-3.45,14.28-10.14-28.38-3.49-38.47-13.52-33.77-32,3.86-15.2,13.65-53.81,18.82-74.2-11-2.6-16.57-2.79-18.69,6,0,0-16.22,67-21.45,88.41S722.48,1078,739.22,1079Z"/><path class="cls-17" d="M743.64,984.85s-8.82,36.78-11.19,47-3.28,13.57,3.35,19.3,13.38,2.11,17.7-18.39,10.83-48.55,3.65-53.07S745.75,976,743.64,984.85Z"/><path class="cls-18" d="M544.83,954.79h0c9.16-36,29.74-76.07,44.68-99-.41,0-51.47,4.48-107.49,45.53,0,0-44,36.41-50.38,71.14s28.34,76.66,80.64,90.23,100.61,10,100.61,10L579.71,976Z"/><path class="cls-19" d="M513.16,984.92c7-9.13,24.76-20.2,38.25-26.12l-6.58-4s-24.62-.89-47.17,9.68a224.06,224.06,0,0,1,39.82-4.85S516.33,966.94,513.16,984.92Z"/><path class="cls-19" d="M431.64,972.49c-6.39,34.74,28.34,76.66,80.64,90.23s100.61,10,100.61,10l-7.42-21.6c-31.58,4.25-66.65,3.36-89.86-7.81C467.27,1020,439.52,988.68,471.3,938s118.21-82.13,118.21-82.13c-.41,0-51.47,4.48-107.49,45.53C482,901.35,438,937.76,431.64,972.49Z"/><path class="cls-20" d="M567.19,875.27s-25,35.66-30.94,68.72c-31.71,1.34-50,19-52.86,27.26,7.05-3,29.25-3.23,29.25-3.23a50.85,50.85,0,0,0-7.75,33.34c6.69-5.64,28.19-25.37,37.35-27.84s18.33-.81,19.74,14.57,6.87,41.63,6.87,41.63,7.57,14.64-13.92,13.93-74.36-24.31-82.46-53.21S487.13,912,567.19,875.27Z"/><path class="cls-1" d="M619.22,974.92s13.1-29.3,26.17-40.8,26.77-.84,26.77,38.71,2,78.47-36.2,82.65C623.41,1000,619.22,974.92,619.22,974.92Z"/><path class="cls-2" d="M645.7,1036.71c-5.38-12.36-12.41-59.1-7.43-74.17,3.26-9.85,10.93-24.07,15.86-32.75-2.84.28-5.81,1.74-8.74,4.33-13.07,11.5-26.17,40.8-26.17,40.8s4.19,25.11,16.74,80.56c9.86-1.08,17-4.47,22.27-9.6C653.14,1044.79,648.07,1042.16,645.7,1036.71Z"/><path class="cls-3" d="M652.28,951.16s-8.95,8.56-6.58,41.48,12.84,54.88,18.34,17.53S661.93,932.54,652.28,951.16Z"/><path class="cls-15" d="M621.84,968.64s16.21,67,21.44,88.41-24.06,20.93-40.8,22-18.22-23.21-23.54-51.26S564.29,971.26,589.4,966C609.8,961.32,619,956.8,621.84,968.64Z"/><path class="cls-16" d="M595.81,1044.07c-5.79-21.63-10.3-57-12.45-76-17.4,8.43-9.26,34.25-4.42,59.74,5.32,28,6.8,52.31,23.54,51.26,15.46-1,41.62-.59,41.42-17.42C625.64,1066,601.72,1066.15,595.81,1044.07Z"/><path class="cls-17" d="M595.81,986.66s5.1,30.15,7.12,43.72,11,24.58,19,25.1,10-6.41,4.95-28.72-10.7-56.69-18.15-55.48S594.12,976.62,595.81,986.66Z"/><path class="cls-21" d="M1088.8,538.45s83.28,80.55-9.68,168.6c23.61,61.91,162.89,94.12,229.05,88,50.48-102.72,86-343-211.6-347.32C1096.64,503.46,1088.8,538.45,1088.8,538.45Z"/><path class="cls-22" d="M1183.34,745.61c-55.88-30.07-35.25-153.14-15.52-194.58,12.83-26.95,15.33-68.19,15.51-93.73-25.15-5.72-53.93-9.07-86.76-9.55.07,55.71-7.77,90.7-7.77,90.7s83.28,80.55-9.68,168.6c23.61,61.91,162.89,94.12,229.05,88a307.5,307.5,0,0,0,12.51-29.38C1276.22,770.24,1220,765.31,1183.34,745.61Z"/><path class="cls-23" d="M1205.76,524.32s-18.77,34-25.22,81.51-7.62,108.49,54,128.42,97.93-19.76,83.85-109.86S1229.8,467.44,1205.76,524.32Z"/><path class="cls-15" d="M1088.8,538.45s7.84-35,7.77-90.7a465.43,465.43,0,0,1,55.57,4c.45,31.07-4,86.34-36.06,129.89A129.32,129.32,0,0,0,1088.8,538.45Z"/><path class="cls-16" d="M1120.49,529.51a270,270,0,0,0,7.35-80.36q-13.41-1-27.87-1.34l-3.46,9.18c-.74,50.31-7.71,81.46-7.71,81.46a129.32,129.32,0,0,1,27.28,43.15,158.45,158.45,0,0,0,11.36-17.88C1115.75,556.12,1116.38,546.34,1120.49,529.51Z"/><path class="cls-17" d="M1133.87,467.76s.74,30.67-7.3,62.58,1.08,25.7,9.78-10.36,12-61.75,5-64.24S1133.87,463.19,1133.87,467.76Z"/><path class="cls-21" d="M253.25,538.45S170,619,262.93,707.05c-23.61,61.91-162.89,94.12-229,88-50.49-102.72-86-343,211.59-347.32C245.42,503.46,253.25,538.45,253.25,538.45Z"/><path class="cls-22" d="M262.93,707.05q-4.31-4.09-8.13-8.15C144,790.86,41.61,741.82,48,627.49c4.2-75.68,47.4-130.25,81.65-162C-40.74,523.5-8.75,708.33,33.89,795.07,100,801.17,239.32,769,262.93,707.05Z"/><path class="cls-23" d="M131.47,509.17s-45.95,40-48.12,112.74,36.22,103.14,83.31,93.72,36.94-19,33.32-63.45,3.71-56.06-10.1-103.88S162.92,485.26,131.47,509.17Z"/><path class="cls-15" d="M253.25,538.45s-7.83-35-7.77-90.7a465.59,465.59,0,0,0-55.57,4c-.45,31.07,4,86.34,36.06,129.89A129.5,129.5,0,0,1,253.25,538.45Z"/><path class="cls-16" d="M208.67,520.76C196.81,494.82,195.34,468,196,450.93q-3.08.36-6.11.78c-.45,31.07,4,86.34,36.06,129.89a129.5,129.5,0,0,1,27.28-43.15C232.63,558.31,228.23,563.51,208.67,520.76Z"/><path class="cls-17" d="M203.45,466.76a164.72,164.72,0,0,0,12,56.22c11.93,28.58,14.77,28.11,6.09-11s-5.13-54.27-11.27-55.57S203.11,460.05,203.45,466.76Z"/><path class="cls-1" d="M259,548.3h0c-24,0-43.52,23.25-43.52,51.94S235,652.18,259,652.18a35.34,35.34,0,0,0,8.71-1.08C262.81,616.36,259.44,581.06,259,548.3Z"/><path class="cls-2" d="M224.22,585.32a60.36,60.36,0,0,1,4-21.81c-7.88,9.39-12.75,22.38-12.75,36.73,0,28.68,19.49,51.94,43.52,51.94a35.34,35.34,0,0,0,8.71-1.08c-.65-4.62-1.28-9.26-1.87-13.89C242.68,636,224.22,613.24,224.22,585.32Z"/><path class="cls-3" d="M252.75,612.34s-4.07-22.27-2.5-37.32-6.28-15.37-11.92-6.59-6.64,29.48,3.26,43.91S255.89,623.31,252.75,612.34Z"/><path class="cls-1" d="M1083.92,548.31c-.4,32.81-3.79,68.18-8.69,103a33.2,33.2,0,0,0,7.82.9c24,0,43.52-23.26,43.52-51.94C1126.57,571.9,1107.55,548.86,1083.92,548.31Z"/><path class="cls-2" d="M1111.94,639.08c-13.28,5.28-19.27-11-18.31-25.87.81-12.81,1.82-44.89,2.35-62.58a37.11,37.11,0,0,0-12.06-2.32c-.4,32.81-3.79,68.18-8.69,103a33.2,33.2,0,0,0,7.82.9C1094.14,652.18,1104.26,647.23,1111.94,639.08Z"/><path class="cls-3" d="M1103.09,577.08v37.13c0,15.82,11,12.66,14.34-5.7s-.43-30.16-5.49-36.91S1103.09,567,1103.09,577.08Z"/><path class="cls-1" d="M988.94,405.55c2-29.7.38-70.3-10.76-96.51-1.79,34.64-11.51,58.69-18.42,71.69-32.85-24.64-72.25-44.54-116.29-58.87-.2-27.1-4.38-63.77-28.58-81.72,5.85,25.13,4.45,55,2.54,74.05-45.16-12-94.5-18.36-146.17-18.36a577.45,577.45,0,0,0-134.34,15.38c-7.43-24.73-14.87-69.42-2.36-106.94C506.7,230,499.92,293,498.28,322.12a445.27,445.27,0,0,0-51.18,20.24c-8.49-26.13-9.59-65.65-8.82-90.9-17.89,27.59-27.54,88.16-30.81,112.39-78.67,48.95-128,121.68-128,209.39,0,165.35,175.43,299.38,391.83,299.38s391.84-134,391.84-299.38C1063.1,507.78,1035.6,450.67,988.94,405.55Z"/><path class="cls-2" d="M671.26,872.62c137.49,0,258.44-54.1,328.37-136-100.9,60.76-249.1,95.86-414.32,48C376,723.91,360.88,507,368.41,392.16c-55.6,47-89,109-89,181.08C279.43,738.59,454.86,872.62,671.26,872.62Z"/><path class="cls-3" d="M444.35,518.33S453,715.1,683.23,746.18s315.13-82,320.92-182.67-138.8-210.57-292.63-214S434,383.05,444.35,518.33Z"/><path class="cls-21" d="M1075.67,648.11c0-.13,0-.25,0-.38.06-.39.11-.78.16-1.17,0-.17,0-.34.07-.52s.09-.65.14-1,.05-.39.08-.59c0-.35.09-.69.13-1,0-.16,0-.31.07-.47l.18-1.4,0-.11.42-3.2,0-.23c0-.42.1-.85.16-1.27l.07-.53.12-1c0-.18.05-.36.07-.54,0-.38.1-.75.14-1.13,0-.14,0-.27.05-.41,0-.41.11-.82.16-1.23l0-.32.39-3.17,0-.22c0-.41.09-.82.14-1.24,0-.2,0-.4.07-.6l.12-1,.06-.49.12-1.06.06-.53.12-1,.06-.51c2.82-25,4.64-49.88,4.93-73.42a38.09,38.09,0,0,1,20.68,6.79,424.06,424.06,0,0,0,16.89-118.79C1121.49,195.34,919.92,0,671.26,0S221,195.34,221,436.31a424.18,424.18,0,0,0,16.81,118.53A38,38,0,0,1,259,548.3h0A747.84,747.84,0,0,0,264.12,623c0,.24.06.49.08.73l.09.78.09.76.09.75.09.78c0,.31.07.62.11.92s0,.37.07.56c.05.49.11,1,.17,1.47l.09.7c0,.27.06.54.1.81l.08.7c0,.3.08.6.11.9l.09.67.09.71c0,.3.07.6.11.9l.09.71.09.7c0,.28.07.55.1.82s.1.79.16,1.19.09.7.13,1l.06.41c0,.34.09.69.13,1s.07.51.1.76.07.54.11.82l.09.68c0,.27.07.54.11.82s.07.5.1.75.08.54.11.81l.09.65.15,1.09.06.45.21,1.46c0,.26.07.51.1.77s.07.48.1.72c15.47,109.92,46.2,214.21,46.2,214.21s47.42,7.44,85.54-25.11c-99.48-137.6-110.34-331.83-110.34-331.83h0c18-58.76,60.17-108,118.42-144.29,3.27-24.23,12.92-84.8,30.81-112.39-.77,25.25.33,64.77,8.82,90.9a445.27,445.27,0,0,1,51.18-20.24C499.92,293,506.7,230,534.56,204.27c-12.51,37.52-5.07,82.21,2.36,106.94a577.45,577.45,0,0,1,134.34-15.38c51.67,0,101,6.39,146.17,18.36,1.91-19.08,3.31-48.92-2.54-74.05,24.2,17.95,28.38,54.62,28.58,81.72,44,14.33,83.44,34.23,116.29,58.87,6.91-13,16.63-37.05,18.42-71.69,11.14,26.21,12.73,66.81,10.76,96.51,30.74,29.72,53.16,64.65,64.88,103.73-1.08,16.21-15.26,199.27-110.27,330.68,38.12,32.55,85.54,25.11,85.54,25.11s30.66-104,46.14-213.8C1075.38,650.22,1075.52,649.17,1075.67,648.11Z"/><path class="cls-22" d="M499.73,303.74A171.58,171.58,0,0,1,472,310.69c-23.33,3.73-33.68-59.23-33.68-59.23-.77,25.25.33,64.77,8.82,90.9a445.27,445.27,0,0,1,51.18-20.24C498.57,316.93,499,310.67,499.73,303.74Z"/><path class="cls-22" d="M259,548.3h0s-18.46-83.67,29.12-239.48C343.6,108.9,575.8,18.64,621.53,2.63,396.28,26.62,221,211.63,221,436.31a424.18,424.18,0,0,0,16.81,118.53A38,38,0,0,1,259,548.3Z"/><path class="cls-22" d="M264.2,623.76l.09.78.09.76.09.75.09.78c0,.31.07.62.11.92s0,.37.07.56c.05.49.11,1,.17,1.47l.09.7c0,.27.06.54.1.81l.08.7c0,.3.08.6.11.9l.09.67.09.71c0,.3.07.6.11.9l.09.71.09.7c0,.28.07.55.1.82s.1.79.16,1.19.09.7.13,1l.06.41c0,.34.09.69.13,1s.07.51.1.76.07.54.11.82l.09.68c0,.27.07.54.11.82s.07.5.1.75.08.54.11.81l.09.65.15,1.09.06.45.21,1.46c0,.26.07.51.1.77s.07.48.1.72c15.47,109.92,46.2,214.21,46.2,214.21s47.42,7.44,85.54-25.11q-5.76-8-11.12-16.15C361,834.38,332.4,835.36,319.88,807,302.16,766.91,259,548.3,259,548.3A747.84,747.84,0,0,0,264.12,623C264.15,623.27,264.18,623.52,264.2,623.76Z"/><path class="cls-22" d="M671.26,295.83c51.67,0,101,6.39,146.17,18.36.55-5.52,1.06-11.94,1.37-18.89-37.65-16.66-157.49-30-219-21-70,10.27-65.22-70-65.22-70-12.51,37.52-5.07,82.21,2.36,106.94A577.45,577.45,0,0,1,671.26,295.83Z"/><path class="cls-22" d="M1029.09,865.07s1.77-6,4.68-16.69c-61.93-10.22-31.74-41.48-12.29-97,21.46-61.21,56-220.56,41.62-260.68s-47.22-85.83-52.82-109.15S999.09,335,978.18,309c11.14,26.21,12.73,66.81,10.76,96.51,30.74,29.72,53.16,64.65,64.88,103.73-1.08,16.21-15.26,199.27-110.27,330.68C981.67,872.51,1029.09,865.07,1029.09,865.07Z"/><path class="cls-22" d="M966.62,365.62C951.18,352.87,914.83,330,889,318.15c-32.66-14.92-41-70.9-74.11-78,24.2,17.95,28.38,54.62,28.58,81.72,44,14.33,83.44,34.23,116.29,58.87A138.18,138.18,0,0,0,966.62,365.62Z"/><path class="cls-23" d="M288.16,376.89s-35.28,85.41-8.73,224.18S326,797.73,335.67,807.38s29.69,11.88,10.39-26-65.72-158.83-66.63-286.5c15.41-52.7,50.3-114.66,111.16-145.65,3.71-55.49,29.69-123.87,66.06-145-5.19,27.14-1.12,63.51,8.35,79.1s20.6,8.88,23.57-24.14,31.91-79,66.8-91.65c-2.23,39.34-8.17,90.58,46,83.88s172.78,7.11,195.2,16.32c6.68-30.43,0-63.51,0-63.51s44.37,6.36,66.72,43.47S887.15,291.67,922,309s37.86,21.09,37.86,21.09S970.36,296,964.75,267c44.86,31.91,56,67.54,62.68,95s23.09,45.23,35.67,70.86,22.22,87.51-5.24,215.41-41.57,162-41.57,162-4.45,12.62,3.72,18.56,19-39.34,30.63-95,28.74-139.54,29.49-204.11c11.13.74,14.82,13.36,20.77-14.11s20.79-171.81-48.24-275.54S873.79,45.85,719.4,27.3c-127.33-13.36-250.13,68.28-306.54,124S303.35,310.41,288.16,376.89Z"/><path d="M482.66,581.29a8.28,8.28,0,0,1-8.17-7c-2-12.86-11.17-22.19-21.7-22.19s-19.65,9.33-21.69,22.19a8.28,8.28,0,1,1-16.35-2.6c3.33-21,19.33-36.15,38-36.15s34.72,15.2,38,36.15a8.27,8.27,0,0,1-8.18,9.58Z"/><path d="M426.16,580.1l-32.85-6.55a4.73,4.73,0,1,1,1.85-9.28l22,4.4.1-2.16-19.86-14a4.73,4.73,0,0,1,5.46-7.73l24.08,17Z"/><path d="M859.4,581.29a8.28,8.28,0,0,0,8.16-7c2.05-12.86,11.17-22.19,21.7-22.19s19.65,9.33,21.69,22.19a8.28,8.28,0,1,0,16.35-2.6c-3.32-21-19.32-36.15-38-36.15s-34.72,15.2-38,36.15a8.27,8.27,0,0,0,8.19,9.58Z"/><path d="M915.89,580.1l32.85-6.55a4.73,4.73,0,1,0-1.85-9.28l-22,4.4-.1-2.16,19.86-14a4.73,4.73,0,0,0-5.46-7.73l-24.08,17Z"/><path class="cls-5" d="M671,588.63c-29.09,0-55.78-8.1-76.66-21.6q-.35,4.4-.34,8.89c0,51.49,34.49,93.22,77,93.21s77-41.76,77-93.25c0-3-.12-6-.34-8.88C726.8,580.51,700.12,588.62,671,588.63Z"/><path class="cls-24" d="M728.89,637.41a73.14,73.14,0,0,0-9.69-11.83c-20.81-20.79-47-20.25-81.85-13-27,5.66-30.82-24.84-31.17-38.86A124.64,124.64,0,0,1,594.37,567q-.35,4.4-.34,8.89c0,51.49,34.49,93.22,77,93.21C694.1,669.13,714.79,656.85,728.89,637.41Z"/><path class="cls-4" d="M736,584.61s-31,11.95-65.92,11.12-52.88-9.61-52.88-9.61-1.46,22.37,23.2,19.23,55.81-10.26,77.76,7.92c9.41,9.62,11.5,2.51,16.3-4.6S743.58,581,736,584.61Z"/><path class="cls-25" d="M671.05,669.13c19.82,0,37.88-9.07,51.53-24-8.74-18-28.53-30.63-51.55-30.62s-42.8,12.6-51.52,30.64C633.16,660.07,651.23,669.14,671.05,669.13Z"/><path class="cls-26" d="M722.58,645.16c-.29-.6-.6-1.19-.91-1.77C707.09,654.61,689.26,663.06,671,659c-26-5.87-34.62-20.57-37.37-31.46a51.91,51.91,0,0,0-14.16,17.69c13.65,14.89,31.72,24,51.54,24S708.93,660.06,722.58,645.16Z"/><path class="cls-27" d="M656.26,640.72s6.49,10.81,35.39,9.18c18.37-2.17,20.26-15.68,8.1-22.43s-27.83-8.09-43.49-4.58C649,624.79,649,633.7,656.26,640.72Z"/><path class="cls-25" d="M373,584.19a69.44,69.44,0,0,0-64.7,44.22A753.54,753.54,0,0,0,332.58,710,69.43,69.43,0,1,0,373,584.19Z"/><path class="cls-25" d="M1010.71,709.13a754.89,754.89,0,0,0,23.57-79.24,69.44,69.44,0,1,0-23.57,79.24Z"/><path class="cls-7" d="M1137.53,372.24A29.53,29.53,0,0,0,1108,342.72a30.38,30.38,0,0,0-4.4.33v-.33a29.52,29.52,0,0,0-59,0c0,.47,0,.94,0,1.4a29.53,29.53,0,0,0-20.23,55.43,29.52,29.52,0,1,0,49.5,32.19,29.52,29.52,0,1,0,48.45-33.67A29.51,29.51,0,0,0,1137.53,372.24Zm-59-.32c0,.11,0,.22,0,.32a29.36,29.36,0,0,0,6,17.8,29.55,29.55,0,0,0-10.59,9.95,29.69,29.69,0,0,0-13.65-11.43,29.41,29.41,0,0,0,4.91-16.32c0-.46,0-.93,0-1.39a29.31,29.31,0,0,0,9,1.39A30.52,30.52,0,0,0,1078.49,371.92Z"/><path class="cls-8" d="M1124.7,430c-22.32,17.34-47.46.9-51.08-8.18-5,11.56-32.49,18-39.39,1.42a34.19,34.19,0,0,1,2-30.21s-17.43-7.5-15.81-23.92,26-18.85,35.68-14c-3-25,14.2-36.94,23.17-41.41a30,30,0,0,0-5.22-.46,29.52,29.52,0,0,0-29.52,29.52c0,.47,0,.94,0,1.4a29.53,29.53,0,0,0-20.23,55.43,29.52,29.52,0,1,0,49.5,32.19A29.53,29.53,0,0,0,1124.7,430Z"/><path class="cls-9" d="M1059,362.17s-21.68-5-28.53,5.93c-3,5,3.71,16.11,15.19,21.67-6.3,13.52-7.69,30,4.21,33.72s23.78-11.67,23.78-11.67,15.36,24.82,39.26,15.93c11.48-5.74,4.44-30.38-1.48-34.64,14.82-3.89,20.93-16.86,16.3-25.94s-8.56-18.71-30.31-14.64c1.41-12.59-1.74-28.71-16-28.15S1060.08,347.72,1059,362.17Z"/><circle class="cls-15" cx="1073.62" cy="383.1" r="23.78"/><path class="cls-16" d="M1082.17,397a23.78,23.78,0,0,1-21.54-33.84,23.78,23.78,0,1,0,34.53,30A23.64,23.64,0,0,1,1082.17,397Z"/><ellipse class="cls-17" cx="1078.73" cy="377.58" rx="9.73" ry="13.28" transform="translate(168.81 1069.15) rotate(-56.53)"/></g></g></svg>