<svg xmlns="http://www.w3.org/2000/svg" viewBox="0 0 1647.07 1634.15"><defs><style>.cls-1{fill:#ffddb0;}.cls-2{fill:#ffd19f;}.cls-3{fill:#ffe6c7;}.cls-4{fill:red;}.cls-5{fill:#e20000;}.cls-6{fill:#ff5050;}.cls-7{fill:#edc932;}.cls-8{fill:#dbb619;}.cls-9{fill:#ffdf57;}.cls-10{fill:#c6a20e;}.cls-11{fill:#ffe783;}.cls-12{fill:#af0000;}.cls-13{fill:#930000;}.cls-14{fill:#ce0505;}.cls-15{fill:#333;}.cls-16{fill:#212121;}.cls-17{fill:#474747;}.cls-18{fill:#ff9b9b;}.cls-19{fill:#7c0000;}.cls-20{fill:#f29c9c;}.cls-21{fill:#ed8c8c;}.cls-22{fill:#f9b2b2;}.cls-23{fill:#ffe815;}.cls-24{fill:#ffce00;}.cls-25{fill:#fff085;}.cls-26{fill:#ffb627;}.cls-27{fill:#ff9e29;}.cls-28{fill:#ffbf61;}.cls-29{fill:#edcd4a;}.cls-30{fill:#b20000;}.cls-31{fill:#ffe471;}.cls-32{fill:#efd154;}</style></defs><title>Asset 2</title><g id="Layer_2" data-name="Layer 2"><g id="Layer_1-2" data-name="Layer 1"><path class="cls-1" d="M358,970.91s-47.64-33.25-87.55,12.3-16.73,143.35,54.72,146C366.34,1016,358,970.91,358,970.91Z"/><path class="cls-2" d="M285.21,969.9a79.76,79.76,0,0,0-14.78,13.31c-39.9,45.55-16.73,143.35,54.72,146q5.31-14.62,9.57-27.74C279.86,1088.79,260.36,1015.08,285.21,969.9Z"/><path class="cls-3" d="M292.86,997.86s-3.38,15.65,0,38.07,4.17-5.5,14-26.23,23.54-34.26,13.34-36.38S296.15,978,292.86,997.86Z"/><path class="cls-4" d="M654.86,1052.14S463.48,1036.35,362,943.22c-60.61,61.22-89.51,225.15-64.84,303.17,80.34,20.92,226.67,17.12,262-24C668.56,1097.47,682.74,1070.23,654.86,1052.14Z"/><path class="cls-5" d="M559.2,1222.42l4.2-4.8c-154.17,29.61-165.41-12-159.54-83.43,4.5-54.72,24.93-112.21,35.85-139.75-28.28-13.72-55.21-30.56-77.71-51.22-60.61,61.22-89.51,225.15-64.84,303.17C377.5,1267.31,523.83,1263.51,559.2,1222.42Z"/><path class="cls-6" d="M443.2,1090.2s-6.21,30.49-6.21,62.94,14.5,39.54,35.89,43.24,27.93-22.21,56.76-53.09,79-72.29,41.5-77.82-67.19-15.59-87.9-21.25S452.87,1050.74,443.2,1090.2Z"/><path class="cls-7" d="M411.6,979.42a293.15,293.15,0,0,1-49.6-36.2c-60.61,61.22-89.51,225.15-64.84,303.17,19.22,5,42.2,8.59,66.55,10.59C341.06,1134.93,389.44,1022.58,411.6,979.42Z"/><path class="cls-8" d="M375.75,955q-7.11-5.65-13.75-11.74c-60.61,61.22-89.51,225.15-64.84,303.17,19.22,5,42.2,8.59,66.55,10.59q-1.83-9.82-3-19.56c-44.3-5.53-52.94-34.1-44.46-122.21C323.67,1037.46,357.52,980.57,375.75,955Z"/><path class="cls-9" d="M364.72,1004.85s-40.72,82.47-35.93,172c3.3,50.22,17,31.45,17.77-6.28s9.18-100.16,26.54-138.11C389.87,996.32,388.67,961.87,364.72,1004.85Z"/><path class="cls-1" d="M1229.26,1119.41s45.41-20,74.65,8,13.06,162.41-89.58,158C1213.08,1157.35,1229.26,1119.41,1229.26,1119.41Z"/><path class="cls-2" d="M1286.31,1256.61c-16.2,7-27.22-7-22.71-44.58,4-33,1-72.88-2-99.5a96,96,0,0,0-32.31,6.87s-16.18,37.95-14.93,166.1C1246.29,1286.86,1269.87,1274.76,1286.31,1256.61Z"/><path class="cls-3" d="M1278.86,1154.67a309.86,309.86,0,0,1,0,57.36c-2.91,32.43,10.54,28.16,20-2.42s6.55-59.3-2.9-71.66S1277.57,1126,1278.86,1154.67Z"/><path class="cls-4" d="M917.59,1064.66s155.52,46,313.53,35.46c29.24,61.59-1.24,225.82-21.77,254.43-65.94-12.44-223.2-54.89-278.69-129.46C890.22,1144.29,884.62,1080.21,917.59,1064.66Z"/><path class="cls-5" d="M1048.57,1261.09c-67.94-41.7-88.87-134.23-95.32-187.28-22.52-5.26-35.66-9.15-35.66-9.15-33,15.55-27.37,79.63,13.07,160.43,50.08,67.29,183,108.43,257,125l5.14-34.41S1146.75,1321.36,1048.57,1261.09Z"/><path class="cls-6" d="M1000.12,1143.4s16.44,64.57,81.08,103c42,27.07,49,10.88,52.76-28s9.17-89.65-21-91-77.71-12.39-90.67-15S985,1108.39,1000.12,1143.4Z"/><path class="cls-7" d="M1160.59,1101.4c4.92,36.4,11.74,126.3-18.25,237.2,26.28,7.39,49.77,12.7,67,16,20.53-28.61,51-192.84,21.77-254.43C1207.38,1101.71,1183.7,1102,1160.59,1101.4Z"/><path class="cls-8" d="M1181.45,1259.81c8.64-60.82,2.88-125.51-1.22-158.11q-9.87,0-19.64-.3c4.92,36.4,11.74,126.3-18.25,237.2,26.28,7.39,49.77,12.7,67,16,2.81-3.91,5.8-10.37,8.81-18.75C1197.06,1327.68,1174.62,1307.88,1181.45,1259.81Z"/><path class="cls-9" d="M1202,1146.1s7.55,41.64,0,115,14,42.6,21.31-6,4.47-99.35.75-116.06S1198.66,1101.29,1202,1146.1Z"/><path class="cls-4" d="M654.86,1052.14s-133.42,107.07-205.65,326.32c-32.3,96-39.09,158.92-39.09,158.92S520.59,1617.26,703.3,1630s257.49-6.8,292.34-19.55c-9.35-50.14-17-111.32-17-111.32s34,52.69,46.74,75.63,17.84,17.85,36.54,6,68.84-61.19,61.19-150.42c-22.95-6.8-61.19-34.84-119-123.22s-85.83-158.91-82.43-254.94C775.84,1024.77,654.86,1052.14,654.86,1052.14Z"/><path class="cls-5" d="M1081.2,1403.52c-7.54,7-18.06,17.14-32.63,31.63-41.45,41.25-69.47,22-69.47,22s-20.43,25.69-59.3,50c-24.26-45.42-91.66-30-91.66-30s-.4,23.29-44,43.16c-20.47-39.25-82.1-46.45-82.1-46.45s-6.12,15.72-48.93,30c-7.86-47.95-73.58-56-73.58-56s-20.87,7.58-61.76,34.14c1.57-33.07-28.58-70-40.2-82.76s12.19-40.76,12.19-40.76,163,55.42,246,70.16,256.35-41.73,256.35-41.73l47.07-30.17c-8.76-11.33-18.11-24.27-28.07-39.07-20.94,13.17-60.78,33.11-122.58,44.11-97.74,17.39-205.35,14.72-280.79-22.08s-64.39-91.66-30.94-157.9,99-129.12,99-129.12l-1.38-4.17c-12.65,2-19.64,3.61-19.64,3.61s-133.42,107.07-205.65,326.32c-32.3,96-39.09,158.92-39.09,158.92S520.59,1617.26,703.3,1630s257.49-6.8,292.34-19.55c-9.35-50.14-17-111.32-17-111.32s34,52.69,46.74,75.63,17.84,17.85,36.54,6,68.84-61.19,61.19-150.42C1112.53,1427.17,1098.7,1419.52,1081.2,1403.52Z"/><path class="cls-6" d="M604.83,1174.49s-24.72,45.24-24.72,86.6,51.86,75,153.65,84.11,250.59-14.15,229.75-60.69-42.74-78.48-51.18-116.79-3.66-59.4-48.46-51.28S734.25,1119.23,709,1110,656.21,1086.27,604.83,1174.49Z"/><path class="cls-6" d="M523.58,1439.24s32.41-8.8,73.2,4.51,52.59,27,52.59,27,21-13.3,56.46-7.51S769.59,1486,769.59,1486s24-19.54,65.26-21.9,69.06,10.95,69.06,10.95,16.8-23.1,51.8-26.36,40.57,5.19,55.38,0,13.31-12.63,19.32-25.66,8.37-15.17,14.81-22,6.3-16.75-6.72-5.8-37.93,30.27-107.48,47.23S785.08,1461,742.88,1459.8s-108.51-9.83-165.73-28.93-77.69-32.85-82.91-35.64-15.53-3.22-8.87,2.58S518.86,1425.72,523.58,1439.24Z"/><path class="cls-9" d="M972.58,1460.25a70.56,70.56,0,0,0-16.68.09c-39.48,4.85-67.47,41.38-62.53,81.59s41,68.88,80.43,64a71.06,71.06,0,0,0,20-5.51c-8.5-47.91-15.17-101.31-15.17-101.31S975,1476.71,972.58,1460.25Z"/><path class="cls-7" d="M976.12,1483.49a54.58,54.58,0,0,0-17.45-.64c-28.95,3.56-49.65,29-46.24,56.74s29.65,47.41,58.6,43.85a54.83,54.83,0,0,0,18.91-5.91c-6.57-40.55-11.3-78.39-11.3-78.39S977.52,1492.34,976.12,1483.49Z"/><path class="cls-8" d="M979.39,1505A38.47,38.47,0,1,0,989,1571.7C984.43,1542.91,980.87,1516.37,979.39,1505Z"/><path class="cls-7" d="M973.8,1606a71.06,71.06,0,0,0,20-5.51c-2.54-14.36-4.93-29.22-7-43-17.36-17.32-52.61-34.57-70.16-39.19-15.15-4-11-21.73-6.81-32.71a73.77,73.77,0,0,0-16.45,56.36C898.31,1582.14,934.32,1610.81,973.8,1606Z"/><path class="cls-8" d="M989.94,1577.53c-1.11-6.82-2.16-13.56-3.15-20.06-17.36-17.32-52.61-34.57-70.16-39.19a16.11,16.11,0,0,1-1.89-.61,48.94,48.94,0,0,0-2.31,21.92c3.42,27.77,29.65,47.41,58.6,43.85A54.83,54.83,0,0,0,989.94,1577.53Z"/><path class="cls-10" d="M988.73,1570l0-.12c-.53-3.32-1-6.61-1.53-9.84l0-.14c-.06-.36-.11-.71-.17-1.07l0-.26c-.05-.29-.09-.58-.14-.87l0-.2c-13.26-13.24-37-26.43-55.24-34A38.48,38.48,0,0,0,989,1571.7Z"/><path class="cls-11" d="M917.8,1494.48s-4,11.53,7.33,16.58,21.5,9.06,22.51-7.13,5.25-28.54-1.31-29.5S922.23,1479.05,917.8,1494.48Z"/><path class="cls-9" d="M947.64,1503.93c.47-7.48,1.62-14.13,2.08-19.22a53.25,53.25,0,0,0-29.92,22.44,14.1,14.1,0,0,0,5.33,3.91C936.47,1516.11,946.63,1520.12,947.64,1503.93Z"/><path class="cls-7" d="M947.25,1507.28a38.52,38.52,0,0,0-10.09,8C942.19,1516.12,946,1514.45,947.25,1507.28Z"/><ellipse class="cls-9" cx="826.86" cy="1552.49" rx="75.34" ry="73.97" transform="translate(-739.5 2352.75) rotate(-89.02)"/><ellipse class="cls-7" cx="826.86" cy="1552.49" rx="52.04" ry="54.24" transform="matrix(0.02, -1, 1, 0.02, -739.53, 2352.7)"/><circle class="cls-8" cx="826.72" cy="1560.61" r="39.51" transform="translate(-817.26 915.39) rotate(-40.66)"/><path class="cls-7" d="M900.81,1553.75a76.07,76.07,0,0,0-7-33.35c-14.41,2.74-30.27,9.6-40.37,14.95-14.73,7.82-22,15-28,8.72s-20.14-16.7-39.3-23c-9.8-3.21-13.3-11.53-14.37-18.9a75.81,75.81,0,0,0-18.92,49c-.71,41.61,31.82,75.9,72.67,76.6S900.1,1595.35,900.81,1553.75Z"/><path class="cls-8" d="M873.67,1526.26a180.12,180.12,0,0,0-20.22,9.09c-14.73,7.82-22,15-28,8.72s-20.14-16.7-39.3-23c-.71-.23-1.38-.49-2-.77a50.41,50.41,0,0,0-11.54,31.24c-.5,28.74,23.39,52.45,53.34,53s54.62-22.37,55.11-51.11A50.24,50.24,0,0,0,873.67,1526.26Z"/><path class="cls-10" d="M866.23,1561.28A39.39,39.39,0,0,0,856,1534.05l-2.52,1.3c-14.73,7.82-22,15-28,8.72-4-4.19-11.57-10.18-21.81-15.57a39.52,39.52,0,1,0,62.55,32.78Z"/><path class="cls-11" d="M800.34,1514.82s14.46,5.56,23.36,11.35,13.79,1.18,26-3.42,26-8.37,22.24-15.27-24.69-21.17-47.82-18.48S779.1,1504.78,800.34,1514.82Z"/><path class="cls-9" d="M827.74,1500.45a55.53,55.53,0,0,0-33.51,10.41,22.79,22.79,0,0,0,6.11,4s14.46,5.56,23.36,11.35,13.79,1.18,26-3.42c5.71-2.14,11.77-4.11,16.21-6.3A55.26,55.26,0,0,0,827.74,1500.45Z"/><path class="cls-7" d="M844,1525.07a39.36,39.36,0,0,0-16.62-4,39.81,39.81,0,0,0-10.42,1.2c2.37,1.24,4.7,2.55,6.73,3.87C831.07,1531,835.69,1528.62,844,1525.07Z"/><ellipse class="cls-9" cx="688.7" cy="1548.01" rx="75.34" ry="73.97" transform="translate(-956.95 1951.1) rotate(-79.78)"/><ellipse class="cls-7" cx="688.7" cy="1548.01" rx="52.04" ry="54.24" transform="translate(-956.96 1951.06) rotate(-79.78)"/><circle class="cls-8" cx="687.26" cy="1556.01" r="39.51" transform="translate(-771.2 680.58) rotate(-35.2)"/><path class="cls-7" d="M718.77,1528.24c-15.58,4.11-27.11,15.6-34.77,7.3s-23.53-18.79-36.26-28.37c-6.54-4.92-6.36-12.23-4.64-18.17a75.86,75.86,0,0,0-27.19,45.89c-7.39,40.95,19.22,80,59.42,87.27s78.78-20.07,86.17-61a76.13,76.13,0,0,0-3.25-39.38C745.71,1521.82,729.38,1525.45,718.77,1528.24Z"/><path class="cls-8" d="M736.53,1524.21c-6.53,1.22-12.78,2.72-17.76,4-15.58,4.11-27.11,15.6-34.77,7.3-7-7.53-20.71-16.9-32.71-25.73a50.42,50.42,0,0,0-16,28.58c-5.1,28.29,14.66,55.53,44.14,60.84s57.51-13.3,62.61-41.59A50.54,50.54,0,0,0,736.53,1524.21Z"/><path class="cls-10" d="M684,1535.54c-3.86-4.18-9.81-8.92-16.38-13.82a39.51,39.51,0,1,0,48.51,7.3C701.88,1533.61,691.22,1543.36,684,1535.54Z"/><path class="cls-11" d="M668,1505.88s14.75,10.48,19.31,15.21,18.39-1.9,28.66-4.6,24.3-7.84,18.57-15.15-32.79-23.45-56.7-18.34S654.74,1496,668,1505.88Z"/><path class="cls-9" d="M697.94,1496.8a55.44,55.44,0,0,0-34.87,5,48.54,48.54,0,0,0,4.88,4.13s14.75,10.48,19.31,15.21,18.39-1.9,28.66-4.6a76,76,0,0,0,11.85-4A55.48,55.48,0,0,0,697.94,1496.8Z"/><path class="cls-7" d="M687.26,1521.09c2.92,3,9.63,1.41,16.78-.87a39.84,39.84,0,0,0-21.64-3.44A61.62,61.62,0,0,1,687.26,1521.09Z"/><ellipse class="cls-9" cx="556.32" cy="1519.55" rx="75.34" ry="73.97" transform="translate(-1060.73 1580.01) rotate(-72.03)"/><ellipse class="cls-7" cx="556.32" cy="1519.55" rx="52.04" ry="54.24" transform="matrix(0.31, -0.95, 0.95, 0.31, -1060.73, 1580)"/><circle class="cls-8" cx="553.82" cy="1527.28" r="39.51" transform="translate(-630.24 414.94) rotate(-26.86)"/><path class="cls-7" d="M626.68,1542.37a76.25,76.25,0,0,0,3.46-30.39c-14.35-3.92-38.92-2.79-49.63-1-13.66,2.34-25.72,6.78-30.55-2.7s-7-23.75-23.58-35c-8.63-5.85-8.29-13.32-6-19.15A75.9,75.9,0,0,0,486,1496.73c-12.83,39.58,8.26,81.88,47.12,94.49S613.85,1582,626.68,1542.37Z"/><path class="cls-8" d="M580.51,1511c-13.66,2.34-25.72,6.78-30.55-2.7-4.66-9.17-6.82-22.82-22-33.89a50.64,50.64,0,0,0-23.23,28.4c-8.87,27.34,7,57,35.54,66.23s58.78-5.43,67.64-32.77a50.1,50.1,0,0,0,1.16-26.87A163,163,0,0,0,580.51,1511Z"/><path class="cls-10" d="M550,1508.31c-2.64-5.19-4.48-11.83-8.34-18.62A39.51,39.51,0,1,0,589.33,1510c-3.44.28-6.46.65-8.82,1C566.85,1513.35,554.79,1517.79,550,1508.31Z"/><path class="cls-11" d="M548.36,1476.19a62.58,62.58,0,0,1,9.64,15.68c3.75,9,9.92,4.61,24.12,5.62s33.77,4.49,30.28-7.84-22.78-31.1-45.82-33.5S533.82,1455.21,548.36,1476.19Z"/><path class="cls-9" d="M605.2,1498.43A55.13,55.13,0,0,0,572.38,1470a55.77,55.77,0,0,0-28.74-1.58,64.35,64.35,0,0,0,4.72,7.73,62.58,62.58,0,0,1,9.64,15.68c3.75,9,9.92,4.61,24.12,5.62C589.73,1498,598.88,1499.28,605.2,1498.43Z"/><path class="cls-7" d="M566,1489.69a39.29,39.29,0,0,0-9.9-1.87c.66,1.28,1.3,2.64,1.89,4,3.53,8.5,9.19,5.1,21.65,5.49A39.39,39.39,0,0,0,566,1489.69Z"/><path class="cls-9" d="M410.12,1537.38s7.57,5.47,22,13.78a75.5,75.5,0,0,0,62.7-47c15.65-38.56-2.35-82.27-40.2-97.64a73.08,73.08,0,0,0-13.23-4C415.79,1484.87,410.12,1537.38,410.12,1537.38Z"/><path class="cls-7" d="M476.55,1496.71c10.82-26.63-2.92-57.35-30.68-68.62a57.14,57.14,0,0,0-11.14-3.25c-14,48.66-20.46,84.42-23.08,101.44C438.08,1534.29,466.38,1521.78,476.55,1496.71Z"/><path class="cls-8" d="M459.86,1498.7a39.56,39.56,0,0,0-30.64-53.93c-9.28,34.91-14.33,61.51-16.87,77.06A39.53,39.53,0,0,0,459.86,1498.7Z"/><path class="cls-7" d="M450.31,1404.9a73.54,73.54,0,0,0-8.9-2.36,936.6,936.6,0,0,0-27,107.21h77.84q1.38-2.73,2.55-5.61a76.09,76.09,0,0,0,5.21-36.81c-15.06-5.85-39.48-4.37-50.54-4.7-14.27-.43-13-12.11-10.38-25.29C441,1427.93,447,1412.8,450.31,1404.9Z"/><path class="cls-8" d="M449.51,1462.63c-14.27-.43-13-12.11-10.38-25.29a95.86,95.86,0,0,1,2.93-10.64,57.05,57.05,0,0,0-7.33-1.86c-.1.38-.21.75-.32,1.12l0,.11-.27,1a2.17,2.17,0,0,0-.07.24c-.08.26-.15.51-.22.76l-.11.4-.24.83c0,.06,0,.11,0,.16l-.27,1-.05.15-.27,1,0,.13-.27,1a.5.5,0,0,0,0,.13c-.2.73-.41,1.45-.61,2.18v0c-.08.31-.17.61-.25.91,0,.12-.07.24-.1.35-.07.28-.15.55-.22.82l-.05.17c-.06.24-.13.48-.2.72s-.08.32-.13.48-.13.49-.2.74l0,.16c-.08.27-.15.55-.22.82l-.09.32c-.06.2-.11.4-.16.6l-.12.42-.27,1v0c-.09.34-.18.68-.28,1l0,.13c-.08.29-.16.59-.23.88a2.17,2.17,0,0,0-.07.24l-.21.78c0,.1-.05.19-.07.29l-.19.7c0,.1-.05.19-.07.29s-.13.47-.19.7l-.1.38c-.05.21-.1.41-.16.61s-.06.22-.08.33-.13.49-.19.73,0,.18-.08.27q-.21.84-.42,1.65l-.24.93-.08.29c0,.14-.07.29-.11.43s-.11.43-.16.64l-.06.23c-.06.22-.11.44-.17.66l-.12.47-.12.48-.1.38c0,.19-.09.39-.14.58s-.08.29-.11.43-.09.34-.13.51-.07.27-.1.41-.07.26-.1.39c-.18.73-.37,1.46-.55,2.18l0,.15c-.14.54-.27,1.08-.4,1.62l0,.13c-.06.21-.11.43-.16.64l-.09.35c0,.16-.07.32-.11.48s-.09.35-.13.52l-.09.35c0,.18-.08.36-.13.54l-.09.4c0,.13-.07.26-.1.39l-.12.51v.05c-.12.49-.24,1-.35,1.45,0,.06,0,.13-.05.2l-.18.77v0c0,.19-.09.38-.14.57s-.06.29-.1.43l-.09.38c0,.14-.07.29-.1.43l-.12.51-.06.24c-.05.23-.1.46-.16.69v.05c-.05.23-.11.47-.16.7l-.09.39c0,.14-.07.29-.11.44s0,.13,0,.2c-.22,1-.44,1.9-.66,2.83l-.05.23c-.05.22-.1.43-.14.65l0,.09c-.11.49-.22,1-.32,1.44l0,.22c-.28,1.22-.55,2.43-.81,3.62h0c0,.19-.09.38-.13.57l-.05.24-.12.52a1.42,1.42,0,0,1,0,.2c-.09.44-.19.87-.28,1.31,0,.11-.05.23-.08.34s0,.24-.07.35l-.09.42-.09.38c0,.13,0,.27-.08.4s-.05.23-.08.34l0,.23c-.19.88-.38,1.74-.56,2.6h0c0,.21-.09.42-.13.63l0,.13-.09.46c0,.12-.06.24-.08.36s-.05.25-.08.38,0,.21-.07.32-.05.27-.08.4l0,.16c-.09.41-.17.82-.25,1.22l0,.11c-.16.82-.33,1.64-.49,2.44l0,.14-.24,1.2,0,.08c0,.18-.07.36-.1.53a.75.75,0,0,1,0,.16c-.19,1-.39,2-.58,3v0c0,.19-.07.39-.11.58h0l-.21,1.07-.05.28c0,.14-.05.28-.08.42v0l-.21,1.14v.05c-.14.74-.28,1.46-.41,2.17l0,.11c0,.14,0,.28-.08.41l0,.14-.09.48v0h54.34a49.76,49.76,0,0,0,7.76-13,50.46,50.46,0,0,0,1.55-33.53C467,1462.4,456,1462.82,449.51,1462.63Z"/><path class="cls-10" d="M449.51,1462.63c-10.6-.32-12.61-6.85-11.88-15.59a40.2,40.2,0,0,0-8.41-2.27l-.21.77c0,.1-.05.19-.07.29s-.11.4-.16.61a2.33,2.33,0,0,0-.07.25l0,.13-.18.67c0,.17-.09.34-.13.5s-.09.32-.13.48v0c0,.11-.06.21-.08.32s-.13.49-.19.73,0,.18-.08.27q-.21.84-.42,1.65l-.24.93-.08.29c0,.14-.07.29-.11.43l-.13.52c0,.06,0,.13,0,.19l0,.16-.16.64,0,.07-.11.42-.12.48-.1.38-.09.38-.21.81c0,.11-.05.22-.08.33s-.07.27-.1.41-.07.26-.1.39c-.18.73-.37,1.46-.55,2.18l0,.12a.5.5,0,0,1,0,.12l-.18.71v0l-.15.63c0,.13-.07.27-.1.4s-.09.35-.13.52l-.09.35c0,.16-.07.32-.11.48s-.09.35-.13.52l-.09.35c0,.14-.06.27-.1.41s-.07.29-.1.44l0,.09a1.6,1.6,0,0,0-.05.21c-.05.18-.09.37-.14.55v0a1,1,0,0,0,0,.14v0c-.12.49-.24,1-.35,1.45,0,.06,0,.13-.05.2s-.09.37-.13.55l-.06.24h0c0,.15-.07.29-.1.44l-.15.59-.08.35c0,.14-.07.29-.1.43l-.12.51,0,.17c-.09.38-.18.75-.26,1.13l-.09.35v.06c0,.12-.06.24-.08.36s-.07.29-.11.44v0c0,.11-.05.21-.07.31-.21.9-.41,1.79-.62,2.67l0,.19,0,.14-.12.55,0,.07,0,.11c0,.2-.09.4-.13.6l0,.08-.15.67,0,.22c-.28,1.22-.55,2.43-.81,3.62h0c0,.19-.09.38-.13.57v.06c-.07.33-.15.67-.22,1s-.18.81-.26,1.21c0,.11-.05.23-.08.34s0,.24-.07.35l-.09.42c0,.11-.05.23-.08.34a.5.5,0,0,0,0,.12c0,.11-.05.22-.07.32s0,.16-.05.23l-.06.29v0l-.24,1.11c0,.1,0,.21-.07.31s0,.21-.07.32a2,2,0,0,1-.05.24,2.38,2.38,0,0,1,0,.26c0,.12-.05.25-.08.37h0c0,.21-.09.42-.13.63l0,.13-.09.46c0,.12-.06.24-.08.36s-.05.22-.07.33l0,.17,0,.2c0,.11,0,.22-.07.33l0,.12,0,.11c-.09.41-.17.82-.25,1.22l0,.11c-.16.82-.33,1.64-.49,2.44l0,.14c-.06.32-.13.64-.19,1,0,.13-.05.25-.08.38l-.06.33c-.09.42-.17.84-.25,1.25-.14.68-.27,1.36-.4,2v0c0,.24-.09.48-.14.72l0,.14c0,.13-.05.26-.07.39l-.09.44-.05.28c0,.14-.05.28-.08.42v0c0,.12-.05.23-.07.35l0,.16,0,.11c0,.18-.07.35-.1.53h0c0,.23-.08.46-.13.69-.09.52-.19,1-.28,1.52l0,.08,0,.2-.05.24,0,.14c0,.15-.06.29-.08.43l0,.07h38.64a39.54,39.54,0,0,0,3.53-47.06C453.91,1462.69,451.49,1462.69,449.51,1462.63Z"/><path class="cls-11" d="M448.13,1434.26s-6.16,18,10,18.83,32,2.62,28.32-6.89-16-21.38-21.84-24.52S453.39,1418.27,448.13,1434.26Z"/><path class="cls-9" d="M474.29,1453.77a55.17,55.17,0,0,0-24.53-23.93c-.54,1.31-1.09,2.78-1.63,4.42,0,0-6.16,18,10,18.83C463.86,1453.37,469.52,1453.78,474.29,1453.77Z"/><path class="cls-9" d="M410.12,1537.38s40.21,29.08,112.25,54.95a63.08,63.08,0,0,0,19.91-29.69c11.23-36.13-12.25-75.54-52.44-88-25.67-8-51.95-3-70.52,11C412.16,1518.48,410.12,1537.38,410.12,1537.38Z"/><path class="cls-7" d="M522.87,1556.61c7.75-25-9.85-52.62-39.31-61.78s-59.65,3.65-67.41,28.6a41.08,41.08,0,0,0-1.54,17c10.56,7,39.42,24.72,83.85,42.75C510.1,1577.92,519.11,1568.69,522.87,1556.61Z"/><path class="cls-8" d="M501.69,1550c4.68-15-5.93-31.73-23.71-37.25S442,1515,437.33,1530c-3.21,10.32.77,21.41,9.33,29.14,5.41,2.86,11.39,5.9,17.92,9C481.17,1571.74,497.33,1564.08,501.69,1550Z"/><path class="cls-7" d="M542.28,1562.64a62,62,0,0,0,2.22-10c-18.4-1.27-50.37-7.55-81.73-29.29-25.26-17.52-28.49-35.23-26.62-47.18a71.71,71.71,0,0,0-16.83,9.4c-7.16,32.89-9.2,51.79-9.2,51.79s40.21,29.08,112.25,54.95A63.08,63.08,0,0,0,542.28,1562.64Z"/><path class="cls-8" d="M524.35,1549.82a169.14,169.14,0,0,1-61.58-26.45c-12.74-8.83-19.87-17.71-23.58-25.88-11,5.36-19.43,14.34-23,25.94a41.08,41.08,0,0,0-1.54,17c3.67,2.41,9.54,6.13,17.5,10.7h0c1.29.74,2.62,1.5,4,2.28l.07,0,1.67.93.05,0,1.7.94.11.06,3.12,1.7.11.06.38.2.16.09,1.32.71h0l.47.25.12.06,2.85,1.51.08,0,.4.21.2.1c.44.24.89.47,1.34.7l.19.1,1.95,1,.15.07,1.47.75.08,0,1.53.78.1,0,.45.23.18.08,1.43.72.23.11,2.16,1.08.12.05.53.26h0l1.69.83.21.1.45.22.62.3.31.15.4.19.39.19.31.15.52.24.52.26.37.17.41.19.29.15.58.27.48.22.36.18.44.2.29.14.49.23.62.29.35.16.37.17.5.24.09,0,.87.4.46.21.26.12.51.23.35.17.41.18.62.29.51.23.29.13.49.22.36.16.72.33.39.18.37.16.44.2.45.2.61.27.47.21.39.17.52.23.26.12.86.38,0,0,.82.36.2.08.66.29.28.12.86.38.08,0,.82.36.16.07.84.36.08,0,.93.4.09,0,1.88.8.2.08.74.31.22.09.87.37h0l.93.39.22.09.8.33.1,0,2,.8.13.06.84.34.18.07,1,.4c11.64-5.27,20.65-14.5,24.41-26.58A39.84,39.84,0,0,0,524.35,1549.82Z"/><path class="cls-10" d="M501.69,1550a24.48,24.48,0,0,0,1.09-6.23,168.66,168.66,0,0,1-40-20.42,91.74,91.74,0,0,1-11.27-9.13A26.17,26.17,0,0,0,437.33,1530c-3.21,10.32.77,21.41,9.33,29.14l1.61.85.08,0,.4.21.2.1c.44.24.89.47,1.34.7l.19.1,1.95,1,.15.07,1.47.75.08,0,1.53.78.1,0,.45.23.18.08,1.43.72.23.11,2.16,1.08.12.05.49.24,0,0h0l1.68.82,0,0,.18.09.45.22.62.3.31.15.4.19,0,0C481.17,1571.74,497.33,1564.08,501.69,1550Z"/><path class="cls-11" d="M460.33,1502.27s6,11.26,30.09,23.88,47.57,13.4,41.16-5.05-23.88-35.14-50.28-39S451.2,1489.26,460.33,1502.27Z"/><path class="cls-9" d="M523.65,1535.16c-4-17.73-19-33.77-40.09-40.33a63.78,63.78,0,0,0-27.62-2.38,23.47,23.47,0,0,0,4.39,9.82s6,11.26,30.09,23.88C503.08,1532.79,515.57,1536.15,523.65,1535.16Z"/><path class="cls-7" d="M499.77,1530.48c-4-7.93-11.76-14.6-21.79-17.71a39,39,0,0,0-10-1.76,106.92,106.92,0,0,0,22.44,15.14C493.57,1527.8,496.71,1529.25,499.77,1530.48Z"/><path class="cls-9" d="M624,1516.32c-41.14-8.87-81,13.92-88.94,50.9a62.52,62.52,0,0,0,.86,29.79,672.75,672.75,0,0,0,134.41,29.9A62.49,62.49,0,0,0,684,1599.35C692,1562.37,665.11,1525.2,624,1516.32Z"/><path class="cls-7" d="M619.5,1537c-30.17-6.51-59.09,8.93-64.6,34.47-2.53,11.77.34,23.63,7.13,33.64a672.23,672.23,0,0,0,81.12,18c10.64-6.31,18.4-16.08,21-28.09C669.65,1569.52,649.67,1543.54,619.5,1537Z"/><ellipse class="cls-8" cx="609.52" cy="1583.29" rx="28.54" ry="33.7" transform="translate(-1066.68 1845.29) rotate(-77.83)"/><path class="cls-7" d="M684,1599.35a62.87,62.87,0,0,0,1.24-8.64c-17.4-.34-51.45-2.59-85.91-13.75-35.35-11.44-41.28-34-41.8-45.87A63.75,63.75,0,0,0,535,1567.22a62.52,62.52,0,0,0,.86,29.79,672.75,672.75,0,0,0,134.41,29.9A62.49,62.49,0,0,0,684,1599.35Z"/><path class="cls-8" d="M599.34,1577c-18.63-6-29.09-15.15-34.89-24.16a41.38,41.38,0,0,0-9.55,18.7c-2.53,11.77.34,23.63,7.12,33.64l1.28.37.56.16,1.27.36.49.14,1.45.4.52.15,1.54.43.51.14,1.38.38.44.12,1.47.39.55.15,1.58.42.47.13,1.48.39.39.1,1.51.4.54.14,1.62.42.46.11,1.49.38.5.13,1.47.37.52.13,1.63.4.55.14,1.44.35.54.13,1.51.36.48.12,1.7.4.49.12,1.54.36.54.13,1.5.34.5.12,1.73.39.5.11,1.65.37.38.09,1.58.35.54.12,1.67.36.63.13,1.6.34.45.1,1.56.33.54.11,1.72.36.58.12,1.61.33.57.11,1.49.3.6.12,1.67.33.7.14,1.67.32.44.08,1.54.29.63.12,1.72.32.64.12,1.61.3.68.12,1.42.26.65.11,1.68.3.78.13,1.59.28.68.11,1.4.24.71.12,1.74.29.69.11,1.69.28.67.1.82.13c10.64-6.31,18.4-16.08,21-28.09a40.7,40.7,0,0,0,.79-5.42C646.86,1588.14,623.2,1584.69,599.34,1577Z"/><path class="cls-10" d="M603.51,1611.19c18.19,3.92,35.64-5.39,39-20.8a23.72,23.72,0,0,0,.48-3.32A278,278,0,0,1,599.34,1577a81.17,81.17,0,0,1-19.36-9,24.66,24.66,0,0,0-3.4,8.18C573.25,1591.59,585.31,1607.26,603.51,1611.19Z"/><path class="cls-11" d="M582.77,1550s4.43,7.56,31.87,18,58.63,11.87,52.54-5.41-30-33.24-53.82-35.31S564.92,1529.91,582.77,1550Z"/><path class="cls-9" d="M663,1573.7c-5.52-17.34-21.91-32-43.53-36.67-15.22-3.28-30.12-1-41.86,5.39a28.71,28.71,0,0,0,5.13,7.58s4.43,7.56,31.87,18C633.37,1575.13,653.86,1578.06,663,1573.7Z"/><path class="cls-7" d="M614.64,1568a125.26,125.26,0,0,0,26.2,6.94c-4-9.32-13.34-17-25.3-19.55a37.21,37.21,0,0,0-23.21,2.23A142,142,0,0,0,614.64,1568Z"/><path class="cls-9" d="M762.45,1529.78c-41.88-4.2-78.89,22.91-82.66,60.55a63.3,63.3,0,0,0,8.57,38.47q7.38.67,14.94,1.21c45.67,3.18,84.59,4.35,117.83,4.11a62.43,62.43,0,0,0,10.3-28.58C835.21,1567.9,804.32,1534,762.45,1529.78Z"/><path class="cls-7" d="M760.33,1550.86c-30.7-3.08-57.71,15.5-60.32,41.5-1.47,14.72,5.18,28.66,16.8,38.54,28,1.77,53.41,2.75,76.41,3.1,10-7.47,16.75-18.14,18-30.48C813.81,1577.51,791,1553.94,760.33,1550.86Z"/><ellipse class="cls-8" cx="755.61" cy="1597.94" rx="28.54" ry="33.7" transform="translate(-909.77 2190.28) rotate(-84.27)"/><path class="cls-7" d="M821.13,1634.12a62.38,62.38,0,0,0,10.47-39c-17.51,5.33-48.84,7-88.19.41-42.82-7.11-45-32.87-43.36-45.53a64,64,0,0,0-20.26,40.33,63.3,63.3,0,0,0,8.57,38.47q7.38.67,14.94,1.21C749,1633.19,787.89,1634.36,821.13,1634.12Z"/><path class="cls-8" d="M743.41,1595.53c-20.81-3.46-32-11.32-37.87-19.94a41,41,0,0,0-5.53,16.77c-1.47,14.72,5.18,28.66,16.8,38.54l.47,0,1.49.1.88,0,.93.06.84,0,1.72.1.29,0,3.74.22h.07q29.46,1.7,55,2.26h.1l3.14.07h.34l5.05.09h.32l2.07,0c10-7.47,16.75-18.14,18-30.48a40.19,40.19,0,0,0,.19-4.64C793.8,1600.67,770.51,1600,743.41,1595.53Z"/><path class="cls-10" d="M789.25,1599.79a302.3,302.3,0,0,1-45.84-4.26,80.93,80.93,0,0,1-20.32-5.88,24.42,24.42,0,0,0-1,4.92c-1.57,15.69,12.17,29.91,30.69,31.77s34.81-9.35,36.38-25C789.19,1600.8,789.23,1600.29,789.25,1599.79Z"/><path class="cls-11" d="M724,1570.66s3.51,7.28,34.39,13.46,61.27,2.06,53.91-13.46-28.74-31.9-55.57-30.72S708.33,1554.83,724,1570.66Z"/><path class="cls-9" d="M760.33,1550.86c-15.76-1.58-30.55,2.54-41.56,10.46.36,3,2,6.11,5.2,9.34,0,0,3.51,7.28,34.39,13.46,20.16,4,40.12,3.68,49.49-1.38C800.51,1566,782.48,1553.08,760.33,1550.86Z"/><path class="cls-7" d="M758.36,1584.12a134.7,134.7,0,0,0,27.83,2.74c-4.9-9.17-15.23-16.07-27.73-17.32a36.49,36.49,0,0,0-26,7C737.59,1578.85,745.66,1581.58,758.36,1584.12Z"/><path class="cls-9" d="M898,1529.69c-41.92,3.64-73.26,37.14-70,74.83a62.57,62.57,0,0,0,10.32,29.35c69.31-1.6,111.62-9.57,138.5-17.28a62.36,62.36,0,0,0,3-25.23C976.56,1553.66,939.92,1526.06,898,1529.69Z"/><path class="cls-7" d="M959.58,1593.11c-2.26-26-29-45-59.76-42.31s-53.83,25.93-51.57,52c1,12,7.31,22.54,16.79,30.11,36.41-1.87,64.11-5.62,85.41-9.92A42.74,42.74,0,0,0,959.58,1593.11Z"/><ellipse class="cls-8" cx="903.91" cy="1597.94" rx="33.7" ry="28.54" transform="translate(-134.68 84.07) rotate(-4.96)"/><path class="cls-7" d="M979.83,1591.36a63,63,0,0,0-2.21-11.9c-11.6,4-48.5,15.65-88.4,16.07-36.34.38-45.69-23.51-48.09-35.34A64,64,0,0,0,828,1604.52a62.57,62.57,0,0,0,10.32,29.35c69.31-1.6,111.62-9.57,138.5-17.28A62.36,62.36,0,0,0,979.83,1591.36Z"/><path class="cls-8" d="M851.94,1581.9a41.16,41.16,0,0,0-3.69,20.87c1,12,7.31,22.54,16.79,30.11l.47,0,.94,0,.6,0,.54,0,1-.06.56,0,1-.05.62,0,.51,0,.85,0,.76,0,.47,0,1-.07.55,0,.48,0,1.06-.07.44,0,1-.06.56,0,.66,0,.53,0,.85-.06.57,0,.9-.07.51,0,.64,0,.85-.06.51,0,.55-.05,1-.07.4,0,.59,0,.84-.07.61-.05.45,0,.94-.08.45,0,1-.09.34,0,.56,0,.89-.08.5,0,.49,0,1-.09.32,0,1.18-.11.2,0,.68-.06h.13l1.23-.12.26,0,.83-.09.58,0,.53-.06.83-.08.4,0,.55-.06.78-.08.55,0,.47-.05.8-.09.45,0,.55-.06.7-.07.54-.06.65-.08.56-.06.47,0,.84-.1.33,0,.65-.07.57-.07.61-.07.39,0,.83-.1.36,0,.8-.1.27,0,.77-.1.33,0,.8-.1.39-.05.81-.1.28,0,.65-.08.46-.06.71-.1.35,0,.74-.1.41,0,.65-.09.31,0,.74-.11.27,0,.79-.11.42-.06.54-.08.52-.07.57-.09.3,0,.75-.11.38-.06.73-.11.34,0,.59-.09.32-.05.69-.1.35-.06.7-.1.35-.06.55-.09.5-.08.54-.08.27,0,.75-.12.33,0,.73-.12.25,0,.5-.09.52-.08.55-.1.25,0,.78-.13.28,0,.47-.08.56-.1.41-.07.37-.06.65-.12.31-.06.71-.12.19,0,.55-.1.48-.09.48-.08.32-.06.56-.11.43-.08.39-.07.49-.09.51-.1.25,0,.59-.11.39-.08.41-.08.54-.11.3,0,.74-.15.17,0,.45-.09h0a42.74,42.74,0,0,0,9.13-29.85,41.1,41.1,0,0,0-1.43-7.72c-17.32,4.65-42.47,9.86-68.93,10.14C870.62,1595.72,859.09,1589.56,851.94,1581.9Z"/><path class="cls-10" d="M870.87,1593.25a24.08,24.08,0,0,0-.53,7.6c1.36,15.7,17.49,27.13,36,25.52s32.47-15.64,31.11-31.34a24.52,24.52,0,0,0-.86-4.64,263.85,263.85,0,0,1-47.41,5.14A63.54,63.54,0,0,1,870.87,1593.25Z"/><path class="cls-11" d="M867.85,1575.59s6.38,7.35,36.06,6.16c32.09-1.28,46.58-8.21,44.45-21.56s-29.23-22.21-55-18.26S851,1561.83,867.85,1575.59Z"/><path class="cls-9" d="M899.82,1550.8c-15.29,1.32-28.7,7.75-38,17.08a19,19,0,0,0,6.05,7.71s6.38,7.35,36.06,6.16c25.69-1,40.09-5.67,43.73-14.32C936.54,1555.85,919,1549.14,899.82,1550.8Z"/><path class="cls-7" d="M878.26,1580.06c5.5,1.26,13.68,2.17,25.65,1.69q15.51-.62,25.57-3c-6.72-6.49-17-10.19-28-9.23A36.88,36.88,0,0,0,878.26,1580.06Z"/><path class="cls-9" d="M1068.38,1391c-.59.38-1.17.76-1.75,1.16-29.92,20.66-37.11,62.11-16.07,92.59a67.23,67.23,0,0,0,61.6,29c8.61-22.31,13.8-50.05,10.95-83.36C1110.07,1426.44,1092.08,1415.71,1068.38,1391Z"/><path class="cls-7" d="M1083.85,1405.9a51.67,51.67,0,0,0-5.44,3.28c-21.94,15.14-27.94,44.49-13.4,65.54,12,17.38,34.25,23.67,54,16.81a193.37,193.37,0,0,0,4.11-61.23C1113.07,1427.33,1100.1,1420.29,1083.85,1405.9Z"/><path class="cls-8" d="M1100.59,1419a35.18,35.18,0,1,0,19.51,67.52,195.43,195.43,0,0,0,3-56.26C1116.79,1428.43,1109.32,1425,1100.59,1419Z"/><path class="cls-7" d="M1066.19,1438.17c-14.45-1.14-20.47-9.35-22.94-16.73a67.71,67.71,0,0,0,68.91,92.22,177.45,177.45,0,0,0,11.49-55.25C1106.86,1449.19,1082.9,1439.48,1066.19,1438.17Z"/><path class="cls-8" d="M1066.19,1438.17a33.6,33.6,0,0,1-7.45-1.39,45.42,45.42,0,0,0,6.27,37.94c12,17.38,34.25,23.67,54,16.81q.6-2.57,1.14-5.19h0l.18-.86v-.06c.05-.27.11-.54.16-.82v-.08c.06-.27.11-.53.16-.79,0,0,0-.06,0-.09l.15-.8,0-.08c.05-.27.09-.54.14-.8,0,0,0-.06,0-.09,0-.27.09-.54.14-.81V1481c0-.28.1-.55.14-.83l0-.09c0-.26.09-.53.13-.79l0-.17c0-.24.08-.49.11-.74l0-.14.12-.77a.78.78,0,0,1,0-.14c0-.25.07-.5.11-.76l0-.16c0-.25.07-.5.1-.75l0-.16c0-.26.07-.51.1-.77a.77.77,0,0,0,0-.15c0-.25.07-.5.11-.75l0-.19c0-.25.07-.49.1-.73a1.49,1.49,0,0,1,0-.21l.09-.74a.88.88,0,0,0,0-.16c0-.26.07-.52.1-.78,0,0,0-.1,0-.15l.09-.78,0-.17c0-.25.06-.51.08-.76l0-.19c0-.26.05-.51.08-.77,0,0,0-.11,0-.16,0-.26,0-.52.08-.78l0-.19c0-.25,0-.5.07-.75l0-.2.06-.79,0-.15.06-.78c0-.07,0-.14,0-.21l.06-.77c0-.06,0-.12,0-.18l.06-.78a1.41,1.41,0,0,0,0-.2l.06-.8v-.15c0-.28,0-.56,0-.85v-.12c0-.28,0-.55,0-.83a1.09,1.09,0,0,1,0-.18c0-.27,0-.54,0-.82v-.1C1106.86,1449.19,1082.9,1439.48,1066.19,1438.17Z"/><path class="cls-10" d="M1123.53,1460.46v-.12c0-.28,0-.55,0-.83a1.09,1.09,0,0,1,0-.18c0-.27,0-.54,0-.82v-.1c-13.61-7.47-31.94-15.27-47.3-18.65a35.18,35.18,0,0,0,43.74,46.81l0-.14c0-.12.05-.24.08-.36l.09-.45.06-.33c0-.16.07-.33.1-.49s0-.25.07-.37.07-.34.1-.51l.05-.27h0c0-.24.09-.49.14-.74a.5.5,0,0,0,0-.12v0c0-.22.08-.43.11-.65a1.29,1.29,0,0,0,0-.19v-.05c0-.27.09-.54.14-.81V1481c0-.27.09-.54.14-.81,0,0,0-.06,0-.09v0c0-.26.09-.53.13-.79v0a2.34,2.34,0,0,1,0-.26l.09-.59h0l0-.14c0-.25.07-.49.11-.74v-.08l0-.09c0-.23.07-.47.1-.7l0-.12s0-.07,0-.1c0-.2,0-.4.08-.6a2.51,2.51,0,0,0,0-.27v0l.09-.64a.88.88,0,0,1,0-.16s0-.08,0-.12c0-.25.07-.5.11-.75l0-.19c0-.25.07-.49.1-.73a1.49,1.49,0,0,1,0-.21l.09-.74a.88.88,0,0,0,0-.16l.09-.76,0-.13v0l.09-.77v-.18c0-.25.06-.51.08-.76l0-.19c0-.25.05-.5.07-.74v0s0-.09,0-.14c0-.26,0-.52.08-.78l0-.19c0-.25,0-.5.07-.75l0-.2.06-.79,0-.15.06-.78c0-.07,0-.14,0-.21l.06-.77c0-.06,0-.12,0-.18l.06-.78s0-.07,0-.11a.49.49,0,0,1,0-.12c0-.25,0-.51,0-.77a.41.41,0,0,1,0-.11v-.06C1123.5,1461,1123.52,1460.74,1123.53,1460.46Z"/><path class="cls-11" d="M1057.08,1422.87s.62,4.36,10.81,5.79,21.46,7.6,25.71,6.32,6.8-5-4.89-13.54-19.48-18.49-24.61-15.54S1053.48,1414.66,1057.08,1422.87Z"/><path class="cls-9" d="M1088.71,1421.44c-4.91-3.59-9.13-7.43-12.76-10.45a49.37,49.37,0,0,0-13.55,16.36,26.24,26.24,0,0,0,5.49,1.31c10.2,1.44,21.46,7.6,25.71,6.32S1100.4,1430,1088.71,1421.44Z"/><path class="cls-7" d="M1080.74,1432.08c5.59,1.89,10.4,3.64,12.86,2.9,4-1.19,6.46-4.52-2.79-11.94q-1,.6-2,1.26A34.8,34.8,0,0,0,1080.74,1432.08Z"/><path class="cls-9" d="M1120.17,1469c-25.79-27.68-71.66-26.86-102.45,1.83a80.7,80.7,0,0,0-25.55,49.55c11,17.29,25.73,41,33.21,54.43,12.75,23,17.84,17.85,36.54,6,15.58-9.91,53-45.78,60.6-109.09C1121.77,1470.73,1121,1469.84,1120.17,1469Z"/><path class="cls-7" d="M1105.3,1482.82c-17.81-19.12-50.56-17.57-73.14,3.47s-26.43,53.59-8.62,72.71c13.14,14.1,34.39,17,53.69,9,13.14-13.07,29-34.47,38.45-64.46A41.46,41.46,0,0,0,1105.3,1482.82Z"/><ellipse class="cls-8" cx="1064.42" cy="1520.91" rx="33.7" ry="28.54" transform="translate(-751.15 1133.79) rotate(-42.98)"/><path class="cls-7" d="M1109.05,1514c-27.51,22.21-65.42,9.88-77-11.44-6.81-12.6-8.7-26.77-9.1-36.26q-2.7,2.15-5.28,4.53a80.7,80.7,0,0,0-25.55,49.55c11,17.29,25.73,41,33.21,54.43,12.75,23,17.84,17.85,36.54,6,12-7.64,36.94-30.67,51.26-69.77A48,48,0,0,0,1109.05,1514Z"/><path class="cls-8" d="M1077.23,1568.05a157.16,157.16,0,0,0,36-57.1,48,48,0,0,0-4.13,3c-27.51,22.21-65.42,9.88-77-11.44a67.44,67.44,0,0,1-4.77-11.23c-18.21,20.93-20.24,50-3.79,67.71C1036.68,1573.1,1057.93,1576,1077.23,1568.05Z"/><path class="cls-10" d="M1083.88,1541.79a37.42,37.42,0,0,0,11.31-19.71c-21.52,8.49-45.37,1.22-57.85-12.31-6.37,11.61-5.83,25.25,2.42,34.12C1050.51,1555.42,1070.26,1554.48,1083.88,1541.79Z"/><path class="cls-11" d="M1044.55,1491.13s6.11,11.92,17.43,15.89,19.56-15,23.84-27.82-1.53-19.24-15-19.4S1033.24,1469.42,1044.55,1491.13Z"/><path class="cls-9" d="M1087.2,1471.54c-14.16-4.4-31-1.87-45.5,7.36-.35,3.55.45,7.62,2.85,12.23,0,0,6.11,11.92,17.43,15.89s19.56-15,23.84-27.82A23.48,23.48,0,0,0,1087.2,1471.54Z"/><path class="cls-7" d="M1048.57,1497c2.94,3.6,7.45,7.89,13.41,10,7.79,2.74,14.14-5.41,18.73-15C1071,1487.92,1058.64,1489.65,1048.57,1497Z"/><path class="cls-7" d="M476.9,1306.79s79.71,68.55,213.52,84.25,254.52-8.2,332.46-57.92c7.67-4.13,10.66-1.36,24.86,18.19s5.93,25.23-23.17,44.51c-27.22,18-139.79,68.47-312.47,55s-255.61-91.45-255.61-91.45-8.93-2.71,0-26.27S468.2,1300,476.9,1306.79Z"/><path class="cls-8" d="M1052.45,1358.89c-46.13,45.18-154.84,73-253.31,79.9-108,7.52-242.86-32.24-291.22-63.94-34-22.27-28.44-47.88-22.14-61.15-5.86-4.31-8.88-6.91-8.88-6.91-8.7-6.76-11.49,2.77-20.41,26.33s0,26.27,0,26.27,82.93,78,255.61,91.45,285.25-37,312.47-55C1049.53,1379.29,1059.17,1372.75,1052.45,1358.89Z"/><path class="cls-9" d="M518.33,1367.25S614.26,1419,749,1427.86s270.72-58.26,279-63.56,4.61-23.54-15.64-12.36-102.66,58.27-237.13,55.91-207.31-31.58-250.52-55.91C494.79,1334.88,489.79,1354,518.33,1367.25Z"/><ellipse class="cls-12" cx="753.38" cy="1246.39" rx="111.98" ry="167.03" transform="translate(-548.68 1898.83) rotate(-85.46)"/><path class="cls-13" d="M756.89,1348.87c-92-7.29-162.55-63.19-157.65-124.84,1.85-23.35,14.27-44.18,34-60.65-26.82,17.57-44.13,41.88-46.35,69.79-4.89,61.65,65.7,117.55,157.66,124.84,57.12,4.53,109.06-10.75,141.38-37.76C853.5,1341.48,807.21,1352.87,756.89,1348.87Z"/><path class="cls-14" d="M607.79,1219.32S624,1150,748.66,1150s161.27,81,151.82,118.41c-5.66,23-32.47,60.84-77.42,67.81,30.1.35,66.09-21.71,81.58-51.57s7.55-66.85-23.42-96.31-95-59-177.78-44.61C641.78,1154,611.27,1180.21,607.79,1219.32Z"/><ellipse class="cls-7" cx="753.38" cy="1246.39" rx="89.41" ry="141.39" transform="translate(-548.68 1898.83) rotate(-85.46)"/><path class="cls-8" d="M784.7,1313.58c-77.85-6.17-137.79-51.09-133.88-100.31,1.37-17.29,10.44-32.82,25-45.41-36.26,13.44-61,37.81-63.39,67.34-3.9,49.23,56,94.14,133.88,100.32,50.5,4,96.13-9.28,123-32.54C845.14,1312,815.85,1316.06,784.7,1313.58Z"/><ellipse class="cls-9" cx="781.14" cy="1233.65" rx="51.67" ry="92.44" transform="translate(-633.3 1596.14) rotate(-72.03)"/><path class="cls-12" d="M1123.11,1430.3a77.06,77.06,0,0,1-18.46-8.62c-1.63,90.41-53.58,128.87-53.58,128.87s-29.7-44.54-54.94-78.69-37.86-3.71-40.09,23,5.94,98,5.94,98-105.41,35.64-333.32,2.23c-105-15.39-184-64.7-214.47-83.89-3.07,16.89-4.07,26.18-4.07,26.18S520.59,1617.26,703.3,1630s257.49-6.8,292.34-19.55c-9.35-50.14-17-111.32-17-111.32s34,52.69,46.74,75.63,17.84,17.85,36.54,6S1130.76,1519.53,1123.11,1430.3Z"/><path class="cls-13" d="M1076.54,1558.19c-23.61,21.78-31.16,19.14-38,11.16s-16.54-23.69-34-48.44-25.83-21.77-25.83-21.77,34,52.69,46.74,75.63,17.84,17.85,36.54,6c16.56-10.54,57.77-50.4,61.68-121.36C1114,1500.79,1093.66,1542.41,1076.54,1558.19Z"/><path class="cls-13" d="M995.64,1610.46c-.47-2.52-.94-5.07-1.4-7.63-21.59,8.59-68.35,19.87-168.67,25-239.75,7.16-378.22-76.66-378.22-76.66-21-12.6-24.11-26-23.64-34-3.57-2.2-6.75-4.2-9.52-6-3.07,16.89-4.07,26.18-4.07,26.18S520.59,1617.26,703.3,1630,960.79,1623.21,995.64,1610.46Z"/><path class="cls-14" d="M434.31,1530.48s7.26,11.83,32.45,24.72,61.64,26,89.56,34.84,71.34,18.77,96.38,22c0,0,85.72,15.28,191.31,9,94.15-4.24,136-20.94,136-20.94s6.23,1.37,3.25-21.14-10.19-61.44-10.62-76.81,9.77-17.08,22.95-3.48,34,44.8,44.19,57.45,20.94,9,33.84-4.68,38.83-57.78,42-82,3.2-32.41,0-34.29-4,2-4.9,14.93-11.34,55.43-37.11,86c-16.42,20-20.8,27.46-33.91,7.79s-33.32-46.29-46-61.46-21.45-24.36-27.07-2-3.48,64.49,0,95.18c1.7,16.57,5.49,22.1-15.74,26.34s-98.84,22.63-263.74,6.5-228-65.43-241.31-74.2S434.31,1530.48,434.31,1530.48Z"/><path class="cls-15" d="M643.26,1037s-4.15,95.39,87.09,165.89c-12.44-28.2-5-75.48-5-75.48s44.79,150.13,170,134.37c-40.64-22.4-81.55-62.21-85.15-122.76,13.82,35.67,56.59,58.89,78.34,57.23-19.73-32.34-18.9-87.09,6.81-127.73C769.33,1052,643.26,1037,643.26,1037Z"/><path class="cls-16" d="M671.93,1040.48,643.26,1037s-4.15,95.39,87.09,165.89C659.25,1119.39,669.59,1051.65,671.93,1040.48Z"/><path class="cls-16" d="M810.25,1139.06c13.82,35.67,56.59,58.89,78.34,57.23a89.34,89.34,0,0,1-10-24.24C855.11,1169.43,832,1156.48,810.25,1139.06Z"/><path class="cls-16" d="M725.37,1127.45s44.79,150.13,170,134.37a202.86,202.86,0,0,1-26.1-17.07C798,1231.23,740.85,1162.86,725.37,1127.45Z"/><path class="cls-17" d="M686.79,1090.2s9.08,47.14,25.79,69.41c-3.72-24.87,7.79-50.48,15.58-54.56,4.46,18.56,52,86.86,93.54,105-24.87-33.4-28.58-73.31-13.36-90.1,6.68,11.79,42,31.22,54.56,32.51-4.45-15.9,3.34-47.82,3.34-47.82S759.36,1105.67,686.79,1090.2Z"/><path class="cls-15" d="M387.46,553.54s-32.09,49.46-39.27,143S397,894.06,518.86,943.22c403,54.9,522,66.37,522,66.37s176.21-58,213.59-216.86c21.61-108.69-24.29-230.41-24.29-230.41S560.1,427.34,387.46,553.54Z"/><path class="cls-16" d="M407.22,541.31a159.1,159.1,0,0,0-19.76,12.23s-32.09,49.46-39.27,143c-7,91.52,46.32,192.9,162.68,243.3-.39-5.88-2.81-12.5-7.87-19.94C382.46,887,367.78,749.43,367.78,749.43s-4.62-38.56,0-93.57C371,618.21,393.38,568.77,407.22,541.31Z"/><path class="cls-17" d="M420.74,544.29S382.36,603.87,377.92,636c34.13-29,67.5-91.75,67.5-91.75Z"/><path class="cls-17" d="M377,754.61s7.05,52.12,42.3,102c-23.23-45.89-31.8-102-31.8-102Z"/><path class="cls-16" d="M1192.49,601.92l-89.29,11.86s-76.48,238.81-54.52,393a405.17,405.17,0,0,0,63.93-32.11c68.92-53.69,99.11-135,99.11-135L1238,737.08s-3.58-23-26.23-49S1192.49,601.92,1192.49,601.92Z"/><path class="cls-17" d="M1208.59,635.93s-.41,17.81,16.59,40.88,19.84,58.7,19.84,58.7,5.91-51-4.53-82.17S1208.59,635.93,1208.59,635.93Z"/><path class="cls-17" d="M1220,839.64s-17.12,50.19-44.4,75.85c28.89-20.78,53.91-76.12,54.62-78.23S1220,839.64,1220,839.64Z"/><circle class="cls-1" cx="389.33" cy="696.58" r="66.69" transform="translate(-378.53 479.32) rotate(-45)"/><path class="cls-2" d="M391.17,740.78a66.69,66.69,0,0,1-59.4-73.26c.22-2.1.54-4.17.94-6.2a66.69,66.69,0,1,0,122,48.4A66.68,66.68,0,0,1,391.17,740.78Z"/><path class="cls-3" d="M373.19,705.65s-1.5-23.26,0-37.51S372.9,646,361,655s-19.73,26.14-6.6,49.08S375.82,721.4,373.19,705.65Z"/><circle class="cls-1" cx="1211.72" cy="782.47" r="66.69" transform="translate(-198.39 1086) rotate(-45)"/><path class="cls-2" d="M1249.18,837.64c-15.41,1.08-28.48-7-21.47-37.79a550.77,550.77,0,0,0,11.63-78.1,66.7,66.7,0,1,0,9.84,115.89Z"/><path class="cls-3" d="M1249.18,764.09s-3,23.41-7.69,39.71,8.23,23.77,18.76,0,6.23-40.14,1.92-45.74S1251.12,751.14,1249.18,764.09Z"/><path class="cls-1" d="M1223.27,716.81c-47.94-15.31-50.76-103.65-50.76-103.65l-17.66-29.67L805.78,490.56S674.84,501,472.24,515c-15.59,71.18-80.65,115-80.65,115h0q-1.14,7.86-2,15.83c-23.26,222.73,144.2,422.75,374,446.76s435-137.1,458.27-359.84q.84-8,1.34-15.89Z"/><path class="cls-2" d="M873.69,1037c-163-5.33-300-77.81-361.93-244.31C475,693.91,488.17,585,505,512.7L472.24,515c-15.59,71.18-80.65,115-80.65,115h0q-1.14,7.86-2,15.83c-23.26,222.73,144.2,422.75,374,446.76,126.36,13.19,245.27-29.57,330.6-107.76C1041.92,1011.22,963.49,1040,873.69,1037Z"/><path class="cls-3" d="M580.15,772.07s35,143,255,193.68c149.38,32.6,267.69-48.41,281.9-109.8S1150.85,681.27,1009,638.46s-242.92-50-329.33-46.41S538.1,665.86,580.15,772.07Z"/><path d="M616.19,724.69a8.83,8.83,0,0,1-7.87-8.3c-.74-13.83-9.37-24.72-20.51-25.89s-21.83,7.71-25.42,21.09a8.81,8.81,0,1,1-17-4.55c5.84-21.81,24.45-36.13,44.27-34.06s35.07,19.93,36.28,42.47a8.81,8.81,0,0,1-8.33,9.27A10.87,10.87,0,0,1,616.19,724.69Z"/><path d="M983.94,763.09a8.81,8.81,0,0,0,9.42-6.49c3.59-13.38,14.28-22.25,25.42-21.09s19.77,12,20.51,25.89a8.81,8.81,0,0,0,17.6-.94c-1.21-22.54-16.46-40.41-36.28-42.47s-38.43,12.25-44.27,34.06a8.81,8.81,0,0,0,6.23,10.79A9.65,9.65,0,0,0,983.94,763.09Z"/><circle class="cls-18" cx="1117.08" cy="839.64" r="67.98" transform="translate(106.75 1805.09) rotate(-80.63)"/><circle class="cls-18" cx="470.12" cy="772.07" r="67.98" transform="translate(-408.24 558.56) rotate(-45)"/><path class="cls-13" d="M791.21,828.76a104.7,104.7,0,0,1-63-29.7c-.52,3.08-.94,6.2-1.27,9.38C721.25,863,746.05,910.2,782.33,914s70.29-37.34,76-91.85c.33-3.18.56-6.32.68-9.44A104.71,104.71,0,0,1,791.21,828.76Z"/><path class="cls-19" d="M835.18,885.55a77.29,77.29,0,0,0-7-13.38c-15.45-23.87-37.87-25.63-68.4-21-23.66,3.58-23.54-29-22.29-43.92a103.91,103.91,0,0,1-9.33-8.19c-.52,3.08-.94,6.2-1.27,9.38C721.25,863,746.05,910.2,782.33,914,802,916,821,904.88,835.18,885.55Z"/><path class="cls-12" d="M847.06,830.3s-27.78,9.87-57.46,5.89-44.05-14.88-44.05-14.88-3.72,23.54,17.67,22.42,48.74-5.89,65.45,15.32c7,11,9.53,3.67,14.42-3.42S853.94,827.17,847.06,830.3Z"/><path class="cls-20" d="M782.33,914c16.91,1.76,33.32-6.23,46.6-20.79-5.45-19.87-20.94-35-40.58-37S750.44,865.71,741,884C751,901,765.42,912.22,782.33,914Z"/><path class="cls-21" d="M828.93,893.19q-.27-1-.57-2c-13.68,10.57-29.83,17.93-44.91,12-21.52-8.53-27.27-24.86-28.41-36.64A55,55,0,0,0,741,884c10,17,24.41,28.19,41.32,30S815.65,907.75,828.93,893.19Z"/><path class="cls-22" d="M772.85,882.59s4.34,12,29.18,12.86c15.91-.65,19-14.79,9.39-23s-22.85-11.05-36.6-8.73C768.39,865.07,767.41,874.5,772.85,882.59Z"/><circle class="cls-4" cx="815.93" cy="592.05" r="24.96" transform="translate(-190.48 650.44) rotate(-39.29)"/><path class="cls-5" d="M822.13,607.24A25,25,0,0,1,802.53,571a25,25,0,1,0,35.59,32.49A24.87,24.87,0,0,1,822.13,607.24Z"/><ellipse class="cls-6" cx="821.53" cy="586.91" rx="12.08" ry="15.29" transform="translate(-162.3 813.72) rotate(-48.52)"/><path class="cls-15" d="M918.45,767.17c-13.94-38-53.25-28.9-71.67-24.11-18.65,4.85-47,3.83-47,3.83s-28-4.86-45.21-13.46c-17-8.49-53.63-25.5-75.11,8.78S606.12,882,529.64,887.59C579.46,917.92,689,856.33,720.4,788.73c4.43-8.13,17.52,1.83,35.94,8s28.57,8.17,37.26,9.07,19,1.1,38.33-1.18,34.17-9.32,36.82-.45C885.51,876.86,980,959.75,1035,940.36,961.29,919.12,932.38,805.14,918.45,767.17Z"/><path class="cls-16" d="M635.92,836.81c44.91-48.56,61.07-110.16,102.19-110.6-18.42-6.63-42.72-9.47-58.68,16C658,776.48,606.12,882,529.64,887.59,529.64,887.59,583.7,893.28,635.92,836.81Z"/><path class="cls-16" d="M1035,940.36s-36.53.32-75.67-26.14-74.06-93.87-76.61-109.53-8.76-14.62-36.36-12c-46,8.67-93.74-.59-112.24-5,6,2.31,13.52,6.1,22.25,9,18.42,6.22,28.57,8.17,37.26,9.07s19,1.1,38.33-1.18,34.17-9.32,36.82-.45C885.51,876.86,980,959.75,1035,940.36Z"/><path class="cls-17" d="M984.84,919.94s-50-25.17-78.8-90.84c-16.78-39.76-15.69-54.36-38.67-50s-82.81,8.35-113.09-.75-40.86-14.57-51.81,12.79-57.63,83.73-131.33,96.59c50.71-19.61,81.36-45.52,101.79-76.89s38.67-66,51.43-69.31,29.92,7.16,50.71,13.06,58,5,77.34,0,52.53-6.86,59.47,23.42S940,882.65,984.84,919.94Z"/><path class="cls-7" d="M522.37,337.57S424.48,378,327.57,310.86l-15,35.76S384.51,434,487,400.43Z"/><path class="cls-8" d="M369,376.05c-22-17.28-14.35-36.23-7.87-45.95a222.72,222.72,0,0,1-33.57-19.24l-15,35.76S384.51,434,487,400.43C487,400.43,400.3,400.64,369,376.05Z"/><path class="cls-9" d="M364.59,352.37s-1.17,11.52,23.55,22.18,41.2,10.18,47.26,1.94,9.21-17.45-6.3-18.42-41.74-6.88-45.81-8.48C376.93,347.09,367,343.16,364.59,352.37Z"/><circle class="cls-4" cx="254.63" cy="272.55" r="60.49" transform="translate(-77.16 102.15) rotate(-19.76)"/><path class="cls-5" d="M224.81,298.88a60.52,60.52,0,0,0,81.55-57.67,60.49,60.49,0,1,1-112.23,32.3A60.32,60.32,0,0,0,224.81,298.88Z"/><ellipse class="cls-6" cx="247.98" cy="255.36" rx="37.05" ry="29.29" transform="translate(-58.1 73.64) rotate(-15.14)"/><path class="cls-7" d="M187.66,337.27A34.67,34.67,0,0,1,247,332.56a60.51,60.51,0,0,0,66.19-75.24l-.35-.17a34.66,34.66,0,1,1,42.8-52.26c.67.57,33.6,28.78,9,91.85-24.85,63.72-60.76,81.61-86.21,94.65-34.88,17.86-72.21,2.38-84.36-14.4A34.68,34.68,0,0,1,187.66,337.27Z"/><path class="cls-8" d="M346.41,252.6c-32.81,1.88-41.68-17.48-38.72-35,2.16-12.78,13.66-22.11,19.69-26.2a34.66,34.66,0,0,0-14.56,65.71l.35.17A60.51,60.51,0,0,1,247,332.56a34.67,34.67,0,1,0-55.49,41.53c-1.4-30.94,15.82-41.08,29.34-41,16.67.05,27.16,22.54,24.2,33,8.87-5.92,7.53-18,7.53-18,34.15-3.5,55.66-15.6,67.23-38.72s11.56-50,11.56-50S340.22,258.51,346.41,252.6Z"/><path class="cls-9" d="M319.16,223.08s-2.56,13.8,13.32,19.57S358,246.51,358,246.51,353.5,259,348.69,263s-8.35,5.62-8.83,14.76-7.86,39.15-26,57.45S267.94,357.38,265.23,358s-4.79,2.57-7.84,7.06-10.75,14.12-20.54,13.32c2.89-9,1-26.16-9.14-30.65s-20.22-.16-23.59,9.31,2.41,24.87,25.83,31.28,66.18-13.44,82.59-28.86,35.83-40.77,42.4-58.26,13.64-50.7,5.78-69.48-17.65-24.39-25.19-25.67S319.16,212.17,319.16,223.08Z"/><path class="cls-4" d="M1254.47,638.46s31.79-65-25.57-309.75-110.72-260-172-279.17S856.68,16.4,770,29.15c-66.29,7.65-108.35,75.21-137.67,164.44C1027.49,476.41,1254.47,638.46,1254.47,638.46Z"/><path class="cls-5" d="M1205.27,506.57c4.64-78.39-15.3-235.25-111-306.41S881.9,123.37,780.77,125.24,694.63,115.88,718,79.36c12-18.71,30.87-36.44,47.09-49.54-63.49,10.33-104.21,76.74-132.8,163.77L780.12,299.34l183.25,11.52S1100.08,355.6,1205.27,506.57Z"/><path class="cls-6" d="M766.14,99.28s99.48-10.91,207.3,16,182.91,86,206,146.33,31.45,90.09,34,119.81,24.39,45.13,6.42-27.39-36.59-146.33-68.68-199.6-59-81.51-177.77-97.55-197-14.76-220.78,11.55S730.23,101.28,766.14,99.28Z"/><path class="cls-7" d="M1175.87,397.59s69.8,79.67,186.44,62.47l-2.39,38.72s-103.26,46.36-180.22-29.16Z"/><path class="cls-8" d="M1360.84,483.81c-14.86,5.39-60.93,20.27-103.39,14.74-36.43-4.75-48.54-50-52.5-76.07-19-13.35-29.08-24.89-29.08-24.89l3.83,72c77,75.52,180.22,29.16,180.22,29.16Z"/><path class="cls-9" d="M1233.66,463.27s5.7,20.45,32.94,23.68,48.05,4,53.07-5-1.08-10.77-24.74-13.64-40.16-7.88-50.91-13.62S1229.59,455.43,1233.66,463.27Z"/><circle class="cls-4" cx="1444.68" cy="458.08" r="60.49" transform="translate(99.23 1155.71) rotate(-45)"/><path class="cls-5" d="M1459.71,494.9a60.53,60.53,0,0,1-47.5-87.86,60.49,60.49,0,1,0,86.25,78.74A60.22,60.22,0,0,1,1459.71,494.9Z"/><ellipse class="cls-6" cx="1458.25" cy="445.62" rx="29.29" ry="37.05" transform="translate(158.58 1243.08) rotate(-48.52)"/><path class="cls-7" d="M1476,545.79a34.66,34.66,0,0,0-51.07-30.53,60.52,60.52,0,0,1-26-96.8h.39a34.66,34.66,0,1,0-15.18-65.82c-.85.21-42.87,10.88-48.8,78.32-6,68.13,18.25,100.09,35.28,123.07,23.33,31.48,63.65,34.16,82,24.51A34.66,34.66,0,0,0,1476,545.79Z"/><path class="cls-8" d="M1399.35,418.47a34.67,34.67,0,0,0,33.78-26.87h0s-12,17.15-33.52,12.84-21-17.26-21-17.26S1368.88,406.26,1399.35,418.47Z"/><path class="cls-8" d="M1335.37,431c-6,68.13,18.25,100.09,35.28,123.07,23.33,31.48,63.65,34.16,82,24.51A34.75,34.75,0,0,0,1472,562c-23.27,16-62.19,9.83-87.8-20-35.07-40.77-37.68-99.53-29.2-139.18s44.36-53.67,44.36-53.67a34.52,34.52,0,0,0-15.18,3.5C1383.32,352.86,1341.3,363.53,1335.37,431Z"/><path class="cls-8" d="M1465.52,521a34.67,34.67,0,0,0-40.61-5.71s-12.21,7.75-10.48,21.83C1416.39,532.51,1442.67,517.35,1465.52,521Z"/><path class="cls-9" d="M1382.26,376.63s2.35,16.48,22.86,17.76c15.94.18,24.36-12.45,18.14-24.16s-20.87-20-36.25-7.51-27.27,32.58-28.18,66.44,4.39,68,24.34,94.95,38.07,37.21,60.22,37,25.26-13.54,23.79-22.33-12.08-17.2-29.65-7.13-23.27,15.55-23.27,15.55-8.58-7.13-6.56-17.75-6.59-18.49-14.65-28.74-21.26-29.1-15.93-57.29c5.14-21.05,3.49-23.24-1.45-34.59S1368.89,383,1382.26,376.63Z"/><path class="cls-4" d="M389.33,511.05s48-140.72,128.64-251.38c32.79-43.72,49.18-61.48,92.9-77.88s129.34-44.2,247.87-33.47c176.23,16,250.81,90.17,293.85,170.09s56.7,185.13,54,235.68-6.14,62.92-6.14,62.92-161.9-88.19-230.9-102.54-303.3-19.81-303.3-19.81Z"/><path class="cls-5" d="M1206.55,554.09a345.33,345.33,0,0,0-1.28-47.52c-19.63-18-49.25-39.65-93-60.95-104.22-50.72-339-82.53-488-69.42s-124.41-13.11-101.9-65.34c14.52-33.69,50.8-88.66,74.73-123.45-33.84,15.1-50,33.45-79.13,72.26C437.36,370.33,389.33,511.05,389.33,511.05l276.88-16.39s234.31,5.46,303.3,19.81S1200.41,617,1200.41,617,1203.82,604.64,1206.55,554.09Z"/><path class="cls-6" d="M608.84,241.21s-88.65,99.59,8.31,91.84,333.3,1.15,444.63,48.41c80.84,35.26,98.39,15.87,64.22-56.16S1010.56,191.39,881.27,177.54,641.38,191.57,608.84,241.21Z"/><path class="cls-23" d="M1254.47,609.4s-1.61-88.63-65-109c-31.69-10.21-42.43,43.93-42.43,43.93s-7.52-70.83-70.91-89.61c-37.06-10.19-54.79,21.51-54.25,48.9-10.21-51.57-31.7-66.42-61.78-71.89s-55.93,20.67-55.86,51.48c31.69,5.91,206.81,61.12,206.81,61.12Z"/><path class="cls-24" d="M1181.49,499.08c-25.54.3-34.45,45.21-34.45,45.21a115.83,115.83,0,0,0-5.31-22.17c-15.17-4.5-57.65-17.74-81.1-31.56-18.7-11-11.05-27.36-3.33-37.5-24.24,3.17-35.86,28.27-35.42,50.52a173.17,173.17,0,0,0-5.71-21.89A302.24,302.24,0,0,1,954,467.51c-22.86-7.7-22.49-22.55-18.49-33.24-18.3,7.53-31.3,27-31.25,48.9,31.69,5.91,206.81,61.12,206.81,61.12l143.42,65.11a164,164,0,0,0-3.5-27.46c-16.3-10.35-38.71-25.27-56.92-39.93C1173,525.07,1176.4,508.65,1181.49,499.08Z"/><path class="cls-25" d="M945,452.4s6.42,5.61,27.06,12.26,30.72,1.37,19.26-11-26.14-15.59-36.92-15.59S939.49,446.79,945,452.4Z"/><path class="cls-25" d="M1062,471.19s-4.08,8.47,21,19.37,42.93,11.54,28.12-3.7S1068,456.8,1062,471.19Z"/><path class="cls-25" d="M1188.47,518s-4.88,6.34,18.42,25.33,34.82,23.83,20.43-6.44C1217.23,522.71,1194.69,501.24,1188.47,518Z"/><path class="cls-23" d="M398.76,500.36s47.81-72.52,91.32-69.83c29.55,2.68,32.77,34.88,32.77,34.88s40.29-56.37,80-52.61c30.62,3.22,34.38,33.27,33.84,41.88,13.43-27.38,41.9-56.38,77.89-47.25s41.9,50.65,41.9,50.65l3.76,16.49Z"/><path class="cls-24" d="M727,445.3c-28.69-1-60.45-1.54-58.92-13.61.82-6.43,7.17-15.2,12.93-22-19.89,8-35.36,26.85-44.25,45a44.38,44.38,0,0,0-1.23-12,135.8,135.8,0,0,1-24.83,5.69c-21,3.08-48.67,1-44.91-11.48,2-6.54,9.52-14.76,16.29-21.12-31.86,11.38-59.2,49.64-59.2,49.64a45.36,45.36,0,0,0-2.1-9A62.35,62.35,0,0,1,501,463.27c-17.42,3.12-59.94,9.18-50.21-5.19,4.74-7,13.73-16.76,21.7-24.95-37.88,12.82-73.75,67.23-73.75,67.23l361.52-25.79-3.76-16.49a70.51,70.51,0,0,0-3.43-12.71C744,445.55,734.9,445.58,727,445.3Z"/><path class="cls-25" d="M473.59,444s-6.26,4.39-9.87,9.71,3,7.36,20.52,4.39S512,452.45,504,446,484.24,432.74,473.59,444Z"/><path class="cls-25" d="M582,428.3S565.5,443,592,441.77s37.38-4.22,30-12.46S595.71,412.21,582,428.3Z"/><path class="cls-25" d="M685.09,419.33s-14.68,10.58,6.23,15,51.25,5.63,40.6-6.63S702.12,407,685.09,419.33Z"/><path class="cls-7" d="M381.21,567.09s253.48-52.27,440.32-37S1206,642.29,1232.72,661.41s45.5,3.82,45.69-22.95-43.18-71.37-161.33-114.29c-110.37-40.09-404.44-113.88-707.83-33.57-21.67,3.82-39.51,17.84-45.89,44.61S364,570.44,381.21,567.09Z"/><path class="cls-8" d="M1029.63,553.41c-74.41-25.19-92.15-54.73-92.82-76.47-28.67-5.27-59.43-10-91.87-13.67-13.26,18.57-35.63,44.94-54,41.93-28-4.59-231.94,5-336.26,27.7-65.2,14.17-71-12.56-66.2-34.6-11.87,7.31-21,19.37-25.15,36.91C357,562,364,570.44,381.21,567.09c0,0,253.48-52.27,440.32-37S1206,642.29,1232.72,661.41c17,12.13,30.74,10.4,38.57.68C1223.2,635.91,1126.69,586.27,1029.63,553.41Z"/><path class="cls-9" d="M689,467.51s-152,3.84-249.25,29.05c-32.57,7.29-47.29,25.81,9,21S601.89,494,666.21,494.66s67.61-2.62,69.5-11.59S719.19,469.42,689,467.51Z"/><path class="cls-9" d="M984.22,517.77s48.61,20.12,102.67,39.39,144,65.16,159.8,75.74,28.35-6.6-6.85-33.83S1120,534.44,1034.51,512.7C957,492.63,962,505.62,984.22,517.77Z"/><path class="cls-26" d="M744.22,510.75s4.58-48.69,9.15-76.58S772,387.56,805.78,388s74.11,7.91,74.11,7.91,33.71,1.24,30.79,47.44-8.32,86.56-8.32,86.56-1.25,16.65-19.14,14.15-76.16-8.74-121.94-9.16C740.47,536.13,743.16,521.46,744.22,510.75Z"/><path class="cls-27" d="M902.36,529.89s.22-1.65.6-4.65c-15.43-1.75-35.32-4.61-56.63-9.24-47.34-10.27-76.71-15-72-63a317.33,317.33,0,0,1,13.16-63c-20.83,5.55-30.5,22-34.15,44.15-4.57,27.89-9.15,76.58-9.15,76.58-1.06,10.71-3.75,25.38,17.06,24.13,45.78.42,104,6.66,121.94,9.16S902.36,529.89,902.36,529.89Z"/><path class="cls-28" d="M805.37,424.34S783.6,471.75,823.23,486s61.75,18.17,65.7-14.23,7.84-52.15-26.5-58.47S811,402.92,805.37,424.34Z"/><circle class="cls-4" cx="829.2" cy="464.92" r="33.22" transform="translate(153.9 1134.02) rotate(-74.01)"/><path class="cls-5" d="M837.46,485.14a33.23,33.23,0,0,1-26.09-48.25,33.22,33.22,0,1,0,47.37,43.24A33.07,33.07,0,0,1,837.46,485.14Z"/><ellipse class="cls-6" cx="836.66" cy="458.08" rx="16.09" ry="20.35" transform="translate(-60.67 781.56) rotate(-48.52)"/><polygon class="cls-4" points="313.35 956.52 115.51 977.34 85.34 690.64 283.18 669.82 313.35 956.52"/><path class="cls-5" d="M115.51,977.34l197.84-20.82L310,924.64C287.62,857,247,733.74,242.55,717.52c-6.09-22.51-24.81-14.11-24.81-14.11s-40.92,10.49-78.36,22.32c-27.59,8.71-37.45-20.51-40.73-36.49l-13.31,1.4Z"/><path class="cls-6" d="M116.83,703.86s4.65,16.09,27.42,9.71,76.2-21,76.2-21,28.24-7,35.22,21,38.86,135.18,38.86,135.18L273.32,681.08,125.73,696S114,695.35,116.83,703.86Z"/><polygon class="cls-4" points="316.61 977.07 128.75 1042.49 35.55 774.83 223.42 709.42 316.61 977.07"/><path class="cls-5" d="M128.74,1042.49l187.87-65.42L287.3,892.89,171.82,739.4S118.25,763.15,87,776.71c-20.38,8.84-32.57.5-38.59-6.36l-12.87,4.48Z"/><path class="cls-6" d="M64.45,771.33s5.06,5.06,21.17-1.15S167.07,735,167.07,735Z"/><polygon class="cls-6" points="267.15 856.51 180.75 732.85 217.57 720.54 267.15 856.51"/><polygon class="cls-4" points="314.66 984.18 142.84 1084.45 0 839.66 171.82 739.4 314.66 984.18"/><path class="cls-6" d="M53.08,842.48,171,774.91,273.32,953.45s-76.73,65.83-119.89,27.3S56.5,851.07,53.08,842.48Z"/><path class="cls-5" d="M305.39,968.31c-21.67,11.43-61.11,31.82-98.57,48.89-55.47,25.26-89.8-24.12-89.8-24.12L5.85,836.25,0,839.66l142.84,244.79L314.66,984.18Z"/><path class="cls-29" d="M286.11,988.63l-123,71.76-10.31-17.65-14.7,8.59L26.86,860.67l13.84-8.08-11-18,121.85-71.1,6.86,11.77,14.71-8.57L289.54,966.12l-12.37,7.2ZM164.59,1054.8,280.5,987.15l-6.85-11.76-12.95,7.55-11-18.83,16.46-9.62,8.94,15.31,8.81-5.16L171.66,772.23l-11.18,6.52,8.24,14.12-18.24,10.65-10.3-17.65,14.71-8.6-4.81-8.22L35.37,836l8.86,14.55,12.64-7.36,10,17.06L51,869.48l-8.13-13.39-10.38,6,107.13,183.6,11.17-6.53-7.89-13.54,17.06-10,10,17.07-13.53,7.91Zm97.58-77.46,9.42-5.48-6.87-11.78-9.43,5.5Zm-107.89,59.81,10-5.85-5.84-10-10,5.83ZM52.37,863.92l8.87-5.17-5.84-10-9,5.28Zm99.58-66,11.18-6.52L157,780.82l-11.19,6.52Z"/><path class="cls-30" d="M121.67,894.55l6.83,0a2.76,2.76,0,0,1-.89,1.91,136,136,0,0,1,.66,35.33c6.81.82,20.66,3.1,24.54,3.63l-.46,9.54c-4.48-1.57-13.7-3.61-20.93-5.11l27.73,47.52-7.61,4.44L125.7,947.57a117,117,0,0,1-6.55,20.81A32.52,32.52,0,0,0,111,964c7.42-15.93,11.69-38.82,9.62-58.79l-30.92,18-4.17-7.14,16.27-9.5L89,884.7l10.14-5.15c.35.89.13,1.78-1.26,2.91l11.52,19.72,11.06-6.46Zm-6.31-19.81,65.3-38.1,4,6.8-65.29,38.1Zm62.72,101.63-29.89-51.22,59.27-34.58,29.62,50.75-7.61,4.43-2.95-5.07-44.31,25.85,3.24,5.53Zm-44.49-91.86,45.9-26.78L196,886l-45.9,26.79ZM177.76,917l-18.22,10.62,7.4,12.71,18.22-10.65Zm.56,42.8,18.21-10.62L189,936.29l-18.23,10.63Zm6.69-76-9.08-15.56-31.61,18.43,9.09,15.57Zm26.22,30.63-7.39-12.69-18.82,11,7.42,12.7ZM203.8,945l18.81-11-7.53-12.92-18.82,11Z"/><path class="cls-31" d="M123.14,889l6.83,0a2.72,2.72,0,0,1-.9,1.9,134.66,134.66,0,0,1,.67,35.33c6.82.82,20.66,3.09,24.54,3.61l-.46,9.55c-4.48-1.56-13.7-3.6-20.92-5.1l27.71,47.51-7.6,4.45L127.17,942a116,116,0,0,1-6.56,20.82,32.78,32.78,0,0,0-8.13-4.37c7.42-15.92,11.69-38.82,9.62-58.8l-30.91,18L87,910.51,103.27,901,90.49,879.11,100.62,874c.35.87.14,1.78-1.25,2.88l11.51,19.74L122,890.12Zm-6.31-19.81,65.29-38.1,4,6.8L120.8,876Zm62.72,101.63-29.89-51.22L208.94,885l29.61,50.75-7.6,4.44-3-5.08-44.29,25.85,3.22,5.54Zm-44.48-91.86L181,852.13l16.5,28.26-45.9,26.78Zm44.15,32.51L161,922.06l7.41,12.69,18.23-10.63Zm.56,42.81L198,943.61l-7.54-12.91-18.22,10.62Zm6.7-76-9.08-15.57-31.61,18.43,9.08,15.58Zm26.23,30.63-7.4-12.7-18.81,11,7.4,12.69Zm-7.44,30.45,18.81-11-7.54-12.91-18.81,11Z"/><path class="cls-7" d="M1220.12,946.55s-25.86,38.18-4.51,95.41c18.9,47.25,34.81,72.35,66.12,93.18s95.09,49.55,142.77,54.64c13.84,1.14,36.11-4.2,65.77-25.77s55.85-53,56-68.8c-73.81-14-185.76-46.07-184.6-46S1220.12,946.55,1220.12,946.55Z"/><path class="cls-7" d="M1267,951.69s58.62,33.61,130.48,65.5,132.29,44.48,145.36,63.81-2.14,46.83-79.47,38.72-150.73-46-219.73-110.06C1206.59,969.56,1204.34,914.6,1267,951.69Z"/><path class="cls-8" d="M1297.09,1035.44c-57.18-55.27-53.18-80.83-45.12-91.43-47-19.87-42.15,29-8.36,65.65,69,64.05,142.44,102,219.73,110.06,34.71,3.65,56.8.07,69.55-6.66C1474.78,1120.12,1362.69,1098.83,1297.09,1035.44Z"/><path class="cls-32" d="M1291.52,980.53s89.46,45.81,147.55,66,92.62,31.79,95.31,45.19c.81,7.12-11,14.28-49,8.26s-94.88-10.11-169-64.24c-35.74-27.76-48.11-51-51.5-60.5S1262.56,959.9,1291.52,980.53Z"/><path class="cls-31" d="M1469,1062.45s31.14,9.15,44.52,16.49,15.29,14.43,7.17,14.76S1441.49,1055.9,1469,1062.45Z"/><path class="cls-7" d="M1434.47,1049.12s12.34-38.83-45.79-68.3c-42.76-22.25-85.88,3.3-76.26,26.94,9.35,22.94,65.57,62.07,102.95,60C1435,1067.73,1434.47,1049.12,1434.47,1049.12Z"/><path class="cls-8" d="M1312.42,1007.76c9.35,22.94,65.57,62.07,102.95,60,9.47,0,14.22-4.38,16.64-8.87-16.87,2.3-43.66.35-71.45-24.41-34.66-30.89-21-52.89-12.21-61.84C1323.32,975.22,1305.93,991.88,1312.42,1007.76Z"/><path class="cls-32" d="M1428.37,1038.83s-1.24-26.2-39.4-47.59c-21-13.7-44.14,1.18-18.51,29.73S1429,1054.78,1428.37,1038.83Z"/><path class="cls-31" d="M1419.44,1029.43c-2.1,2-9.27-2-16-9s-10.56-14.28-8.5-16.31,9.29,2,16,9S1421.53,1027.41,1419.44,1029.43Z"/><path class="cls-8" d="M1424.5,1189.78c6.65.55,15.28-.47,25.65-4-36.43-1.62-83-20.09-124.55-48.74-106.78-80.53-99.76-166-99.76-166l0-20.42-5.74-4.12s-25.86,38.18-4.51,95.41c18.9,47.25,34.81,72.35,66.12,93.18S1376.82,1184.69,1424.5,1189.78Z"/><path class="cls-32" d="M1265.94,1043.78s53.51,48.34,146.5,78.87c48.64,14.24,98.8,6,83.28,23.45s-43.1,29.53-77.75,20.33S1303,1124.43,1265.94,1043.78Z"/><path class="cls-31" d="M1434.55,1162.05s20.81,3.36,36.25-4.91,18.31-17.23,8.42-17.1-15.69,8.1-34.68,13.4S1425.29,1161.37,1434.55,1162.05Z"/><path class="cls-7" d="M1276.34,889.46s-4.22,26.82,21.49,52c21.89,20.43,36.65,29.82,58.54,33.07s63.06,2.59,89.73-6.64c7.66-2.86,18.18-11.28,28.58-30.19s16.48-42.21,12.59-50.66c-42.82,11-110.48,22-109.84,21.71S1276.34,889.46,1276.34,889.46Z"/><path class="cls-7" d="M1302.58,880.47s39.64,3.23,85.9,2.22,81.6-9.43,93.41-2.4,10.58,25.48-32.64,40.52-91.81,13.23-144.6-3.61C1274.89,905.11,1259.93,876.4,1302.58,880.47Z"/><path class="cls-8" d="M1339.59,917.54c-44.29-15.12-48.56-29.74-46.93-37.4-30,1.17-15.17,26,12,37.06,52.79,16.84,101.41,18.66,144.6,3.61,19.4-6.75,30.27-14.18,35.38-21C1455.44,918.16,1390.41,934.88,1339.59,917.54Z"/><path class="cls-32" d="M1322.88,889.69s59.11,2,95.11-1.8,57.3-6.25,62.08.21c2.22,3.59-2.27,10.36-24,16.67S1403,923.14,1350,912.85c-26-5.84-38.39-15.1-42.58-19.33S1302.29,886,1322.88,889.69Z"/><path class="cls-31" d="M1437.94,888.87s18.88-2.91,27.85-2.36,11.76,3.86,7.51,6.07S1421.63,892.28,1437.94,888.87Z"/><path class="cls-7" d="M1416.19,890.43s-3.14-23.77-41.49-24.91c-28.34-1.15-44.92,23.26-33.87,33.44,10.72,9.88,50.47,16.65,69.87,6.2C1421.14,900.21,1416.19,890.43,1416.19,890.43Z"/><path class="cls-8" d="M1340.83,899c10.72,9.88,50.47,16.65,69.87,6.2,5-2.39,6.47-5.89,6.64-8.89-8.41,5.45-23.17,11.12-44.17,4.89-26.2-7.78-24.42-22.92-22-29.88C1338.49,878.9,1333.39,892.13,1340.83,899Z"/><path class="cls-32" d="M1410.37,886.48s-7.22-13.65-32.9-15.49c-14.62-2-23.22,11.69-2.42,20.47S1414.69,894.82,1410.37,886.48Z"/><path class="cls-31" d="M1403.26,883.71c-.61,1.61-5.44,1.26-10.79-.76s-9.21-5-8.62-6.56,5.45-1.27,10.8.76S1403.86,882.11,1403.26,883.71Z"/><path class="cls-8" d="M1446.1,967.85c3.68-1.37,8-4.07,12.66-8.54-19.81,8.26-49.24,10.08-78.54,5.22-77-16.15-94.69-63.42-94.69-63.42l-5.1-10.89-4.09-.76s-4.22,26.82,21.49,52c21.89,20.43,36.65,29.82,58.54,33.07S1419.43,977.08,1446.1,967.85Z"/><path class="cls-32" d="M1325.09,929.78s40.6,12.35,97.78,5.33c29.47-4.59,54.13-21.54,50.23-8.36s-15.57,26.53-36.33,30.3S1365,963.46,1325.09,929.78Z"/><path class="cls-31" d="M1444.51,950.57s11.92-3.42,18.08-11.7,5.44-13.76.2-11.22-6.33,8.25-15.11,15.83S1439.41,952.52,1444.51,950.57Z"/><path class="cls-23" d="M1416.52,208.76s9.58,49.17-56.19,55.73c27.47,7.53,50.68,22.24,49.38,66.92,5.16-20.16,20.89-61.81,52.48-59.57C1451.29,267.33,1422.27,259.54,1416.52,208.76Z"/><path class="cls-24" d="M1416.86,211.5c-.15-1.74-.34-2.74-.34-2.74C1416.62,209.69,1416.74,210.6,1416.86,211.5Z"/><path class="cls-24" d="M1420.21,227.76a110.89,110.89,0,0,1-3.35-16.26c.86,10.45-.16,47.37-56.53,53,27.47,7.53,50.68,22.24,49.38,66.92.92-3.6,2.18-7.88,3.8-12.47-3.44-24.11-11-48.48-17.19-52.75C1410.88,259.57,1417.34,241.91,1420.21,227.76Z"/><path class="cls-25" d="M1421.85,247.34s-3.8,15.45-15.12,19.65c4.44,4.56,9.46,22.07,10,29.82,4.55-13.2,14.11-25.77,23.55-26.84C1430.93,264.53,1423.61,256.35,1421.85,247.34Z"/><path class="cls-23" d="M165.92,507.81s17.51,46.95-46.3,64.18c28.33,2.94,53.63,13.65,59.67,57.93,1.79-20.73,10.49-64.39,42-67.35C209.82,559.9,179.91,557,165.92,507.81Z"/><path class="cls-24" d="M166.71,510.47c-.43-1.7-.79-2.66-.79-2.66C166.18,508.71,166.44,509.6,166.71,510.47Z"/><path class="cls-24" d="M172.68,526a110.44,110.44,0,0,1-6-15.48c2.56,10.16,7.59,46.75-47.09,61.52,28.33,2.94,53.63,13.65,59.67,57.93.32-3.69.86-8.12,1.71-12.92-7.35-23.22-18.8-46-25.6-49.22C168.68,558.86,172.16,540.38,172.68,526Z"/><path class="cls-25" d="M177.5,545s-1.22,15.86-11.7,21.85c5.13,3.78,12.95,20.22,14.72,27.79,2.33-13.77,9.7-27.74,18.84-30.34C189.27,560.48,180.71,553.6,177.5,545Z"/><path class="cls-23" d="M1523.14,645.78s14.55,60.59-66.82,72.26c34.53,7.89,64.16,24.93,64.94,80.5,5.33-25.32,22.64-77.92,62-76.83C1569.49,716.69,1533,708.57,1523.14,645.78Z"/><path class="cls-24" d="M1523.71,649.18a33.87,33.87,0,0,0-.57-3.4C1523.32,646.93,1523.51,648.06,1523.71,649.18Z"/><path class="cls-24" d="M1528.75,669.19a139.23,139.23,0,0,1-5-20c1.63,12.93,2.34,58.86-67.39,68.86,34.53,7.89,64.16,24.93,64.94,80.5,1-4.51,2.29-9.9,4.06-15.7-5.57-29.77-16.28-59.63-24.19-64.61C1518.86,709.22,1525.94,686.93,1528.75,669.19Z"/><path class="cls-25" d="M1531.83,693.44s-3.89,19.4-17.72,25.23c5.76,5.42,12.93,26.9,14,36.51,5-16.64,16.15-32.78,27.82-34.62C1544,714.31,1534.5,704.53,1531.83,693.44Z"/><path class="cls-23" d="M483.59,0s14.55,60.59-66.82,72.26c34.53,7.89,64.16,24.92,64.94,80.5,5.34-25.32,22.65-77.92,62-76.83C529.94,70.91,493.46,62.79,483.59,0Z"/><path class="cls-24" d="M484.16,3.4a33.87,33.87,0,0,0-.57-3.4C483.77,1.15,484,2.28,484.16,3.4Z"/><path class="cls-24" d="M489.21,23.41a137.88,137.88,0,0,1-5-20c1.63,12.93,2.34,58.86-67.39,68.86,34.53,7.89,64.16,24.92,64.94,80.5,1-4.52,2.29-9.9,4.06-15.7-5.57-29.77-16.27-59.64-24.19-64.62C479.31,63.44,486.4,41.15,489.21,23.41Z"/><path class="cls-25" d="M492.29,47.66s-3.9,19.4-17.73,25.22c5.76,5.43,12.94,26.91,14,36.52,4.95-16.64,16.15-32.78,27.83-34.62C504.49,68.53,495,58.75,492.29,47.66Z"/><path class="cls-23" d="M93.07,1076.07s26.18,56.55-51.31,84c35.41,1,67.8,11.83,79.5,66.17.25-25.88,6.88-80.85,45.7-87.52C152.46,1136.49,115.09,1135.69,93.07,1076.07Z"/><path class="cls-24" d="M94.3,1079.29a34,34,0,0,0-1.23-3.22C93.48,1077.16,93.89,1078.24,94.3,1079.29Z"/><path class="cls-24" d="M103.18,1097.92a137.59,137.59,0,0,1-8.88-18.63c4.14,12.36,13.87,57.25-52.54,80.76,35.41,1,67.8,11.83,79.5,66.17,0-4.61.29-10.16.89-16.19-11.31-28.09-27.68-55.28-36.42-58.6C101.34,1139.11,103.91,1115.86,103.18,1097.92Z"/><path class="cls-25" d="M111,1121.09s0,19.79-12.43,28.22c6.72,4.19,18,23.84,20.89,33,1.58-17.29,9.39-35.31,20.48-39.41C127,1139.16,115.76,1131.44,111,1121.09Z"/><path class="cls-23" d="M1204,1379.46s8.72,46.32-53.19,52.08c25.79,7.26,47.54,21.24,46,63.26,5-18.94,20-58,49.73-55.72C1236.38,1434.77,1209.12,1427.26,1204,1379.46Z"/><path class="cls-24" d="M1204.33,1382.05c-.13-1.64-.31-2.59-.31-2.59C1204.12,1380.34,1204.22,1381.2,1204.33,1382.05Z"/><path class="cls-24" d="M1207.38,1397.36a104.61,104.61,0,0,1-3.05-15.31c.74,9.83-.44,44.55-53.5,49.49,25.79,7.26,47.54,21.24,46,63.26.89-3.38,2.1-7.4,3.66-11.71-3.09-22.7-10.06-45.67-15.85-49.73C1198.41,1427.23,1204.6,1410.65,1207.38,1397.36Z"/><path class="cls-25" d="M1208.8,1415.79s-3.67,14.51-14.34,18.39c4.16,4.32,8.77,20.82,9.2,28.11,4.36-12.38,13.43-24.16,22.32-25.11C1217.24,1432,1210.4,1424.27,1208.8,1415.79Z"/><path class="cls-23" d="M1594.69,959.39s16.71,44.07-43.23,60.61c26.67,2.62,50.52,12.57,56.43,54.19,1.58-19.51,9.53-60.63,39.18-63.58C1636.24,1008.17,1608.1,1005.56,1594.69,959.39Z"/><path class="cls-24" d="M1595.44,961.89c-.41-1.59-.75-2.5-.75-2.5C1594.93,960.24,1595.18,961.07,1595.44,961.89Z"/><path class="cls-24" d="M1601.14,976.42a102,102,0,0,1-5.7-14.53c2.46,9.55,7.39,43.94-44,58.11,26.67,2.62,50.52,12.57,56.43,54.19.28-3.48.77-7.65,1.54-12.17-7-21.8-17.92-43.19-24.33-46.16C1597.54,1007.4,1600.72,990,1601.14,976.42Z"/><path class="cls-25" d="M1605.77,994.32s-1.07,14.93-10.89,20.62c4.84,3.53,12.28,19,14,26.06,2.13-13,9-26.14,17.57-28.63C1616.92,1008.81,1608.83,1002.39,1605.77,994.32Z"/></g></g></svg>