<svg xmlns="http://www.w3.org/2000/svg" viewBox="0 0 100.19 204.97"><defs><style>.cls-1{isolation:isolate;}.cls-2{fill:#f4cc34;}.cls-3{fill:#dc5359;}.cls-10,.cls-4,.cls-7{mix-blend-mode:multiply;}.cls-5,.cls-7{fill:#cbc3bc;}.cls-6{fill:#aa9c91;}.cls-8{fill:#d6363c;}.cls-9{fill:#ffd485;}.cls-10{fill:#e5e1de;}.cls-11{fill:#fff;}</style></defs><title>Asset 4</title><g class="cls-1"><g id="Layer_2" data-name="Layer 2"><g id="OBJECTS"><path class="cls-2" d="M48,148.55c.15,9.72,0,19.44.3,29.17.25,8.85-.44,18.21.93,27a.41.41,0,0,0,.79,0c1.33-8.74.27-18.14.11-27-.18-9.71-.73-19.46-.61-29.17a.76.76,0,0,0-1.52,0Z"/><path class="cls-2" d="M51.77,145.37c-.5,9.45-.05,18.87,0,28.32s-1.31,19.64.82,28.81a.88.88,0,0,0,1.73-.24c.53-18.89-.92-38-1-56.89a.76.76,0,0,0-1.52,0Z"/><path class="cls-2" d="M55,145.37c-.4,16.4.89,33,1.21,49.39a1,1,0,0,0,1.92,0c.89-8.23-.58-16.66-.64-24.92s-.17-16.31-.46-24.47a1,1,0,0,0-2,0Z"/><path class="cls-3" d="M45.22,136.71c-2.27,3-1.55,8.59,1.25,10.88a8.27,8.27,0,0,0,8.91,1.2c6-2.89,7.72-14.4-.8-14.39a25.51,25.51,0,0,0-4.74.34c-2,.35-2.74,1.15-4.43,2.16"/><g class="cls-4"><path class="cls-5" d="M60.22,142.15c.82-3.84-.67-7.76-5.64-7.75a25.51,25.51,0,0,0-4.74.34c-2,.35-2.74,1.15-4.43,2.16l-.19-.19a7.85,7.85,0,0,0-1.29,5.57C49.53,144,54.83,143.57,60.22,142.15Z"/></g><path class="cls-6" d="M51.63,44.48c.33-7.63.38-15.39.51-23,.12-6.92.51-14.17-.57-21a.6.6,0,0,0-1.15,0c-1.08,6.84-.69,14.1-.58,21,.13,7.65.19,15.42.52,23a.64.64,0,0,0,1.27,0Z"/><path class="cls-3" d="M45.31,52.09c-.71-1.82-1.63-5.26-1-7.22s6-2.17,8.06-2.17c.83,0,3-.36,3.65.39.42.49.2,2.77.14,3.43-.11,1.16-.48,2.29-.59,3.43-.15,1.52.43,2-1.26,2.11-2.6.16-5.89-.86-8.41-.12"/><path class="cls-2" d="M68.39,123.25A1.25,1.25,0,0,0,67.15,122c-4,.3-7.9,1.71-11.94,2.21a69.71,69.71,0,0,1-9.69.33c-2,0-5.42.47-7.21-.56a1.44,1.44,0,0,0-1.4-.06.84.84,0,0,0-1,.61c-1,4-1.64,10,1.72,13.16s9.5,2.13,13.69,2.06c4.45-.07,9.74-.26,13.52-2.92C69.32,133.7,68.84,128.13,68.39,123.25Z"/><path class="cls-7" d="M51.62,131.26c6.16,0,11.49-1.6,17.05-3.28,0-1.58-.14-3.19-.28-4.73A1.25,1.25,0,0,0,67.15,122c-4,.3-7.9,1.71-11.94,2.21a69.71,69.71,0,0,1-9.69.33c-2,0-5.42.47-7.21-.56a1.44,1.44,0,0,0-1.4-.06.84.84,0,0,0-1,.61,24.75,24.75,0,0,0-.8,5.21C40.41,131.24,46.18,131.27,51.62,131.26Z"/><path class="cls-2" d="M34.24,60.46c-.14-.23-.32-.58-.51-1l-.45,0Z"/><path class="cls-2" d="M66.68,53A13.74,13.74,0,0,0,60.48,50a57.88,57.88,0,0,0-20.08-.1c-2,.31-7.47,1.84-8.09,4.09-.32,1.17.64,3.83,1.42,5.47,2.31-.08,4.58-.68,7-.56,3.38.16,6.85.2,10.28.2a64,64,0,0,1,10.38.57c1.16.19,2.28.93,3.32,1.11,1.84.31,1.56-.18,2.08-1.84C67.61,56.31,69.08,55.11,66.68,53Z"/><path class="cls-8" d="M94.38,74.24c-19.63-23.71-68-23-87.36.88A31.63,31.63,0,0,0,.26,90.64c-2.79,20.18,17.45,34.3,34.93,37,19.07,3,41.32-.41,55.72-14.31C101.17,103.47,103.76,85.56,94.38,74.24Z"/><path class="cls-9" d="M34.36,89c.3-10.89,2.26-21.85,7.13-31.48-.84.12-1.67.26-2.5.41C34.48,67.12,32.77,77.75,32.37,88c-.53,13.2,2.2,28.76,9.6,40.48.92.07,1.85.11,2.77.15-2.78-5.15-5.57-10.2-7.33-16A74.14,74.14,0,0,1,34.36,89Z"/><path class="cls-9" d="M11.71,91.55A60.53,60.53,0,0,1,25.22,61.92c-1.34.57-2.64,1.18-3.91,1.84-6.37,8.68-10.56,19-11.23,29.58C9.5,102.5,12.27,111.26,17,119c.59,1,1.21,2,1.86,3,1.26.7,2.55,1.34,3.85,1.93C14.85,115.1,10,104.08,11.71,91.55Z"/><path class="cls-9" d="M59.3,57.26c-.71-.08-1.42-.16-2.14-.22A84.79,84.79,0,0,1,64,95.21a110.6,110.6,0,0,1-2.82,20.9,72.5,72.5,0,0,1-4.59,12.1c.79-.08,1.58-.19,2.37-.3C69.56,106.13,70.65,78.55,59.3,57.26Z"/><path class="cls-9" d="M89.55,93A49.42,49.42,0,0,0,77.88,62.13,56.42,56.42,0,0,0,72.27,60,49.53,49.53,0,0,1,86.6,93c.47,9.63-1.58,16.87-7.46,24.53a46,46,0,0,1-7.24,7.32A56.86,56.86,0,0,0,78.58,122,41.27,41.27,0,0,0,89.55,93Z"/><path class="cls-10" d="M94.38,74.24c0-.07-.12-.13-.18-.2a34.19,34.19,0,0,1-4.28,16.45C83.19,102.74,70.27,111.23,57,114.93c-18.41,5.14-43.27,1.19-56.14-13.85,3.9,14.53,20,24.36,34.3,26.6,19.07,3,41.32-.41,55.72-14.31C101.17,103.47,103.76,85.56,94.38,74.24Z"/><path class="cls-11" d="M36.25,56a8.05,8.05,0,0,1,2.25-1.39c1-.39,2.29-1.38,1.26-2.48-.85-.9-2.26-.35-3.16.15a7,7,0,0,0-2.35,2.18c-.87,1.24,1,2.44,2,1.54Z"/><path class="cls-11" d="M43.43,53.94A2,2,0,0,0,45.11,53a1.13,1.13,0,0,0-.67-1.64l-.63-.24a1.42,1.42,0,1,0-.38,2.79Z"/><path class="cls-11" d="M37.57,134.41c.66,2.22,3.32,4,5.62,3.18a1,1,0,0,0,.43-1.64c-1-1.27-3.1-.95-4-2.42a1.14,1.14,0,0,0-2.08.88Z"/><path class="cls-11" d="M46.9,138.2c.63-.08,1.54-.28,1.52-1.11s-.73-.77-1.24-1a1.06,1.06,0,1,0-.28,2.08Z"/></g></g></g></svg>